<?xml version="1.0" encoding="UTF-8"?>
<svg id="Capa_1" xmlns="http://www.w3.org/2000/svg" version="1.1" viewBox="0 0 1024 1024">
  <!-- Generator: Adobe Illustrator 29.8.1, SVG Export Plug-In . SVG Version: 2.1.1 Build 2)  -->
  <defs>
    <style>
      .st0 {
        isolation: isolate;
      }

      .st1 {
        fill: #773357;
      }
    </style>
  </defs>
  <g>
    <path class="st1" d="M827.55,330.67c-.05.42-1.38,1.35-1,2.49,2.01,1.76,44.1-16.67,51.2-14.77,4.7,1.32,7.18,4.39,7.77,9.26,2.97,24.9-2.32,55.49.04,81.01.15,4.31-3.67,8.37-7.79,9.19-12.03,2.42-37.03-12.19-50.22-12.75v36.46c0,5.52-6.68,15.96-6.66,20.8.03,7.5,5.43,25.97,7.34,34.48,7.57,33.84,17.76,67.32,24.11,101.3-1.23,6.09-4.21,8.23-10.25,8.81-57.38-4.53-123.43,11.54-176.4-14.52-63.41-31.2-124.21-73.18-187.51-105.21l-173.66-.17c-31.82-1.81-63.98-3.16-95.39-9.51-24.83-5.02-69.24-16.96-72.8-47.08-4.54-38.33,40.11-52.59,65.14-69.51,20.38-13.77,35.76-34.05,56.71-47.18,22.54-14.13,47.85-21.19,74.3-23.6l289.55-.16,162.05-148.65c2.46-1.77,6.08-3.5,9.07-3.91,25.61-3.49,58.44,2.43,84.83-.09,11.68,2.33,11.28,8.5,7.98,17.97-16.96,48.57-41.19,96.65-58.43,145.37-.8,9.53,1.09,20.67,0,29.97h.02ZM862.52,158.34h-66.44l-8.51,6.48-136.85,125.39h159.84l51.95-131.87h.01ZM365,310.19c-29.27-.85-60.61-.39-86.58,14.83-1.69.99-4.94,1.91-4.33,4.16h30.47c10.13,0,23.21,13.04,25.02,22.93,4.19,22.91-10.38,36.33-32.03,38-32.74,2.52-69.5-2.94-101.93-.03-14.27,1.28-43.34,21.3-39.99,38.05,4.01,20.05,47.21,28.57,64.29,31.63,66.41,11.87,146.86,9.39,214.5,7.28,2.19-.07,8.19,3.18,7.49-.98-8.08-4.26-36.69-13.47-25.52-26.03.59-.67,3.56-2.95,4.04-2.95h387.12l1-126.88h-424.59v70.43c0,13.13-18.12,36.18-29.23,42.7-12.3,7.22-21.91-4.76-13.77-13.77,7.64-8.45,24.02-19.2,24.02-32.93v-66.44h.02ZM866.51,396.11v-53.45c0-.3-1.49-1.77-2.29-1.35l-36.08,11.73-.49,31.99,38.86,11.09h0ZM222.15,371.13c1.18-.47,1.8-.84,3.19-.74,17.06,1.21,62.16,3.36,76.98-.5,11.08-2.89,10.86-19.87-.82-21.67-7.62-1.18-43.26-1.18-50.65.17-4.73.86-22.91,15.83-27.03,19.93-.89.88-2.18.86-1.67,2.82h0ZM740.14,456.05h-276.23l213.12,120.06c28.37,12.77,73.17,14.43,104.12,11.86,1.32-.11,3.13.22,4.03-1l.02-3.09-45.05-127.84h-.01ZM800.58,456.05h-38.96l46.45,131.87h21.98l-29.47-131.87Z"/>
    <path class="st1" d="M448.68,334.43c46.77-6.1,46.26,68.74-3.01,60.44-30.77-5.19-30.3-56.09,3.01-60.44ZM449.63,353.37c-9.85,2.27-10.26,19.37-.76,22.32,20.51,6.36,21.64-27.12.76-22.32Z"/>
    <path class="st1" d="M527.6,334.43c45.79-6.51,47.85,67.62-1.99,60.42-31.2-4.51-31.31-55.68,1.99-60.42ZM528.55,353.37c-10,2.3-10.5,19.3-.76,22.32,20.53,6.37,21.48-27.08.76-22.32Z"/>
    <path class="st1" d="M606.52,334.43c40.57-5.32,45.47,56.15,9.62,60.57-44.14,5.44-47.52-55.6-9.62-60.57ZM606.47,353.37c-9.85,2.26-10.26,19.37-.76,22.32,20.6,6.38,21.85-27.17.76-22.32Z"/>
  </g>
  <g class="st0">
    <g class="st0">
      <path class="st1" d="M207.81,775.22h21.67l27.28,79.09h-17.38l-5.83-18.04h-29.81l-5.83,18.04h-17.49l27.39-79.09ZM229.37,822.96l-10.78-33.22-10.56,33.22h21.34Z"/>
      <path class="st1" d="M259.84,825.27c0-20.9,9.24-31.13,28.38-31.13,15.73,0,25.08,6.05,25.08,25.08,0,4.73-.66,10.56-.66,10.78h-36.3c.11,7.15,4.07,12.1,13.86,12.1,6.49,0,14.74-.88,21.23-3.08l.11,12.98c-5.94,2.53-13.42,3.63-21.67,3.63-21.23,0-30.03-9.24-30.03-30.36ZM297.79,820.32v-2.42c0-7.26-3.19-10.12-9.57-10.12-7.59,0-11.55,4.07-11.99,12.54h21.56Z"/>
      <path class="st1" d="M322.65,795.13h12.54l2.75,15.95c4.51-10.01,12.1-15.84,21.56-15.84l.22,15.51c-9.57.77-20.9,1.98-20.9,9.79l-.11,33.77h-16.17l.11-59.18Z"/>
      <path class="st1" d="M363.57,824.94c0-23.21,11.55-30.8,29.04-30.8s28.6,8.8,28.6,30.8c0,23.21-12.1,30.69-28.6,30.69-17.6,0-29.04-8.03-29.04-30.69ZM404.6,824.83c0-11.77-3.63-17.82-11.99-17.82s-12.54,5.17-12.54,17.93,4.4,17.71,12.43,17.71c8.8,0,12.1-6.38,12.1-17.82Z"/>
      <path class="st1" d="M428.8,825.27c0-20.9,9.24-31.13,28.38-31.13,15.73,0,25.08,6.05,25.08,25.08,0,4.73-.66,10.56-.66,10.78h-36.3c.11,7.15,4.07,12.1,13.86,12.1,6.49,0,14.74-.88,21.23-3.08l.11,12.98c-5.94,2.53-13.42,3.63-21.67,3.63-21.23,0-30.03-9.24-30.03-30.36ZM466.75,820.32v-2.42c0-7.26-3.19-10.12-9.57-10.12-7.59,0-11.55,4.07-11.99,12.54h21.56Z"/>
      <path class="st1" d="M489.85,852.22l.22-13.31c5.72,1.98,15.62,3.41,20.24,3.41,5.83-.11,10.12-1.43,10.12-5.39,0-2.53-1.54-3.74-7.37-5.39-2.31-.66-5.83-1.76-8.69-2.64-9.57-3.19-14.08-7.59-14.08-16.94,0-11.22,9.46-17.93,23.65-17.93,8.25,0,15.73.99,20.57,3.19v12.87c-3.63-.88-12.65-2.97-19.58-2.97-5.28,0-8.8,1.65-8.8,4.73s2.31,3.63,6.82,4.95c3.08.99,6.49,1.98,8.58,2.64,9.79,3.19,14.41,7.81,14.41,17.27,0,11.55-8.03,18.92-25.63,18.92-7.26,0-14.63-.88-20.46-3.41Z"/>
      <path class="st1" d="M545.39,795.13h12.65l2.64,12.98c2.86-11.11,11.22-14.08,17.38-14.08,16.94,0,23.54,11.33,23.54,29.59,0,19.36-5.28,31.57-24.86,31.79-8.8,0-13.86-5.39-15.07-7.59l-.11,28.49h-16.17v-81.18ZM585.21,823.51c-.11-7.81-1.32-15.95-11.88-15.95-6.93,0-11.55,4.51-11.55,12.43v10.01c0,6.6,3.85,11.55,11,11.55,10.89,0,12.43-7.04,12.43-18.04Z"/>
      <path class="st1" d="M669.58,840.34v13.42c-4.07,1.87-7.59,1.87-10.45,1.87-8.58-.11-13.42-3.74-13.53-13.31-2.2,9.46-10.23,13.31-16.94,13.31-15.18,0-20.02-8.69-20.02-18.48,0-11.88,8.69-17.71,24.53-17.71h11.88v-1.98c0-7.04-3.85-10.01-12.32-10.01-6.05,0-14.19,1.65-20.57,4.18v-13.64c5.39-2.2,15.95-3.96,21.78-3.96,20.24,0,27.5,7.81,27.61,26.84v18.59c.22,1.21.77,2.09,2.2,2.09,3.3-.22,4.29-.55,5.83-1.21ZM645.28,829.56h-9.57c-5.17,0-11.55,1.76-11.66,7.04,0,3.3,1.65,6.71,8.47,6.71,7.48,0,12.76-4.51,12.76-11.99v-1.76Z"/>
      <path class="st1" d="M672.88,824.5c0-17.71,7.59-30.36,29.04-30.36,8.36,0,14.41,1.21,18.37,3.08l-.11,13.53c-6.16-2.09-11.55-2.75-15.51-2.75-11.44,0-15.51,6.6-15.51,16.83,0,10.78,3.41,16.94,14.3,16.94,2.86,0,10.45-.55,16.94-2.75v13.31c-4.51,2.31-11.11,3.3-17.16,3.3-17.93,0-30.36-6.82-30.36-31.13Z"/>
      <path class="st1" d="M728.87,771.7h18.04v16.61h-18.04v-16.61ZM729.75,795.13h16.17v59.18h-16.17v-59.18Z"/>
      <path class="st1" d="M816.21,840.34v13.42c-4.07,1.87-7.59,1.87-10.45,1.87-8.58-.11-13.42-3.74-13.53-13.31-2.2,9.46-10.23,13.31-16.94,13.31-15.18,0-20.02-8.69-20.02-18.48,0-11.88,8.69-17.71,24.53-17.71h11.88v-1.98c0-7.04-3.85-10.01-12.32-10.01-6.05,0-14.19,1.65-20.57,4.18v-13.64c5.39-2.2,15.95-3.96,21.78-3.96,20.24,0,27.5,7.81,27.61,26.84v18.59c.22,1.21.77,2.09,2.2,2.09,3.3-.22,4.29-.55,5.83-1.21ZM791.9,829.56h-9.57c-5.17,0-11.55,1.76-11.66,7.04,0,3.3,1.65,6.71,8.47,6.71,7.48,0,12.76-4.51,12.76-11.99v-1.76Z"/>
      <path class="st1" d="M821.16,841.77v-69.96h15.95v66.44c0,1.87.99,3.3,3.74,3.3,3.08,0,6.16-.55,7.7-1.21v13.42c-4.73,1.54-8.91,1.87-11.77,1.87-8.69-.11-15.62-3.85-15.62-13.86Z"/>
    </g>
  </g>
</svg>