<?xml version="1.0" encoding="UTF-8"?>
<svg id="Capa_1" xmlns="http://www.w3.org/2000/svg" version="1.1" viewBox="0 0 1024 1024">
  <!-- Generator: Adobe Illustrator 29.8.1, SVG Export Plug-In . SVG Version: 2.1.1 Build 2)  -->
  <defs>
    <style>
      .st0 {
        isolation: isolate;
      }

      .st1 {
        fill: #7c4a36;
      }
    </style>
  </defs>
  <g>
    <path class="st1" d="M429.34,440.77c23.22-34.88,28.75-72.79,16.44-112.68-6.95-22.5-17.79-45.54-34.14-72.51-9.14-15.08-25.75-39.92-44.43-66.45-29.83-42.35-33.62-45.07-35.24-46.23-.52-.37-1.06-.7-1.62-.97-2.96-2.88-7.39-4.07-11.6-2.69-6.77,2.21-10.85,6.77-13.65,10.48-12.6,16.75-37.02,53.67-59.37,89.78-15.26,24.66-41.59,68.36-46.43,84.07-9.89,32.14-9.89,60.69,0,87.28,18.57,49.85,54.17,79.08,105.8,86.88,5.94.9,11.9,1.35,17.85,1.35,13.43,0,26.85-2.28,40.08-6.82,27.53-9.46,49.84-26.78,66.29-51.49h0ZM355.58,470.51c-15.77,5.42-31.16,6.88-47.03,4.49-43.35-6.55-72.03-30.15-87.68-72.16-8.07-21.66-7.93-45.37.42-72.48,6.44-20.93,73.62-128.02,100.5-164.52,13.46,17.34,52.56,72.6,70.18,101.67,15.55,25.66,25.37,46.44,31.83,67.37,10.32,33.43,5.87,63.9-13.61,93.15-13.78,20.7-31.65,34.6-54.62,42.48h.01Z"/>
    <path class="st1" d="M831.36,434.35c-.16-.82-.32-1.67-.34-2.14-1.36-22.88-9.76-42.04-24.98-56.95-13.08-12.82-29.59-19.67-49.07-20.36-13.01-.46-24.53,3.16-36.18,7.24-.15.05-.31.12-.47.17.04-1.04.08-2.08.15-3.11.98-15.03,7.33-26.57,19.4-35.28,5.1-3.68,8.84-5.16,12.49-4.94,6.34.38,11.79-4.44,12.18-10.78s-4.44-11.79-10.78-12.18c-12.01-.73-21.36,4.93-27.35,9.24-17.73,12.8-27.45,30.44-28.89,52.43-.1,1.57-.17,3.12-.21,4.65-1.33-.45-2.67-.92-4.09-1.44-3.05-1.11-6.2-2.26-9.67-3.17-17.48-4.59-33.79-3.67-48.48,2.72-21.38,9.3-36.12,26.47-43.83,51.01-5.8,18.46-6.5,38.07-2.1,58.28,7.57,34.73,22.38,61.73,45.28,82.52,16.1,14.61,34.96,19.78,56.06,15.37,2.63-.55,5.07-1.24,7.42-1.91,3.75-1.06,6.98-1.98,10.02-2.07,4.22-.13,8.57.98,13.61,2.27,2.87.73,5.84,1.49,9,2.06,4.66.84,9.08,1.27,13.26,1.27,8.54,0,16.15-1.76,23.01-5.31,11.71-6.05,21.73-14.29,29.79-24.47,22.26-28.12,34.18-60.49,35.4-96.2v-.22c.34-3.49-.23-6.48-.65-8.71h.02ZM809.01,442.65c-1.1,31.06-11.06,58.06-30.44,82.55-6.11,7.72-13.41,13.71-22.32,18.32-5.63,2.91-12.49,3.5-21.61,1.84-2.37-.43-4.82-1.05-7.42-1.72-5.52-1.41-11.73-2.99-18.65-2.99-.44,0-.88,0-1.33.02-5.89.18-11.05,1.64-15.61,2.93-2.07.59-4.02,1.14-5.86,1.53-13.86,2.9-25.27-.24-35.89-9.88-19.24-17.46-31.76-40.49-38.27-70.39-3.54-16.26-3.01-31.9,1.57-46.49,5.7-18.16,15.86-30.2,31.07-36.81,9.98-4.34,20.92-4.86,33.46-1.56,2.44.64,4.96,1.56,7.64,2.54,2.36.86,4.8,1.75,7.41,2.53l.78.24c3.14.97,7.89,2.45,13.79.73.18-.05.75-.22,2.86.34,6.76,1.8,12.65-.43,16.55-1.91.56-.21,1.11-.42,1.66-.61,9.85-3.45,18.73-6.28,27.75-5.96,13.76.49,24.81,5,33.79,13.81,11.17,10.94,17.09,24.64,18.12,41.88.12,1.95.44,3.68.71,5.06.14.77.34,1.8.35,2.21-.08.61-.12,1.21-.1,1.8h0Z"/>
    <path class="st1" d="M596.15,537.28c-5.29,0-10.58.03-15.87.05-12.91.07-26.26.14-39.28-.22-.6-.02-1.21-.02-1.81-.03v-187.5c14.67-.69,28.84-6.68,42.24-17.91,19.8-16.59,29.79-39.02,29.68-66.66-.01-3.37-.04-11.28-6.03-16.36-5.98-5.08-13.79-3.82-16.74-3.35-16.92,2.71-29.85,11.51-40.28,19.76-8.69,6.88-16.67,19.49-22.35,31.78-.83-1.13-1.68-2.28-2.62-3.45-11.25-14.06-25.64-22.04-42.76-23.72-3.25-.32-10.86-1.07-16.49,4.35-5.62,5.41-5.16,13.24-4.99,16.18.4,6.78,1.43,16.95,5.79,26.93,9.12,20.88,25.21,33.72,47.82,38.17,1.26.25,2.5.44,3.72.6v57.93c-1.74-1.86-3.7-3.81-6.06-5.59-8.21-6.2-19.52-13.43-34.19-14.35-2.91-.18-10.63-.66-16.17,4.82-5.46,5.41-5.08,12.86-4.95,15.3,1.37,26.39,12.7,45.86,33.66,57.86,8.87,5.08,18.17,8.03,27.71,8.8v56.47c-28.14.23-56.71.2-84.38.16-10.01-.01-20.03-.02-30.04-.02-6.35,0-11.5,5.15-11.5,11.5s5.15,11.5,11.5,11.5c10,0,20.01.01,30.02.02,28.84.04,58.66.07,88.01-.19l3.81-.04c.97-.01,1.92-.02,2.88-.03.4.04.8.06,1.21.06.45,0,.9-.03,1.34-.08,3.83-.03,7.57-.02,11.35.08,8.07.22,16.19.28,24.23.28,5.31,0,10.59-.03,15.8-.05,5.25-.03,10.5-.05,15.75-.05,6.35,0,11.5-5.15,11.5-11.5s-5.15-11.5-11.5-11.5h0ZM499.92,451.91c-12.95-7.42-19.93-18.48-21.75-34.6,5.54,1.09,11.05,3.95,18.11,9.28,1.39,1.05,2.9,2.69,4.49,4.43,2.83,3.09,6.18,6.74,10.91,9.46,1.27,5.34,2.42,11.17,2.44,16.77-4.8-.88-9.5-2.64-14.2-5.33h0ZM562.35,283.1c7.17-5.67,15.72-11.66,25.7-14.26-.74,18.96-7.76,33.78-21.39,45.2-8.81,7.38-17.5,11.48-26.38,12.41-.04-.52-.09-1.05-.14-1.57.89-6.83,10.98-32.89,22.21-41.78ZM485.74,307.92c-1.81-4.15-2.95-8.81-3.57-14.76,9.04,1.81,16.59,6.61,22.99,14.6.89,1.11,1.78,2.34,2.73,3.64,2.22,3.06,4.81,6.62,8.31,9.81v11.37c-14.78-3.09-24.47-10.95-30.46-24.67h0Z"/>
    <path class="st1" d="M316.38,426.14c-5.92-.03-10.02-.44-13.72-1.38-14.55-3.69-26.65-11.86-35-23.62-8.29-11.7-12.12-25.83-11.07-40.87.44-6.34-4.33-11.83-10.67-12.27-6.31-.44-11.83,4.33-12.27,10.67-2.93,41.85,23.13,78.2,63.36,88.39,7.1,1.8,14.03,2.06,19.27,2.08h.05c6.33,0,11.47-5.11,11.5-11.45.03-6.35-5.1-11.52-11.45-11.55h0Z"/>
    <path class="st1" d="M524.71,573.75c-14.55.61-29.48.55-43.92.49-7.41-.03-15.07-.06-22.64,0-6.35.05-11.46,5.24-11.41,11.59.05,6.35,5.2,11.46,11.59,11.41,7.43-.06,15.02-.03,22.37,0,4.34.02,8.73.04,13.15.04,10.53,0,21.21-.1,31.84-.55,6.35-.27,11.27-5.63,11.01-11.97-.27-6.35-5.6-11.26-11.97-11.01h-.02Z"/>
  </g>
  <g class="st0">
    <g class="st0">
      <path class="st1" d="M222.43,737.38h21.67l27.28,79.09h-17.38l-5.83-18.04h-29.81l-5.83,18.04h-17.49l27.39-79.09ZM243.99,785.12l-10.78-33.22-10.56,33.22h21.34Z"/>
      <path class="st1" d="M293.49,817.68c-17.71,0-23.65-12.43-23.65-30.58,0-15.29,3.52-30.91,23.65-30.91,5.61,0,15.07,2.53,16.83,13.97l2.75-12.87h12.87v62.81c0,13.09-10.01,18.37-28.49,18.37-7.92,0-19.36-1.65-24.53-3.85v-13.31c4.95,1.43,14.41,4.18,25.63,4.18h.44c3.19,0,10.67-.11,10.67-4.62v-13.42c-2.31,4.4-6.82,10.23-16.17,10.23ZM309.66,792.38v-10.45c0-7.37-4.51-11.88-11.22-11.88-10.34,0-12.21,6.71-12.21,16.94v.66c0,10.78,2.64,16.39,11.99,16.39,7.15,0,11.44-5.94,11.44-11.66Z"/>
      <path class="st1" d="M399.09,802.5v13.42c-4.07,1.87-7.59,1.87-10.45,1.87-8.58-.11-13.42-3.74-13.53-13.53-3.63,12.54-13.09,13.53-17.6,13.53-13.86,0-20.79-8.36-20.79-24.75v-35.75h16.17v34.76c0,7.7,2.2,12.1,10.34,12.1,5.06,0,11.66-2.86,11.66-12.54v-34.21h16.17v43.01c0,1.76.22,3.3,2.2,3.3,3.3-.22,4.29-.55,5.83-1.21Z"/>
      <path class="st1" d="M463.22,802.5v13.42c-4.07,1.87-7.59,1.87-10.45,1.87-8.58-.11-13.42-3.74-13.53-13.31-2.2,9.46-10.23,13.31-16.94,13.31-15.18,0-20.02-8.69-20.02-18.48,0-11.88,8.69-17.71,24.53-17.71h11.88v-1.98c0-7.04-3.85-10.01-12.32-10.01-6.05,0-14.19,1.65-20.57,4.18v-13.64c5.39-2.2,15.95-3.96,21.78-3.96,20.24,0,27.5,7.81,27.61,26.84v18.59c.22,1.21.77,2.09,2.2,2.09,3.3-.22,4.29-.55,5.83-1.21ZM438.91,791.72h-9.57c-5.17,0-11.55,1.76-11.66,7.04,0,3.3,1.65,6.71,8.47,6.71,7.48,0,12.76-4.51,12.76-11.99v-1.76Z"/>
      <path class="st1" d="M470.81,800.08h17.27l-11.66,27.28h-10.45l4.84-27.28Z"/>
      <path class="st1" d="M583.11,802.5v13.42c-4.07,1.87-7.59,1.87-10.45,1.87-8.58-.11-13.42-3.74-13.53-13.31-2.2,9.46-10.23,13.31-16.94,13.31-15.18,0-20.02-8.69-20.02-18.48,0-11.88,8.69-17.71,24.53-17.71h11.88v-1.98c0-7.04-3.85-10.01-12.32-10.01-6.05,0-14.19,1.65-20.57,4.18v-13.64c5.39-2.2,15.95-3.96,21.78-3.96,20.24,0,27.5,7.81,27.61,26.84v18.59c.22,1.21.77,2.09,2.2,2.09,3.3-.22,4.29-.55,5.83-1.21ZM558.8,791.72h-9.57c-5.17,0-11.55,1.76-11.66,7.04,0,3.3,1.65,6.71,8.47,6.71,7.48,0,12.76-4.51,12.76-11.99v-1.76Z"/>
      <path class="st1" d="M605.44,817.68c-17.71,0-23.65-12.43-23.65-30.58,0-15.29,3.52-30.91,23.65-30.91,5.61,0,15.07,2.53,16.83,13.97l2.75-12.87h12.87v62.81c0,13.09-10.01,18.37-28.49,18.37-7.92,0-19.36-1.65-24.53-3.85v-13.31c4.95,1.43,14.41,4.18,25.63,4.18h.44c3.19,0,10.67-.11,10.67-4.62v-13.42c-2.31,4.4-6.82,10.23-16.17,10.23ZM621.61,792.38v-10.45c0-7.37-4.51-11.88-11.22-11.88-10.34,0-12.21,6.71-12.21,16.94v.66c0,10.78,2.64,16.39,11.99,16.39,7.15,0,11.44-5.94,11.44-11.66Z"/>
      <path class="st1" d="M648.89,757.29h12.54l2.75,15.95c4.51-10.01,12.1-15.84,21.56-15.84l.22,15.51c-9.57.77-20.9,1.98-20.9,9.79l-.11,33.77h-16.17l.11-59.18Z"/>
      <path class="st1" d="M689.81,787.1c0-23.21,11.55-30.8,29.04-30.8s28.6,8.8,28.6,30.8c0,23.21-12.1,30.69-28.6,30.69-17.6,0-29.04-8.03-29.04-30.69ZM730.84,786.99c0-11.77-3.63-17.82-11.99-17.82s-12.54,5.17-12.54,17.93,4.4,17.71,12.43,17.71c8.8,0,12.1-6.38,12.1-17.82Z"/>
      <path class="st1" d="M832.15,770.16l-24.53,68.2h-15.51l8.69-21.89h-5.94l-20.13-59.18h16.5l13.97,43.89,11.22-33.22c.33-1.32.55-2.2.55-3.96-.11-3.41-1.87-6.71-1.87-6.71h15.4s1.76,3.19,2.09,8.36c0,1.43,0,2.86-.44,4.51Z"/>
    </g>
    <g class="st0">
      <path class="st1" d="M319.45,917.5v13.42c-4.07,1.87-7.59,1.87-10.45,1.87-8.58-.11-13.42-3.74-13.53-13.31-2.2,9.46-10.23,13.31-16.94,13.31-15.18,0-20.02-8.69-20.02-18.48,0-11.88,8.69-17.71,24.53-17.71h11.88v-1.98c0-7.04-3.85-10.01-12.32-10.01-6.05,0-14.19,1.65-20.57,4.18v-13.64c5.39-2.2,15.95-3.96,21.78-3.96,20.24,0,27.5,7.81,27.61,26.84v18.59c.22,1.21.77,2.09,2.2,2.09,3.3-.22,4.29-.55,5.83-1.21ZM295.14,906.72h-9.57c-5.17,0-11.55,1.76-11.66,7.04,0,3.3,1.65,6.71,8.47,6.71,7.48,0,12.76-4.51,12.76-11.99v-1.76Z"/>
      <path class="st1" d="M324.4,918.93v-69.96h15.95v66.44c0,1.87.99,3.3,3.74,3.3,3.08,0,6.16-.55,7.7-1.21v13.42c-4.73,1.54-8.91,1.87-11.77,1.87-8.69-.11-15.62-3.85-15.62-13.86Z"/>
      <path class="st1" d="M356.3,848.86h18.04v16.61h-18.04v-16.61ZM357.18,872.29h16.17v59.18h-16.17v-59.18Z"/>
      <path class="st1" d="M384.57,872.29h13.31l1.98,12.87c3.85-13.75,13.53-13.97,18.37-13.97,9.24,0,15.18,4.51,17.05,14.63,3.52-13.53,14.41-14.63,19.36-14.63,13.64,0,20.35,8.25,20.35,24.53v35.75h-16.17v-34.76c0-7.7-1.76-12.1-9.9-12.1-4.84,0-11.11,2.42-11.11,12.21v34.65h-16.17v-34.76c0-7.7-1.65-12.1-9.79-12.1-5.17,0-11.22,2.53-11.22,12.21v34.65h-16.17l.11-59.18Z"/>
      <path class="st1" d="M484.12,902.43c0-20.9,9.24-31.13,28.38-31.13,15.73,0,25.08,6.05,25.08,25.08,0,4.73-.66,10.56-.66,10.78h-36.3c.11,7.15,4.07,12.1,13.86,12.1,6.49,0,14.74-.88,21.23-3.08l.11,12.98c-5.94,2.53-13.42,3.63-21.67,3.63-21.23,0-30.03-9.24-30.03-30.36ZM522.07,897.48v-2.42c0-7.26-3.19-10.12-9.57-10.12-7.59,0-11.55,4.07-11.99,12.54h21.56Z"/>
      <path class="st1" d="M546.93,872.29h12.76l2.64,12.87c3.96-13.53,13.31-13.97,17.93-13.97,13.86,0,21.01,8.25,21.01,24.53l-.11,35.75h-16.17l.11-34.76c0-7.7-2.31-12.1-10.56-12.1-4.73,0-11.44,2.53-11.44,12.21l-.11,34.65h-16.17l.11-59.18Z"/>
      <path class="st1" d="M618.1,916.95v-31.57h-11.99v-13.09h11.99v-13.64h16.17v13.64h17.49v13.09h-17.49v28.93c0,3.08,2.31,4.18,5.72,4.18s9.46-1.1,11.77-1.87v13.2c-4.07,2.31-11.99,2.97-15.51,2.97-8.8,0-18.15-3.08-18.15-15.84Z"/>
      <path class="st1" d="M658.68,902.1c0-23.21,11.55-30.8,29.04-30.8s28.6,8.8,28.6,30.8c0,23.21-12.1,30.69-28.6,30.69-17.6,0-29.04-8.03-29.04-30.69ZM699.71,901.99c0-11.77-3.63-17.82-11.99-17.82s-12.54,5.17-12.54,17.93,4.4,17.71,12.43,17.71c8.8,0,12.1-6.38,12.1-17.82Z"/>
      <path class="st1" d="M723.91,929.38l.22-13.31c5.72,1.98,15.62,3.41,20.24,3.41,5.83-.11,10.12-1.43,10.12-5.39,0-2.53-1.54-3.74-7.37-5.39-2.31-.66-5.83-1.76-8.69-2.64-9.57-3.19-14.08-7.59-14.08-16.94,0-11.22,9.46-17.93,23.65-17.93,8.25,0,15.73.99,20.57,3.19v12.87c-3.63-.88-12.65-2.97-19.58-2.97-5.28,0-8.8,1.65-8.8,4.73s2.31,3.63,6.82,4.95c3.08.99,6.49,1.98,8.58,2.64,9.79,3.19,14.41,7.81,14.41,17.27,0,11.55-8.03,18.92-25.63,18.92-7.26,0-14.63-.88-20.46-3.41Z"/>
    </g>
  </g>
</svg>