<?xml version="1.0" encoding="UTF-8"?>
<svg id="Capa_1" xmlns="http://www.w3.org/2000/svg" version="1.1" viewBox="0 0 1024 1024">
  <!-- Generator: Adobe Illustrator 29.8.1, SVG Export Plug-In . SVG Version: 2.1.1 Build 2)  -->
  <defs>
    <style>
      .st0 {
        isolation: isolate;
      }

      .st1 {
        fill: #cbcabe;
      }
    </style>
  </defs>
  <g class="st0">
    <g class="st0">
      <path class="st1" d="M200.49,732.72h21.67l27.28,79.09h-17.38l-5.83-18.04h-29.81l-5.83,18.04h-17.49l27.39-79.09ZM222.05,780.46l-10.78-33.22-10.56,33.22h21.34Z"/>
      <path class="st1" d="M316.32,797.84v13.42c-4.07,1.87-7.59,1.87-10.45,1.87-8.58-.11-13.42-3.74-13.53-13.53-3.63,12.54-13.09,13.53-17.6,13.53-13.86,0-20.79-8.36-20.79-24.75v-35.75h16.17v34.76c0,7.7,2.2,12.1,10.34,12.1,5.06,0,11.66-2.86,11.66-12.54v-34.21h16.17v43.01c0,1.76.22,3.3,2.2,3.3,3.3-.22,4.29-.55,5.83-1.21Z"/>
      <path class="st1" d="M327.32,797.29v-31.57h-11.99v-13.09h11.99v-13.64h16.17v13.64h17.49v13.09h-17.49v28.93c0,3.08,2.31,4.18,5.72,4.18s9.46-1.1,11.77-1.87v13.2c-4.07,2.31-11.99,2.97-15.51,2.97-8.8,0-18.15-3.08-18.15-15.84Z"/>
      <path class="st1" d="M367.91,782.44c0-23.21,11.55-30.8,29.04-30.8s28.6,8.8,28.6,30.8c0,23.21-12.1,30.69-28.6,30.69-17.6,0-29.04-8.03-29.04-30.69ZM408.94,782.33c0-11.77-3.63-17.82-11.99-17.82s-12.54,5.17-12.54,17.93,4.4,17.71,12.43,17.71c8.8,0,12.1-6.38,12.1-17.82Z"/>
      <path class="st1" d="M435.01,752.63h13.31l1.98,12.87c3.85-13.75,13.53-13.97,18.37-13.97,9.24,0,15.18,4.51,17.05,14.63,3.52-13.53,14.41-14.63,19.36-14.63,13.64,0,20.35,8.25,20.35,24.53v35.75h-16.17v-34.76c0-7.7-1.76-12.1-9.9-12.1-4.84,0-11.11,2.42-11.11,12.21v34.65h-16.17v-34.76c0-7.7-1.65-12.1-9.79-12.1-5.17,0-11.22,2.53-11.22,12.21v34.65h-16.17l.11-59.18Z"/>
      <path class="st1" d="M534.56,782.44c0-23.21,11.55-30.8,29.04-30.8s28.6,8.8,28.6,30.8c0,23.21-12.1,30.69-28.6,30.69-17.6,0-29.04-8.03-29.04-30.69ZM575.59,782.33c0-11.77-3.63-17.82-11.99-17.82s-12.54,5.17-12.54,17.93,4.4,17.71,12.43,17.71c8.8,0,12.1-6.38,12.1-17.82Z"/>
      <path class="st1" d="M605.4,797.29v-31.57h-11.99v-13.09h11.99v-13.64h16.17v13.64h17.49v13.09h-17.49v28.93c0,3.08,2.31,4.18,5.72,4.18s9.46-1.1,11.77-1.87v13.2c-4.07,2.31-11.99,2.97-15.51,2.97-8.8,0-18.15-3.08-18.15-15.84Z"/>
      <path class="st1" d="M647.63,752.63h12.54l2.75,15.95c4.51-10.01,12.1-15.84,21.56-15.84l.22,15.51c-9.57.77-20.9,1.98-20.9,9.79l-.11,33.77h-16.17l.11-59.18Z"/>
      <path class="st1" d="M689.32,729.2h18.04v16.61h-18.04v-16.61ZM690.2,752.63h16.17v59.18h-16.17v-59.18Z"/>
      <path class="st1" d="M715.39,800.92l30.36-35.09h-29.48v-13.2h49.5v11.88l-30.25,34.87h14.08c3.41,0,4.29-1.43,4.29-3.52,0-1.65-.33-3.41-1.1-5.28h13.53c1.32,3.85,1.76,7.37,1.76,10.12,0,7.15-3.52,11.11-10.56,11.11h-42.24l.11-10.89Z"/>
      <path class="st1" d="M851.68,765.5l-24.53,68.2h-15.51l8.69-21.89h-5.94l-20.13-59.18h16.5l13.97,43.89,11.22-33.22c.33-1.32.55-2.2.55-3.96-.11-3.41-1.87-6.71-1.87-6.71h15.4s1.76,3.19,2.09,8.36c0,1.43,0,2.86-.44,4.51Z"/>
    </g>
    <g class="st0">
      <path class="st1" d="M82.46,897.77c0-20.9,9.24-31.13,28.38-31.13,15.73,0,25.08,6.05,25.08,25.08,0,4.73-.66,10.56-.66,10.78h-36.3c.11,7.15,4.07,12.1,13.86,12.1,6.49,0,14.74-.88,21.23-3.08l.11,12.98c-5.94,2.53-13.42,3.63-21.67,3.63-21.23,0-30.03-9.24-30.03-30.36ZM120.41,892.82v-2.42c0-7.26-3.19-10.12-9.57-10.12-7.59,0-11.55,4.07-11.99,12.54h21.56Z"/>
      <path class="st1" d="M145.27,914.27v-69.96h15.95v66.44c0,1.87.99,3.3,3.74,3.3,3.08,0,6.16-.55,7.7-1.21v13.42c-4.73,1.54-8.91,1.87-11.77,1.87-8.69-.11-15.62-3.85-15.62-13.86Z"/>
      <path class="st1" d="M176.4,897.77c0-20.9,9.24-31.13,28.38-31.13,15.73,0,25.08,6.05,25.08,25.08,0,4.73-.66,10.56-.66,10.78h-36.3c.11,7.15,4.07,12.1,13.86,12.1,6.49,0,14.74-.88,21.23-3.08l.11,12.98c-5.94,2.53-13.42,3.63-21.67,3.63-21.23,0-30.03-9.24-30.03-30.36ZM214.35,892.82v-2.42c0-7.26-3.19-10.12-9.57-10.12-7.59,0-11.55,4.07-11.99,12.54h21.56Z"/>
      <path class="st1" d="M237.56,897c0-17.71,7.59-30.36,29.04-30.36,8.36,0,14.41,1.21,18.37,3.08l-.11,13.53c-6.16-2.09-11.55-2.75-15.51-2.75-11.44,0-15.51,6.6-15.51,16.83,0,10.78,3.41,16.94,14.3,16.94,2.86,0,10.45-.55,16.94-2.75v13.31c-4.51,2.31-11.11,3.3-17.16,3.3-17.93,0-30.36-6.82-30.36-31.13Z"/>
      <path class="st1" d="M300.48,912.29v-31.57h-11.99v-13.09h11.99v-13.64h16.17v13.64h17.49v13.09h-17.49v28.93c0,3.08,2.31,4.18,5.72,4.18s9.46-1.1,11.77-1.87v13.2c-4.07,2.31-11.99,2.97-15.51,2.97-8.8,0-18.15-3.08-18.15-15.84Z"/>
      <path class="st1" d="M342.72,867.63h12.54l2.75,15.95c4.51-10.01,12.1-15.84,21.56-15.84l.22,15.51c-9.57.77-20.9,1.98-20.9,9.79l-.11,33.77h-16.17l.11-59.18Z"/>
      <path class="st1" d="M383.64,897.44c0-23.21,11.55-30.8,29.04-30.8s28.6,8.8,28.6,30.8c0,23.21-12.1,30.69-28.6,30.69-17.6,0-29.04-8.03-29.04-30.69ZM424.67,897.33c0-11.77-3.63-17.82-11.99-17.82s-12.54,5.17-12.54,17.93,4.4,17.71,12.43,17.71c8.8,0,12.1-6.38,12.1-17.82Z"/>
      <path class="st1" d="M450.73,867.63h13.31l1.98,12.87c3.85-13.75,13.53-13.97,18.37-13.97,9.24,0,15.18,4.51,17.05,14.63,3.52-13.53,14.41-14.63,19.36-14.63,13.64,0,20.35,8.25,20.35,24.53v35.75h-16.17v-34.76c0-7.7-1.76-12.1-9.9-12.1-4.84,0-11.11,2.42-11.11,12.21v34.65h-16.17v-34.76c0-7.7-1.65-12.1-9.79-12.1-5.17,0-11.22,2.53-11.22,12.21v34.65h-16.17l.11-59.18Z"/>
      <path class="st1" d="M550.28,897.44c0-23.21,11.55-30.8,29.04-30.8s28.6,8.8,28.6,30.8c0,23.21-12.1,30.69-28.6,30.69-17.6,0-29.04-8.03-29.04-30.69ZM591.31,897.33c0-11.77-3.63-17.82-11.99-17.82s-12.54,5.17-12.54,17.93,4.4,17.71,12.43,17.71c8.8,0,12.1-6.38,12.1-17.82Z"/>
      <path class="st1" d="M666.22,875.99c0,1.98-.11,2.86-.66,4.51l-16.17,46.31h-20.24l-20.13-59.18h16.5l13.75,43.45,10.78-32.78c.33-1.32.55-2.42.55-3.41-.11-3.96-1.87-7.26-1.87-7.26h15.4s1.76,3.19,2.09,8.36Z"/>
      <path class="st1" d="M673.26,844.2h18.04v16.61h-18.04v-16.61ZM674.14,867.63h16.17v59.18h-16.17v-59.18Z"/>
      <path class="st1" d="M701.42,914.27v-69.96h15.95v66.44c0,1.87.99,3.3,3.74,3.3,3.08,0,6.16-.55,7.7-1.21v13.42c-4.73,1.54-8.91,1.87-11.77,1.87-8.69-.11-15.62-3.85-15.62-13.86Z"/>
      <path class="st1" d="M733.32,844.2h18.04v16.61h-18.04v-16.61ZM734.2,867.63h16.17v59.18h-16.17v-59.18Z"/>
      <path class="st1" d="M759.83,898.43c0-19.69,5.72-32.01,25.08-31.9,11,.11,14.63,7.48,14.85,8.47v-30.8l16.28.11-.11,82.5h-12.87l-2.75-13.09c-2.42,11.77-11.55,14.41-17.05,14.41-17.16,0-23.43-11.55-23.43-29.7ZM799.65,901.95v-10.23c0-7.04-3.3-11.33-10.23-11.33-10.78-.11-13.2,6.38-13.2,18.04.11,7.92,1.1,15.95,11.66,15.95,7.04,0,11.77-4.51,11.77-12.43Z"/>
      <path class="st1" d="M886.55,912.84v13.42c-4.07,1.87-7.59,1.87-10.45,1.87-8.58-.11-13.42-3.74-13.53-13.31-2.2,9.46-10.23,13.31-16.94,13.31-15.18,0-20.02-8.69-20.02-18.48,0-11.88,8.69-17.71,24.53-17.71h11.88v-1.98c0-7.04-3.85-10.01-12.32-10.01-6.05,0-14.19,1.65-20.57,4.18v-13.64c5.39-2.2,15.95-3.96,21.78-3.96,20.24,0,27.5,7.81,27.61,26.84v18.59c.22,1.21.77,2.09,2.2,2.09,3.3-.22,4.29-.55,5.83-1.21ZM862.24,902.06h-9.57c-5.17,0-11.55,1.76-11.66,7.04,0,3.3,1.65,6.71,8.47,6.71,7.48,0,12.76-4.51,12.76-11.99v-1.76Z"/>
      <path class="st1" d="M889.85,898.43c0-19.69,5.72-32.01,25.08-31.9,11,.11,14.63,7.48,14.85,8.47v-30.8l16.28.11-.11,82.5h-12.87l-2.75-13.09c-2.42,11.77-11.55,14.41-17.05,14.41-17.16,0-23.43-11.55-23.43-29.7ZM929.67,901.95v-10.23c0-7.04-3.3-11.33-10.23-11.33-10.78-.11-13.2,6.38-13.2,18.04.11,7.92,1.1,15.95,11.66,15.95,7.04,0,11.77-4.51,11.77-12.43Z"/>
    </g>
  </g>
  <g>
    <path class="st1" d="M899.29,352.46c-14.16-32.36-40.41-49.44-75.93-49.44h-.37c-8.84.03-17.67.02-26.51.01h-9.41c-3.18,0-6.31-.59-9.56-1.77-15.8-5.76-24.95-19.99-25.07-38.12,15.74-2.23,28.86-9.63,38.34-21.76,10.4-13.3,13.62-28.46,14.62-36.31,1.19-9.41.82-18.53.46-27.36-.16-4.01-.32-7.8-.33-11.59-.05-12.59-7.31-19.84-19.95-19.88h-2.28v-47.51c0-6.35-5.15-11.5-11.5-11.5s-11.5,5.15-11.5,11.5v47.51h-35.64v-47.52c0-6.35-5.15-11.5-11.5-11.5s-11.5,5.15-11.5,11.5v47.52h-3.98c-.2,0-.41,0-.61.02-8.35.44-18.4,4.19-18.86,19.55l-.05,1.36c-.7,20.3-.59,32.73.37,39.12,3.36,22.45,12.42,51.6,50.93,56.76.09,27.82,15.08,50.65,40.19,59.8,5.74,2.09,11.6,3.15,17.43,3.16h9.4c8.87.02,17.74.02,26.61,0h.3c26.41,0,44.36,11.67,54.86,35.66,11.3,25.81,1.06,55.45-23.29,67.47-.81.4-1.58.82-2.32,1.23-4.37-3.52-9.06-5.74-12.26-7.24-12.71-5.98-25.96-8.46-38.77-10.85-1.79-.34-3.59-.67-5.37-1.02-19.63-3.79-38.76-11.59-60.19-24.56-6.76-4.09-13.62-8.37-20.24-12.51-19.64-12.27-39.95-24.95-61.64-35.18-12.28-5.79-25.96-10-41.82-12.9-10.9-1.99-21.74-2.14-31.06-2.13-13.14.02-26.51-.02-39.43-.05-27.22-.07-55.36-.13-83.08.23-23.59.31-44.77,7.06-62.93,20.06-27.45,19.65-55.95,41.49-92.42,70.82-8.09,6.51-17.41,10.53-29.32,12.64-5.33.95-10.65,1.87-15.98,2.8-17.65,3.08-35.91,6.26-53.85,10.03-2.93.62-5.96,1.2-8.89,1.77-9.12,1.77-18.54,3.59-27.86,6.76-21.94,7.45-37.4,22.67-45.96,45.24-2.98,7.86-3.33,35.78-3.32,36.05l.02,6.25c.03,8.06.06,16.4-.03,24.56-.11,9.9,3.51,19.06,10.2,25.78,6.66,6.69,15.75,10.37,25.61,10.37h.27c15.22-.1,30.72-.08,45.72-.05,5.38,0,10.76.02,16.14.02h.04c.58,0,1.15-.03,1.72-.05,7.92,32.97,37.64,57.56,73.01,57.56s65.04-24.54,72.99-57.47c92.05-.06,185.4-.05,267.84-.04h0c.23,0,.45-.02.68-.02,7.93,32.96,37.65,57.53,73,57.53s65.18-24.67,73.05-57.72c11.37.32,24.04.34,37.01-.71,22.27-1.79,41.22-18.55,47.16-41.71.97-3.78,1.43-7.67,1.42-11.88-.06-21.63-.06-43.63-.05-64.91v-18.98c0-.58.01-1.17.02-1.75.02-1.44.04-3.07-.04-4.77-.03-.65-.08-1.28-.15-1.9.45-.25.88-.49,1.28-.69,35.4-17.47,50.42-60.21,34.19-97.31l-.06.02ZM701.25,202.89c-.4-2.67-.94-10.58-.17-33.64h81.47c.06,3.18.19,6.33.32,9.4.34,8.24.66,16.03-.29,23.52-.56,4.43-2.65,15.75-9.92,25.03-7.19,9.19-17.21,13.65-30.64,13.65-29.34,0-37.17-13.92-40.76-37.97h-.01ZM290.88,631.77c-28.73,0-52.1-23.37-52.1-52.1s23.37-52.1,52.1-52.1,52.1,23.37,52.1,52.1-23.37,52.1-52.1,52.1ZM705.4,631.77c-28.73,0-52.1-23.37-52.1-52.1s23.37-52.1,52.1-52.1,52.1,23.37,52.1,52.1-23.37,52.1-52.1,52.1ZM840.34,548.93c-4.02,15.68-16.67,23.68-26.72,24.49-11.51.92-22.94.94-33.35.67-2.87-38.81-35.34-69.52-74.87-69.52s-72.1,30.8-74.88,69.69c-81.58,0-173.75-.02-264.75.04-2.77-38.91-35.29-69.73-74.89-69.73s-72.1,30.8-74.89,69.69c-5.33,0-10.66-.01-15.98-.02-15.04-.03-30.59-.05-45.91.05-3.76,0-7.09-1.25-9.42-3.59s-3.54-5.56-3.5-9.29c.09-8.33.06-16.75.04-24.9l-.02-6.23v-1.27c3.63-1.01,6.79-2.54,9.45-3.84.92-.45,1.84-.9,2.76-1.32,16.67-7.5,34.18-12.17,52.72-17.12,2.83-.76,5.67-1.51,8.5-2.28,6.13-1.66,9.75-7.98,8.09-14.11-1.66-6.13-7.98-9.75-14.11-8.09-2.8.76-5.61,1.51-8.41,2.26-18.61,4.97-37.85,10.1-56.22,18.37-.37.17-.73.35-1.1.52.08-.46.15-.86.23-1.17,6.11-15.94,16.5-26.21,31.78-31.4,7.84-2.66,16.1-4.26,24.84-5.96,3.02-.59,6.14-1.19,9.24-1.84,17.55-3.69,35.61-6.84,53.07-9.88,5.35-.93,10.7-1.87,16.05-2.82,15.65-2.78,28.64-8.46,39.71-17.37,36.12-29.05,64.3-50.65,91.39-70.04,14.27-10.21,31.04-15.52,49.84-15.76,27.54-.36,55.6-.29,82.73-.23,12.95.03,26.34.06,39.52.05,8.68,0,17.91.12,26.91,1.76,13.88,2.53,25.7,6.15,36.14,11.08,20.46,9.64,40.18,21.96,59.26,33.88,6.7,4.18,13.62,8.51,20.52,12.68,23.83,14.43,45.36,23.16,67.75,27.47,1.83.35,3.66.7,5.5,1.04,11.91,2.23,23.16,4.33,33.2,9.06,8.68,4.09,10.28,6.03,10.44,9.47.05,1.03.03,2.19.02,3.43,0,.68-.02,1.36-.02,2.04v18.97c0,21.29-.01,43.31.05,64.98,0,2.24-.22,4.23-.7,6.1h-.01Z"/>
    <path class="st1" d="M711.67,434.17c-.97-.75-4.38-3.56-7.97-6.52-15.99-13.15-49.28-40.52-64.26-50.02-20.15-12.77-40.35-18.89-61.77-18.69-11.91.11-82.52.29-91.9-.03-24.87-.85-48.62,6.79-70.58,22.76-16.96,12.33-71.01,52.59-71.56,52.99-3.98,2.96-5.61,8.14-4.05,12.85,1.56,4.7,5.96,7.88,10.91,7.88h0l354.65-.25c5.36,0,10.01-3.71,11.2-8.94,1.06-4.65-.86-9.39-4.69-12.03h.02ZM428.71,400.28c17.03-12.39,34.45-18.43,53.17-18.43,1.02,0,2.05.02,3.08.05,4.46.16,20.64.2,38.35.2v50.17l-138.04.1c16.05-11.92,34.72-25.75,43.44-32.09h0ZM546.31,432.25v-50.19c14.98-.03,27.77-.09,31.56-.12,16.87-.13,32.96,4.79,49.25,15.12,9.85,6.24,29.87,22.18,45.77,35.1l-126.58.09Z"/>
    <path class="st1" d="M290.88,540.12c-21.81,0-39.55,17.74-39.55,39.55s17.74,39.55,39.55,39.55,39.55-17.74,39.55-39.55-17.74-39.55-39.55-39.55ZM290.88,596.22c-9.12,0-16.55-7.42-16.55-16.55s7.42-16.55,16.55-16.55,16.55,7.42,16.55,16.55-7.42,16.55-16.55,16.55Z"/>
    <path class="st1" d="M705.4,540.12c-21.81,0-39.55,17.74-39.55,39.55s17.74,39.55,39.55,39.55,39.55-17.74,39.55-39.55-17.74-39.55-39.55-39.55ZM705.4,596.22c-9.12,0-16.55-7.42-16.55-16.55s7.42-16.55,16.55-16.55,16.55,7.42,16.55,16.55-7.42,16.55-16.55,16.55Z"/>
  </g>
</svg>