<?xml version="1.0" encoding="UTF-8"?>
<svg id="Capa_1" xmlns="http://www.w3.org/2000/svg" version="1.1" viewBox="0 0 1024 1024">
  <!-- Generator: Adobe Illustrator 29.8.1, SVG Export Plug-In . SVG Version: 2.1.1 Build 2)  -->
  <defs>
    <style>
      .st0 {
        fill: #2e3b2b;
      }

      .st1 {
        isolation: isolate;
      }
    </style>
  </defs>
  <g>
    <path class="st0" d="M628.11,83.83c16.65-.12,30.86,5.24,42.15,15.88,23.26,21.92,46.2,44.5,68.21,67.13-16.05,16.69-33.02,33.66-50.46,50.48-4.22-3.48-8.13-7.58-12.26-11.9-1.55-1.62-3.11-3.25-4.68-4.85-3.28-3.33-8.23-4.34-12.55-2.57-4.32,1.77-7.14,5.97-7.14,10.64v37.05c0,6.35,5.15,11.5,11.5,11.5s11.5-5.15,11.5-11.5v-9.82s.08.06.12.09c3.76,3,8.44,6.75,14.71,6.52,6.1-.21,9.86-3.85,13.18-7.07l.73-.71c18.15-17.48,35.81-35.14,52.49-52.49,3.62-3.77,8.12-8.45,8.14-15.37.02-7-4.53-11.67-8.18-15.43-22.42-23.07-45.8-46.1-69.52-68.45-15.38-14.5-35.24-22.15-57.47-22.15h-.6c-8.73.05-17.62.04-26.23.03-3.92,0-7.84,0-11.77,0-4.57,0-9.75,0-14.43,3.12-5.24,3.5-7.04,9.16-8.23,12.9-4.25,13.36-12.56,22.74-25.43,28.68-12.76,5.89-27.72,6.02-41.04.35-12.36-5.26-21.48-14.82-25.67-26.91-.43-1.26-.78-2.35-1.07-3.3-1.34-4.29-3.02-9.62-9.02-12.71-4.4-2.26-9.17-2.21-15.77-2.13-4.53.05-9.21,0-13.73-.04-9.7-.1-19.73-.2-29.83.62-8.19.66-16.7,2.8-26.79,6.73-15.26,5.95-26.54,16.41-36.8,26.61-11.22,11.16-22.58,22.55-33.57,33.55l-10.31,10.33c-4.71,4.73-9.58,9.61-14.4,14.37-7.91,7.82-8.67,16.72-2.21,25.72,1.37,1.91,2.8,3.42,4.03,4.66,5.57,5.62,11.21,11.38,16.67,16.95,11.28,11.51,22.94,23.42,34.75,34.88,4.67,4.53,9.08,8.81,15.91,8.81h.08c6.68-.03,11.13-4.25,15.84-8.71,5.25-4.98,11.83-10.78,17.34-15.33-.14,16.83-.1,46.88-.07,69.02l.02,14.2c0,6.35,5.15,11.49,11.5,11.49h0c6.35,0,11.5-5.16,11.49-11.51l-.02-14.21c-.03-22.78-.07-53.98.08-70.33.08-8.75-1.87-16.1-5.95-22.48-2.3-4.4-7.29-6.97-12.4-5.97-3.96.78-8.84,3.28-20.91,13.37-6.99,5.84-13.92,12.21-16.92,15.04-.01,0-.03.03-.04.04-11.59-11.25-23.13-23.03-34.29-34.42-5.45-5.56-11.08-11.31-16.67-16.94,4.18-4.15,8.37-8.35,12.43-12.43l10.3-10.32c10.98-10.99,22.33-22.36,33.52-33.5,8.89-8.84,17.79-17.14,28.93-21.49,8.04-3.14,14.3-4.75,20.27-5.23,9.06-.73,18.14-.64,27.75-.54,4.64.05,9.44.1,14.22.04.76,0,1.89-.02,2.97-.02.26.82.55,1.71.89,2.69,6.34,18.3,19.97,32.7,38.39,40.54,19.28,8.21,41.04,7.98,59.68-.63,18.8-8.67,31.48-23,37.71-42.58h.75c3.91,0,7.82,0,11.73.01,8.65.02,17.59.03,26.41-.03l.04.04Z"/>
    <path class="st0" d="M734.55,371.75c-2.89-2.95-5.91-6.11-8.42-9.53-5.86-7.97-9.21-17.42-10.22-28.86.23-.1.46-.21.69-.3,7.9-3.28,12.53-10.32,12.7-19.31.15-7.94.15-15.16,0-22.09-.28-12.97-10.21-22.83-23.11-22.94-19.73-.17-40.51-.17-61.76,0-12.07.1-22.23,10.54-22.63,23.29-.16,4.86-.12,9.69-.09,14.36.02,2.22.03,4.44.03,6.67-.01,6.83,3.19,13.28,8.36,16.86.48.33.95.68,1.43,1.03,1.04.76,2.35,1.72,3.9,2.65-.62,6.93-1.87,12.51-3.89,17.54-3.04,7.56-8.89,13.93-15.09,20.68l-.64.7c-12.87,14-20.75,30.14-23.42,47.97-.62,4.11-.27,73.34.12,109.67,1.17,108.62,3.16,111.89,5.46,115.68,8.69,14.31,21.85,21.9,38.06,21.93,5.25.01,10.5.03,15.75.05,10.04.03,20.23.07,30.48.07,11.58,0,23.22-.04,34.77-.18,23.66-.27,41.23-16.65,42.72-39.83,1.59-24.66,1.06-187.18.48-197.41-1.28-22.83-9.92-42.58-25.68-58.69h0ZM644.77,292.75c.01-.38.24-.8.44-1.04,20.91-.16,41.35-.16,60.76,0,.12,0,.2.01.25.02.03.07.06.21.06.41.14,6.36.14,13,.01,20.29-.99.43-1.96.86-2.92,1.29-3.74-.99-7.69-1.45-12.02-1.4-9.91.11-20.59.11-33.6,0h-.7c-2.48-.05-6.13-.12-9.87,1.52-.65-.41-1.5-1.03-2.13-1.49-.12-.09-.24-.18-.36-.26,0-1.96-.01-3.92-.03-5.88-.03-4.66-.07-9.05.08-13.46h.03ZM716.75,644.69c-21.61.25-43.62.18-64.91.11-5.25-.02-10.51-.03-15.77-.05-7.7-.02-13.18-2.97-17.58-9.51-3.11-21.12-3.91-198.43-3.3-211.8,2.07-13.21,7.81-24.79,17.54-35.38l.63-.69c6.99-7.6,14.9-16.21,19.51-27.68,3.41-8.5,4.85-16.95,5.48-24.34,12.81.11,23.41.11,33.28,0,.47,0,.91,0,1.35.02,1.38,15.75,6.16,29.02,14.61,40.49,3.39,4.61,7.21,8.6,10.51,11.98,11.92,12.18,18.18,26.54,19.15,43.89.15,2.59.27,13.21.37,28.28h-91.23c-6.35,0-11.5,5.15-11.5,11.5s5.15,11.5,11.5,11.5h91.34c.07,20.7.08,44.96.02,67.7-10.84-.03-20.92,0-30.72.04-21.09.08-41.01.15-65.04-.47-6.37-.15-11.63,4.85-11.79,11.2-.16,6.35,4.85,11.63,11.2,11.79,16.42.42,30.9.53,45.1.53,6.87,0,13.68-.02,20.62-.05,9.75-.04,19.77-.07,30.54-.04-.15,25.27-.42,45.77-.86,52.66-.71,10.99-8.57,18.18-20.04,18.31h0Z"/>
    <path class="st0" d="M544.87,428.56c-2.37-.18-12.59-.31-29.11-.39l-6.03-10.39c-12.38-21.35-31.08-53.61-40.89-70.09-.86-1.45-1.7-3.03-2.58-4.69-2.96-5.58-6.31-11.9-12.59-17.13-6.6-5.49-15.84-7.3-24.73-4.84-8.95,2.48-16.05,8.99-19.01,17.42-3.09,8.83-2.35,17.05,2.26,25.13,5.44,9.53,12.46,22.16,19.89,35.53,5.47,9.85,11.06,19.9,16.12,28.9-22.83-.02-48.89-.03-77.34-.03h-21.73c5.06-9,10.64-19.03,16.1-28.87,7.43-13.37,14.45-26,19.89-35.53,4.62-8.08,5.36-16.3,2.26-25.13-2.96-8.43-10.06-14.95-19.01-17.42-8.88-2.46-18.13-.65-24.73,4.84-6.29,5.23-9.64,11.55-12.59,17.13-.88,1.67-1.72,3.24-2.58,4.69-9.81,16.48-28.52,48.76-40.91,70.11l-5.87,10.12c-16.42-.03-27.55-.09-29.36-.19-6.11-.34-11.98.64-16.99,2.86-11.94,5.27-19.41,14.07-22.21,26.15-3.18,13.74.63,26.34,10.74,35.48,2.82,2.55,7.19,6.48,12.9,8.88,2.56,10.23,9.54,31.47,27.19,79.76,14.3,39.14,29.01,77.76,29.16,78.15,1.7,4.46,5.97,7.41,10.75,7.41h195.21c5.15,0,9.67-3.42,11.07-8.38.11-.39,11.13-39.45,21.84-78.79,13.25-48.69,18.43-69.55,20.27-79.29,19.29-8.88,25.98-20.35,23.83-40.86-1.61-15.36-15.91-29.35-31.22-30.53h0ZM452.19,387.93c-7.46-13.43-14.51-26.12-20.03-35.77-1.34-2.35-1.44-3.5-.53-6.11.67-1.91,2.63-2.64,3.44-2.86,1.7-.47,3.24-.18,3.89.36,2.79,2.32,4.73,5.98,6.97,10.21.98,1.84,1.99,3.75,3.14,5.69,9.55,16.05,27.69,47.33,40.04,68.62-4.58-.01-9.4-.02-14.45-.03-6.41-11.2-14.56-25.87-22.48-40.11h0ZM348.25,359.45c1.16-1.94,2.17-3.85,3.14-5.69,2.24-4.23,4.18-7.89,6.97-10.21.64-.54,2.19-.83,3.89-.36.81.22,2.77.95,3.44,2.86.92,2.61.82,3.76-.53,6.11-5.51,9.65-12.56,22.34-20.03,35.77-7.9,14.21-16.02,28.84-22.43,40.03h-14.43c12.35-21.3,30.43-52.49,39.97-68.5h0ZM490.38,643.4h-178.57c-21.51-56.69-43.84-117.97-51.02-141.67,15.43-.09,52.75-.03,91.83.03,42.39.07,90.43.14,128.28.08,22.34-.04,37.35-.1,47.55-.21-1.45,6.34-3.73,15.45-6.55,26.29h-95.57c-6.35,0-11.5,5.15-11.5,11.5s5.15,11.5,11.5,11.5h89.5c-2.84,10.62-5.93,22-9.08,33.53-10.64-.03-19.5,0-28.13.04-17.63.08-32.87.14-56.69-.47h-.3c-6.21,0-11.33,4.96-11.49,11.2-.16,6.35,4.85,11.63,11.2,11.79,16.42.42,28.78.53,40.61.53,5.58,0,11.05-.02,16.77-.05,6.83-.03,13.81-.06,21.7-.05-3.47,12.55-6.89,24.8-10.03,35.96h-.01ZM544.24,478.31c-15.19.74-120.81.57-191.59.46-27.26-.04-52.1-.09-70.21-.08-21.11,0-32.51.36-34.21,1.07-1.57.66-2.61,1.09-8.92-4.61-3.95-3.58-5.08-7.53-3.76-13.23,1.14-4.91,3.85-7.98,9.09-10.29,1.43-.63,3.29-.96,5.33-.96.36,0,.72.01,1.08.03,4.49.25,48.45.27,119.81.28,69.88,0,165.59.02,172.23.51,4.28.33,9.67,5.66,10.13,9.99,1.04,9.95-.14,12.57-8.98,16.83h0Z"/>
  </g>
  <g class="st1">
    <g class="st1">
      <path class="st0" d="M275.84,737.27h30.14c14.19,0,28.16,1.87,28.16,19.58,0,9.57-6.6,15.07-15.51,16.83,11.55,2.31,18.15,7.7,18.15,19.36,0,19.14-12.76,23.43-30.91,23.43h-30.03v-79.2ZM317.31,759.27c0-7.59-6.38-7.81-13.09-7.81h-11.22v16.72h12.65c7.59-.22,11.66-2.86,11.66-8.91ZM319.4,791.72c0-9.46-6.6-10.56-13.75-10.56h-12.65v21.12h11.33c9.24,0,15.07-1.54,15.07-10.56Z"/>
      <path class="st0" d="M344.92,733.86h18.04v16.61h-18.04v-16.61ZM345.8,757.29h16.17v59.18h-16.17v-59.18Z"/>
      <path class="st0" d="M371.43,787.43c0-20.9,9.24-31.13,28.38-31.13,15.73,0,25.08,6.05,25.08,25.08,0,4.73-.66,10.56-.66,10.78h-36.3c.11,7.15,4.07,12.1,13.86,12.1,6.49,0,14.74-.88,21.23-3.08l.11,12.98c-5.94,2.53-13.42,3.63-21.67,3.63-21.23,0-30.03-9.24-30.03-30.36ZM409.38,782.48v-2.42c0-7.26-3.19-10.12-9.57-10.12-7.59,0-11.55,4.07-11.99,12.54h21.56Z"/>
      <path class="st0" d="M434.24,757.29h12.76l2.64,12.87c3.96-13.53,13.31-13.97,17.93-13.97,13.86,0,21.01,8.25,21.01,24.53l-.11,35.75h-16.17l.11-34.76c0-7.7-2.31-12.1-10.56-12.1-4.73,0-11.44,2.53-11.44,12.21l-.11,34.65h-16.17l.11-59.18Z"/>
      <path class="st0" d="M497.71,787.43c0-20.9,9.24-31.13,28.38-31.13,15.73,0,25.08,6.05,25.08,25.08,0,4.73-.66,10.56-.66,10.78h-36.3c.11,7.15,4.07,12.1,13.86,12.1,6.49,0,14.74-.88,21.23-3.08l.11,12.98c-5.94,2.53-13.42,3.63-21.67,3.63-21.23,0-30.03-9.24-30.03-30.36ZM535.66,782.48v-2.42c0-7.26-3.19-10.12-9.57-10.12-7.59,0-11.55,4.07-11.99,12.54h21.56Z"/>
      <path class="st0" d="M558.76,814.38l.22-13.31c5.72,1.98,15.62,3.41,20.24,3.41,5.83-.11,10.12-1.43,10.12-5.39,0-2.53-1.54-3.74-7.37-5.39-2.31-.66-5.83-1.76-8.69-2.64-9.57-3.19-14.08-7.59-14.08-16.94,0-11.22,9.46-17.93,23.65-17.93,8.25,0,15.73.99,20.57,3.19v12.87c-3.63-.88-12.65-2.97-19.58-2.97-5.28,0-8.8,1.65-8.8,4.73s2.31,3.63,6.82,4.95c3.08.99,6.49,1.98,8.58,2.64,9.79,3.19,14.41,7.81,14.41,17.27,0,11.55-8.03,18.92-25.63,18.92-7.26,0-14.63-.88-20.46-3.41Z"/>
      <path class="st0" d="M636.85,788.09c0-19.69,5.72-32.01,25.08-31.9,11,.11,14.63,7.48,14.85,8.47v-30.8l16.28.11-.11,82.5h-12.87l-2.75-13.09c-2.42,11.77-11.55,14.41-17.05,14.41-17.16,0-23.43-11.55-23.43-29.7ZM676.67,791.61v-10.23c0-7.04-3.3-11.33-10.23-11.33-10.78-.11-13.2,6.38-13.2,18.04.11,7.92,1.1,15.95,11.66,15.95,7.04,0,11.77-4.51,11.77-12.43Z"/>
      <path class="st0" d="M702.74,787.43c0-20.9,9.24-31.13,28.38-31.13,15.73,0,25.08,6.05,25.08,25.08,0,4.73-.66,10.56-.66,10.78h-36.3c.11,7.15,4.07,12.1,13.86,12.1,6.49,0,14.74-.88,21.23-3.08l.11,12.98c-5.94,2.53-13.42,3.63-21.67,3.63-21.23,0-30.03-9.24-30.03-30.36ZM740.69,782.48v-2.42c0-7.26-3.19-10.12-9.57-10.12-7.59,0-11.55,4.07-11.99,12.54h21.56Z"/>
    </g>
    <g class="st1">
      <path class="st0" d="M281.06,901.66c0-17.71,7.59-30.36,29.04-30.36,8.36,0,14.41,1.21,18.37,3.08l-.11,13.53c-6.16-2.09-11.55-2.75-15.51-2.75-11.44,0-15.51,6.6-15.51,16.83,0,10.78,3.41,16.94,14.3,16.94,2.86,0,10.45-.55,16.94-2.75v13.31c-4.51,2.31-11.11,3.3-17.16,3.3-17.93,0-30.36-6.82-30.36-31.13Z"/>
      <path class="st0" d="M336.28,902.1c0-23.21,11.55-30.8,29.04-30.8s28.6,8.8,28.6,30.8c0,23.21-12.1,30.69-28.6,30.69-17.6,0-29.04-8.03-29.04-30.69ZM377.31,901.99c0-11.77-3.63-17.82-11.99-17.82s-12.54,5.17-12.54,17.93,4.4,17.71,12.43,17.71c8.8,0,12.1-6.38,12.1-17.82Z"/>
      <path class="st0" d="M403.27,872.29h12.76l2.64,12.87c3.96-13.53,13.31-13.97,17.93-13.97,13.86,0,21.01,8.25,21.01,24.53l-.11,35.75h-16.17l.11-34.76c0-7.7-2.31-12.1-10.56-12.1-4.73,0-11.44,2.53-11.44,12.21l-.11,34.65h-16.17l.11-59.18Z"/>
      <path class="st0" d="M466.63,929.38l.22-13.31c5.72,1.98,15.62,3.41,20.24,3.41,5.83-.11,10.12-1.43,10.12-5.39,0-2.53-1.54-3.74-7.37-5.39-2.31-.66-5.83-1.76-8.69-2.64-9.57-3.19-14.08-7.59-14.08-16.94,0-11.22,9.46-17.93,23.65-17.93,8.25,0,15.73.99,20.57,3.19v12.87c-3.63-.88-12.65-2.97-19.58-2.97-5.28,0-8.8,1.65-8.8,4.73s2.31,3.63,6.82,4.95c3.08.99,6.49,1.98,8.58,2.64,9.79,3.19,14.41,7.81,14.41,17.27,0,11.55-8.03,18.92-25.63,18.92-7.26,0-14.63-.88-20.46-3.41Z"/>
      <path class="st0" d="M584.22,917.5v13.42c-4.07,1.87-7.59,1.87-10.45,1.87-8.58-.11-13.42-3.74-13.53-13.53-3.63,12.54-13.09,13.53-17.6,13.53-13.86,0-20.79-8.36-20.79-24.75v-35.75h16.17v34.76c0,7.7,2.2,12.1,10.34,12.1,5.06,0,11.66-2.86,11.66-12.54v-34.21h16.17v43.01c0,1.76.22,3.3,2.2,3.3,3.3-.22,4.29-.55,5.83-1.21Z"/>
      <path class="st0" d="M589.27,872.29h13.31l1.98,12.87c3.85-13.75,13.53-13.97,18.37-13.97,9.24,0,15.18,4.51,17.05,14.63,3.52-13.53,14.41-14.63,19.36-14.63,13.64,0,20.35,8.25,20.35,24.53v35.75h-16.17v-34.76c0-7.7-1.76-12.1-9.9-12.1-4.84,0-11.11,2.42-11.11,12.21v34.65h-16.17v-34.76c0-7.7-1.65-12.1-9.79-12.1-5.17,0-11.22,2.53-11.22,12.21v34.65h-16.17l.11-59.18Z"/>
      <path class="st0" d="M688.82,902.1c0-23.21,11.55-30.8,29.04-30.8s28.6,8.8,28.6,30.8c0,23.21-12.1,30.69-28.6,30.69-17.6,0-29.04-8.03-29.04-30.69ZM729.85,901.99c0-11.77-3.63-17.82-11.99-17.82s-12.54,5.17-12.54,17.93,4.4,17.71,12.43,17.71c8.8,0,12.1-6.38,12.1-17.82Z"/>
    </g>
  </g>
</svg>