<?xml version="1.0" encoding="UTF-8"?>
<svg id="Capa_1" xmlns="http://www.w3.org/2000/svg" version="1.1" viewBox="0 0 1024 1024">
  <!-- Generator: Adobe Illustrator 29.8.1, SVG Export Plug-In . SVG Version: 2.1.1 Build 2)  -->
  <defs>
    <style>
      .st0 {
        fill: #2e3b2b;
      }

      .st1 {
        isolation: isolate;
      }
    </style>
  </defs>
  <path class="st0" d="M816.06,540.71c-.18-3.28-.72-6.34-1.19-9.04-.36-2.05-.7-3.98-.84-5.71-.54-6.91-1.55-13.68-2.52-20.22-.3-1.98-.59-3.96-.87-5.94-.7-4.95-1.47-9.95-2.21-14.78-.82-5.32-1.66-10.83-2.41-16.21-2.33-16.71-12.05-24.21-20.49-27.58,0-8.67.01-17.34.02-26.01.04-30.39.07-61.82-.17-92.76-.12-15.58-6.94-26.7-20.26-33.05-18.3-8.72-36.74-18.13-54.58-27.24-4.09-2.09-8.18-4.18-12.28-6.26-47.29-24.05-103.22-52.38-159.43-80.15-9.55-4.72-19.43-9.6-28.86-15.05-12.21-7.05-22.68-1.63-26.12.16-14.93,7.74-30.2,15.49-44.98,22.98-14.23,7.22-28.94,14.68-43.37,22.15-10.25,5.31-20.76,10.6-30.92,15.72-10.05,5.06-20.44,10.3-30.63,15.57-12.99,6.72-26.29,13.42-39.17,19.9-10.87,5.47-22.1,11.13-33.13,16.79-3.31,1.7-6.64,3.38-9.97,5.05-8.2,4.13-16.69,8.4-24.94,13.05l-.78.43c-2.11,1.17-4.85,2.69-7.35,5.09-6.23.41-11.01,5.73-10.72,11.99.28,6.17,5.37,10.98,11.48,10.98h.02c5.78,5.82,12.68,8.94,18.8,11.7,1.8.81,3.5,1.58,5.09,2.38,8.61,4.33,17.33,8.86,25.77,13.24,10.44,5.43,21.23,11.03,32.02,16.36-.28,1.83-.26,3.44-.25,4.66v.59c0,10.18-.03,20.35-.07,30.53-.08,24.42-.17,49.67.24,74.55.33,20.01,8.07,38.08,23.01,53.71,18.68,19.55,42.02,29.74,60.26,36.44,20.59,7.56,41.44,11.4,66.42,14.83,12.67,1.74,25.48,2.62,38.17,2.62,2.04,0,4.07-.02,6.1-.07,4.06-.09,8.07-.07,12.33-.06,10.04.04,20.41.07,30.95-1.37,26.91-3.69,58.1-8.77,87.71-22.35,25.38-11.64,42.91-25.68,55.16-44.17,6.54-9.87,10.39-20.53,11.45-31.69,1.45-15.3,1.25-30.55,1.05-45.31-.1-7.73-.21-15.73-.07-23.5.15-8.33.12-16.74.09-24.87-.02-5.17-.04-10.51-.01-15.74v-.12c.01-2.35.03-5.25-.55-8.3,4.81-2.9,9.96-5.46,15.34-8.14,3.46-1.72,7.03-3.5,10.56-5.4,14.06-7.56,28.64-15.23,43.45-22.84.2,29.02.17,58.43.13,86.94-.01,8.72-.02,17.43-.02,26.14-10.14,3.55-16.94,11.62-19.17,22.86-1.41,7.12-2.27,14.23-3.1,21.11-.65,5.42-1.27,10.54-2.13,15.63-.75,4.39-1.37,8.8-1.98,13.06l-.75,5.22c-.24,1.65-.51,3.31-.77,4.96-.91,5.69-1.85,11.57-2.05,17.79-.18,5.69,1.67,10.87,5.22,14.58,3.42,3.59,8.25,5.6,13.57,5.68,8.09.12,15.85.18,23.36.18s15.16-.06,22.47-.19c7-.12,11.35-3.23,13.76-5.82,2.56-2.75,5.53-7.71,5.09-15.7l.02.02ZM669.67,480.31c-.7,7.35-3.3,14.47-7.73,21.16-9.78,14.76-24.26,26.19-45.58,35.97-24.06,11.04-49.88,16.17-81.24,20.47-8.95,1.23-18.08,1.19-27.75,1.16-4.21-.01-8.57-.03-12.92.07-13.46.3-27.13-.49-40.63-2.34-23.5-3.23-42.97-6.79-61.62-13.63-15.91-5.84-36.15-14.62-51.56-30.74-10.81-11.31-16.41-24.16-16.64-38.19-.4-24.66-.32-49.79-.23-74.1.03-8.15.05-16.31.06-24.46.05.03.1.06.15.09,1.43.84,2.9,1.71,4.52,2.55,13.25,6.87,26.5,13.76,39.74,20.65,14.25,7.41,28.5,14.82,42.76,22.21,19.95,10.34,40.27,20.77,59.92,30.86l15.02,7.71c3.94,2.02,7.89,3.03,11.82,3.03s7.94-1.03,11.86-3.1c19.87-10.49,40.18-21.01,59.81-31.19,9.05-4.69,18.1-9.38,27.14-14.08,22.2-11.55,48.14-25.06,74.05-38.68-.01,4.43,0,8.87.02,13.19.03,8.01.06,16.29-.09,24.36-.15,8.14-.04,16.32.07,24.23.2,14.79.38,28.77-.95,42.83v-.03ZM708.09,330.84c-3.21,1.73-6.46,3.35-9.91,5.06-6.91,3.44-14.06,6.99-20.92,11.53-1.15.76-2.14,1.54-3.02,2.33-3.32.46-6.51,1.48-9.5,3.05-27.46,14.44-55.23,28.92-78.78,41.17-9.03,4.7-18.07,9.38-27.11,14.07-19.68,10.2-40.02,20.74-59.97,31.27-.67.35-1.05.44-1.12.45,0,0-.37-.02-1.31-.5l-15.03-7.72c-19.63-10.07-39.93-20.49-59.84-30.81-14.25-7.39-28.49-14.79-42.73-22.2-13.25-6.89-26.5-13.78-39.76-20.66-1.05-.55-2.2-1.22-3.41-1.94-4.02-2.37-9.17-5.41-15.66-6.27-.55-.49-1.13-.98-1.77-1.46-.28-.21-.56-.42-.84-.64-1.55-1.18-3.49-2.65-5.96-3.87-10.62-5.25-21.37-10.83-31.76-16.23-8.5-4.42-17.3-8.99-26.04-13.38-2.01-1.01-4.02-1.92-5.96-2.79-1.52-.68-3-1.36-4.41-2.05,6.2-3.34,12.57-6.56,18.78-9.68,3.38-1.7,6.76-3.41,10.13-5.13,10.95-5.62,22.14-11.26,32.97-16.71,12.92-6.51,26.29-13.24,39.39-20.01,10.08-5.22,20.42-10.42,30.41-15.46,10.22-5.15,20.78-10.47,31.14-15.83,14.34-7.43,29.01-14.86,43.2-22.06,14.82-7.51,30.14-15.28,45.16-23.08,2.72-1.41,3.08-1.21,4.02-.66,10.08,5.82,20.29,10.87,30.18,15.76,56.1,27.73,111.96,56.02,159.19,80.04,4.08,2.08,8.17,4.16,12.25,6.24,16.65,8.5,33.83,17.25,51.04,25.54-14.66,7.55-29.11,15.14-43.04,22.64h-.01ZM755.78,539.3c.32-3.7.93-7.51,1.57-11.48.28-1.75.56-3.5.82-5.25.26-1.77.51-3.54.77-5.32.59-4.11,1.19-8.37,1.89-12.46.96-5.64,1.64-11.28,2.29-16.74.81-6.75,1.58-13.12,2.82-19.38.81-4.07,2.65-5.17,4.52-5.75,1.4-.44,2.64-.95,3.68-1.41.66.26,1.39.54,2.18.81,3.72,1.27,6.04,3.25,6.93,9.65.77,5.53,1.63,11.12,2.45,16.52.73,4.77,1.49,9.71,2.17,14.53.29,2.03.59,4.06.89,6.09.96,6.43,1.86,12.51,2.34,18.62.22,2.84.7,5.53,1.11,7.91.22,1.26.44,2.48.6,3.65-11.77.16-23.96.17-37.04,0h0Z"/>
  <g class="st1">
    <g class="st1">
      <path class="st0" d="M256.53,773.27h51.15v14.19h-33.99v16.17h32.78l-.11,13.86h-32.67v20.79h34.1v14.19h-51.26v-79.2Z"/>
      <path class="st0" d="M317.69,824.09c0-19.69,5.72-32.01,25.08-31.9,11,.11,14.63,7.48,14.85,8.47v-30.8l16.28.11-.11,82.5h-12.87l-2.75-13.09c-2.42,11.77-11.55,14.41-17.05,14.41-17.16,0-23.43-11.55-23.43-29.7ZM357.51,827.61v-10.23c0-7.04-3.3-11.33-10.23-11.33-10.78-.11-13.2,6.38-13.2,18.04.11,7.92,1.1,15.95,11.66,15.95,7.04,0,11.77-4.51,11.77-12.43Z"/>
      <path class="st0" d="M447.38,838.5v13.42c-4.07,1.87-7.59,1.87-10.45,1.87-8.58-.11-13.42-3.74-13.53-13.53-3.63,12.54-13.09,13.53-17.6,13.53-13.86,0-20.79-8.36-20.79-24.75v-35.75h16.17v34.76c0,7.7,2.2,12.1,10.34,12.1,5.06,0,11.66-2.86,11.66-12.54v-34.21h16.17v43.01c0,1.76.22,3.3,2.2,3.3,3.3-.22,4.29-.55,5.83-1.21Z"/>
      <path class="st0" d="M450.68,822.66c0-17.71,7.59-30.36,29.04-30.36,8.36,0,14.41,1.21,18.37,3.08l-.11,13.53c-6.16-2.09-11.55-2.75-15.51-2.75-11.44,0-15.51,6.6-15.51,16.83,0,10.78,3.41,16.94,14.3,16.94,2.86,0,10.45-.55,16.94-2.75v13.31c-4.51,2.31-11.11,3.3-17.16,3.3-17.93,0-30.36-6.82-30.36-31.13Z"/>
      <path class="st0" d="M566.4,838.5v13.42c-4.07,1.87-7.59,1.87-10.45,1.87-8.58-.11-13.42-3.74-13.53-13.31-2.2,9.46-10.23,13.31-16.94,13.31-15.18,0-20.02-8.69-20.02-18.48,0-11.88,8.69-17.71,24.53-17.71h11.88v-1.98c0-7.04-3.85-10.01-12.32-10.01-6.05,0-14.19,1.65-20.57,4.18v-13.64c5.39-2.2,15.95-3.96,21.78-3.96,20.24,0,27.5,7.81,27.61,26.84v18.59c.22,1.21.77,2.09,2.2,2.09,3.3-.22,4.29-.55,5.83-1.21ZM542.09,827.72h-9.57c-5.17,0-11.55,1.76-11.66,7.04,0,3.3,1.65,6.71,8.47,6.71,7.48,0,12.76-4.51,12.76-11.99v-1.76Z"/>
      <path class="st0" d="M569.7,822.66c0-17.71,7.59-30.36,29.04-30.36,8.36,0,14.41,1.21,18.37,3.08l-.11,13.53c-6.16-2.09-11.55-2.75-15.51-2.75-11.44,0-15.51,6.6-15.51,16.83,0,10.78,3.41,16.94,14.3,16.94,2.86,0,10.45-.55,16.94-2.75v13.31c-4.51,2.31-11.11,3.3-17.16,3.3-17.93,0-30.36-6.82-30.36-31.13Z"/>
      <path class="st0" d="M625.69,769.86h18.04v16.61h-18.04v-16.61ZM626.57,793.29h16.17v59.18h-16.17v-59.18Z"/>
      <path class="st0" d="M652.19,823.1c0-23.21,11.55-30.8,29.04-30.8s28.6,8.8,28.6,30.8c0,23.21-12.1,30.69-28.6,30.69-17.6,0-29.04-8.03-29.04-30.69ZM693.22,822.99c0-11.77-3.63-17.82-11.99-17.82s-12.54,5.17-12.54,17.93,4.4,17.71,12.43,17.71c8.8,0,12.1-6.38,12.1-17.82ZM687.39,765.35h18.7l-19.58,20.57h-11.99l12.87-20.57Z"/>
      <path class="st0" d="M719.18,793.29h12.76l2.64,12.87c3.96-13.53,13.31-13.97,17.93-13.97,13.86,0,21.01,8.25,21.01,24.53l-.11,35.75h-16.17l.11-34.76c0-7.7-2.31-12.1-10.56-12.1-4.73,0-11.44,2.53-11.44,12.21l-.11,34.65h-16.17l.11-59.18Z"/>
    </g>
  </g>
</svg>