<?xml version="1.0" encoding="UTF-8"?>
<svg id="Capa_1" xmlns="http://www.w3.org/2000/svg" version="1.1" viewBox="0 0 1024 1024">
  <!-- Generator: Adobe Illustrator 29.8.1, SVG Export Plug-In . SVG Version: 2.1.1 Build 2)  -->
  <defs>
    <style>
      .st0 {
        isolation: isolate;
      }

      .st1 {
        fill: #773357;
      }
    </style>
  </defs>
  <g class="st0">
    <g class="st0">
      <path class="st1" d="M33.82,744.47h46.5v12.9h-30.9v14.7h29.8l-.1,12.6h-29.7v18.9h31v12.9h-46.6v-72Z"/>
      <path class="st1" d="M90.92,805.07v-63.6h14.5v60.4c0,1.7.9,3,3.4,3,2.8,0,5.6-.5,7-1.1v12.2c-4.3,1.4-8.1,1.7-10.7,1.7-7.9-.1-14.2-3.5-14.2-12.6Z"/>
      <path class="st1" d="M119.22,790.07c0-19,8.4-28.3,25.8-28.3,14.3,0,22.8,5.5,22.8,22.8,0,4.3-.6,9.6-.6,9.8h-33c.1,6.5,3.7,11,12.6,11,5.9,0,13.4-.8,19.3-2.8l.1,11.8c-5.4,2.3-12.2,3.3-19.7,3.3-19.3,0-27.3-8.4-27.3-27.6ZM153.72,785.57v-2.2c0-6.6-2.9-9.2-8.7-9.2-6.9,0-10.5,3.7-10.9,11.4h19.6ZM150.42,737.27h17l-17.8,18.7h-10.9l11.7-18.7Z"/>
      <path class="st1" d="M174.82,789.37c0-16.1,6.9-27.6,26.4-27.6,7.6,0,13.1,1.1,16.7,2.8l-.1,12.3c-5.6-1.9-10.5-2.5-14.1-2.5-10.4,0-14.1,6-14.1,15.3,0,9.8,3.1,15.4,13,15.4,2.6,0,9.5-.5,15.4-2.5v12.1c-4.1,2.1-10.1,3-15.6,3-16.3,0-27.6-6.2-27.6-28.3Z"/>
      <path class="st1" d="M232.02,803.27v-28.7h-10.9v-11.9h10.9v-12.4h14.7v12.4h15.9v11.9h-15.9v26.3c0,2.8,2.1,3.8,5.2,3.8s8.6-1,10.7-1.7v12c-3.7,2.1-10.9,2.7-14.1,2.7-8,0-16.5-2.8-16.5-14.4Z"/>
      <path class="st1" d="M270.42,762.67h11.4l2.5,14.5c4.1-9.1,11-14.4,19.6-14.4l.2,14.1c-8.7.7-19,1.8-19,8.9l-.1,30.7h-14.7l.1-53.8Z"/>
      <path class="st1" d="M308.32,741.37h16.4v15.1h-16.4v-15.1ZM309.12,762.67h14.7v53.8h-14.7v-53.8Z"/>
      <path class="st1" d="M332.41,789.37c0-16.1,6.9-27.6,26.4-27.6,7.6,0,13.1,1.1,16.7,2.8l-.1,12.3c-5.6-1.9-10.5-2.5-14.1-2.5-10.4,0-14.1,6-14.1,15.3,0,9.8,3.1,15.4,13,15.4,2.6,0,9.5-.5,15.4-2.5v12.1c-4.1,2.1-10.1,3-15.6,3-16.3,0-27.6-6.2-27.6-28.3Z"/>
      <path class="st1" d="M382.61,789.77c0-21.1,10.5-28,26.4-28s26,8,26,28c0,21.1-11,27.9-26,27.9-16,0-26.4-7.3-26.4-27.9ZM419.92,789.67c0-10.7-3.3-16.2-10.9-16.2s-11.4,4.7-11.4,16.3,4,16.1,11.3,16.1c8,0,11-5.8,11-16.2Z"/>
      <path class="st1" d="M443.61,782.27h31.6v10.7h-31.7l.1-10.7Z"/>
      <path class="st1" d="M483.71,790.07c0-19,8.4-28.3,25.8-28.3,14.3,0,22.8,5.5,22.8,22.8,0,4.3-.6,9.6-.6,9.8h-33c.1,6.5,3.7,11,12.6,11,5.9,0,13.4-.8,19.3-2.8l.1,11.8c-5.4,2.3-12.2,3.3-19.7,3.3-19.3,0-27.3-8.4-27.3-27.6ZM518.21,785.57v-2.2c0-6.6-2.9-9.2-8.7-9.2-6.9,0-10.5,3.7-10.9,11.4h19.6Z"/>
      <path class="st1" d="M540.81,805.07v-63.6h14.5v60.4c0,1.7.9,3,3.4,3,2.8,0,5.6-.5,7-1.1v12.2c-4.3,1.4-8.1,1.7-10.7,1.7-7.9-.1-14.2-3.5-14.2-12.6Z"/>
      <path class="st1" d="M569.11,790.07c0-19,8.4-28.3,25.8-28.3,14.3,0,22.8,5.5,22.8,22.8,0,4.3-.6,9.6-.6,9.8h-33c.1,6.5,3.7,11,12.6,11,5.9,0,13.4-.8,19.3-2.8l.1,11.8c-5.4,2.3-12.2,3.3-19.7,3.3-19.3,0-27.3-8.4-27.3-27.6ZM603.61,785.57v-2.2c0-6.6-2.9-9.2-8.7-9.2-6.9,0-10.5,3.7-10.9,11.4h19.6Z"/>
      <path class="st1" d="M624.71,789.37c0-16.1,6.9-27.6,26.4-27.6,7.6,0,13.1,1.1,16.7,2.8l-.1,12.3c-5.6-1.9-10.5-2.5-14.1-2.5-10.4,0-14.1,6-14.1,15.3,0,9.8,3.1,15.4,13,15.4,2.6,0,9.5-.5,15.4-2.5v12.1c-4.1,2.1-10.1,3-15.6,3-16.3,0-27.6-6.2-27.6-28.3Z"/>
      <path class="st1" d="M681.91,803.27v-28.7h-10.9v-11.9h10.9v-12.4h14.7v12.4h15.9v11.9h-15.9v26.3c0,2.8,2.1,3.8,5.2,3.8s8.6-1,10.7-1.7v12c-3.7,2.1-10.9,2.7-14.1,2.7-8,0-16.5-2.8-16.5-14.4Z"/>
      <path class="st1" d="M720.31,762.67h11.4l2.5,14.5c4.1-9.1,11-14.4,19.6-14.4l.2,14.1c-8.7.7-19,1.8-19,8.9l-.1,30.7h-14.7l.1-53.8Z"/>
      <path class="st1" d="M757.51,789.77c0-21.1,10.5-28,26.4-28s26,8,26,28c0,21.1-11,27.9-26,27.9-16,0-26.4-7.3-26.4-27.9ZM794.81,789.67c0-10.7-3.3-16.2-10.9-16.2s-11.4,4.7-11.4,16.3,4,16.1,11.3,16.1c8,0,11-5.8,11-16.2ZM789.51,737.27h17l-17.8,18.7h-10.9l11.7-18.7Z"/>
      <path class="st1" d="M818.41,762.67h11.6l2.4,11.7c3.6-12.3,12.1-12.7,16.3-12.7,12.6,0,19.1,7.5,19.1,22.3l-.1,32.5h-14.7l.1-31.6c0-7-2.1-11-9.6-11-4.3,0-10.4,2.3-10.4,11.1l-.1,31.5h-14.7l.1-53.8Z"/>
      <path class="st1" d="M876.8,741.37h16.4v15.1h-16.4v-15.1ZM877.61,762.67h14.7v53.8h-14.7v-53.8Z"/>
      <path class="st1" d="M900.9,789.37c0-16.1,6.9-27.6,26.4-27.6,7.6,0,13.1,1.1,16.7,2.8l-.1,12.3c-5.6-1.9-10.5-2.5-14.1-2.5-10.4,0-14.1,6-14.1,15.3,0,9.8,3.1,15.4,13,15.4,2.6,0,9.5-.5,15.4-2.5v12.1c-4.1,2.1-10.1,3-15.6,3-16.3,0-27.6-6.2-27.6-28.3Z"/>
      <path class="st1" d="M951.1,789.77c0-21.1,10.5-28,26.4-28s26,8,26,28c0,21.1-11,27.9-26,27.9-16,0-26.4-7.3-26.4-27.9ZM988.41,789.67c0-10.7-3.3-16.2-10.9-16.2s-11.4,4.7-11.4,16.3,4,16.1,11.3,16.1c8,0,11-5.8,11-16.2Z"/>
    </g>
    <g class="st0">
      <path class="st1" d="M125.92,889.37l-22.3,62h-14.1l7.9-19.9h-5.4l-18.3-53.8h15l12.7,39.9,10.2-30.2c.3-1.2.5-2,.5-3.6-.1-3.1-1.7-6.1-1.7-6.1h14s1.6,2.9,1.9,7.6c0,1.3,0,2.6-.4,4.1Z"/>
      <path class="st1" d="M153.52,929.57l.2-12.1c5.2,1.8,14.2,3.1,18.4,3.1,5.3-.1,9.2-1.3,9.2-4.9,0-2.3-1.4-3.4-6.7-4.9-2.1-.6-5.3-1.6-7.9-2.4-8.7-2.9-12.8-6.9-12.8-15.4,0-10.2,8.6-16.3,21.5-16.3,7.5,0,14.3.9,18.7,2.9v11.7c-3.3-.8-11.5-2.7-17.8-2.7-4.8,0-8,1.5-8,4.3s2.1,3.3,6.2,4.5c2.8.9,5.9,1.8,7.8,2.4,8.9,2.9,13.1,7.1,13.1,15.7,0,10.5-7.3,17.2-23.3,17.2-6.6,0-13.3-.8-18.6-3.1Z"/>
      <path class="st1" d="M202.42,905.07c0-19,8.4-28.3,25.8-28.3,14.3,0,22.8,5.5,22.8,22.8,0,4.3-.6,9.6-.6,9.8h-33c.1,6.5,3.7,11,12.6,11,5.9,0,13.4-.8,19.3-2.8l.1,11.8c-5.4,2.3-12.2,3.3-19.7,3.3-19.3,0-27.3-8.4-27.3-27.6ZM236.92,900.57v-2.2c0-6.6-2.9-9.2-8.7-9.2-6.9,0-10.5,3.7-10.9,11.4h19.6Z"/>
      <path class="st1" d="M259.62,877.67h12.1l1.8,11.7c3.5-12.5,12.3-12.7,16.7-12.7,8.4,0,13.8,4.1,15.5,13.3,3.2-12.3,13.1-13.3,17.6-13.3,12.4,0,18.5,7.5,18.5,22.3v32.5h-14.7v-31.6c0-7-1.6-11-9-11-4.4,0-10.1,2.2-10.1,11.1v31.5h-14.7v-31.6c0-7-1.5-11-8.9-11-4.7,0-10.2,2.3-10.2,11.1v31.5h-14.7l.1-53.8Z"/>
      <path class="st1" d="M350.82,856.37h16.4v15.1h-16.4v-15.1ZM351.62,877.67h14.7v53.8h-14.7v-53.8Z"/>
      <path class="st1" d="M374.92,904.37c0-16.1,6.9-27.6,26.4-27.6,7.6,0,13.1,1.1,16.7,2.8l-.1,12.3c-5.6-1.9-10.5-2.5-14.1-2.5-10.4,0-14.1,6-14.1,15.3,0,9.8,3.1,15.4,13,15.4,2.6,0,9.5-.5,15.4-2.5v12.1c-4.1,2.1-10.1,3-15.6,3-16.3,0-27.6-6.2-27.6-28.3Z"/>
      <path class="st1" d="M425.12,904.77c0-21.1,10.5-28,26.4-28s26,8,26,28c0,21.1-11,27.9-26,27.9-16,0-26.4-7.3-26.4-27.9ZM462.42,904.67c0-10.7-3.3-16.2-10.9-16.2s-11.4,4.7-11.4,16.3,4,16.1,11.3,16.1c8,0,11-5.8,11-16.2Z"/>
      <path class="st1" d="M486.01,877.67h11.6l2.4,11.7c3.6-12.3,12.1-12.7,16.3-12.7,12.6,0,19.1,7.5,19.1,22.3l-.1,32.5h-14.7l.1-31.6c0-7-2.1-11-9.6-11-4.3,0-10.4,2.3-10.4,11.1l-.1,31.5h-14.7l.1-53.8Z"/>
      <path class="st1" d="M543.71,905.67c0-17.9,5.2-29.1,22.8-29,10,.1,13.3,6.8,13.5,7.7v-28l14.8.1-.1,75h-11.7l-2.5-11.9c-2.2,10.7-10.5,13.1-15.5,13.1-15.6,0-21.3-10.5-21.3-27ZM579.92,908.87v-9.3c0-6.4-3-10.3-9.3-10.3-9.8-.1-12,5.8-12,16.4.1,7.2,1,14.5,10.6,14.5,6.4,0,10.7-4.1,10.7-11.3Z"/>
      <path class="st1" d="M661.62,918.77v12.2c-3.7,1.7-6.9,1.7-9.5,1.7-7.8-.1-12.2-3.4-12.3-12.3-3.3,11.4-11.9,12.3-16,12.3-12.6,0-18.9-7.6-18.9-22.5v-32.5h14.7v31.6c0,7,2,11,9.4,11,4.6,0,10.6-2.6,10.6-11.4v-31.1h14.7v39.1c0,1.6.2,3,2,3,3-.2,3.9-.5,5.3-1.1Z"/>
      <path class="st1" d="M664.61,904.37c0-16.1,6.9-27.6,26.4-27.6,7.6,0,13.1,1.1,16.7,2.8l-.1,12.3c-5.6-1.9-10.5-2.5-14.1-2.5-10.4,0-14.1,6-14.1,15.3,0,9.8,3.1,15.4,13,15.4,2.6,0,9.5-.5,15.4-2.5v12.1c-4.1,2.1-10.1,3-15.6,3-16.3,0-27.6-6.2-27.6-28.3Z"/>
      <path class="st1" d="M721.81,918.27v-28.7h-10.9v-11.9h10.9v-12.4h14.7v12.4h15.9v11.9h-15.9v26.3c0,2.8,2.1,3.8,5.2,3.8s8.6-1,10.7-1.7v12c-3.7,2.1-10.9,2.7-14.1,2.7-8,0-16.5-2.8-16.5-14.4Z"/>
      <path class="st1" d="M758.71,904.77c0-21.1,10.5-28,26.4-28s26,8,26,28c0,21.1-11,27.9-26,27.9-16,0-26.4-7.3-26.4-27.9ZM796.01,904.67c0-10.7-3.3-16.2-10.9-16.2s-11.4,4.7-11.4,16.3,4,16.1,11.3,16.1c8,0,11-5.8,11-16.2Z"/>
      <path class="st1" d="M819.61,877.67h11.4l2.5,14.5c4.1-9.1,11-14.4,19.6-14.4l.2,14.1c-8.7.7-19,1.8-19,8.9l-.1,30.7h-14.7l.1-53.8Z"/>
      <path class="st1" d="M856.81,905.07c0-19,8.4-28.3,25.8-28.3,14.3,0,22.8,5.5,22.8,22.8,0,4.3-.6,9.6-.6,9.8h-33c.1,6.5,3.7,11,12.6,11,5.9,0,13.4-.8,19.3-2.8l.1,11.8c-5.4,2.3-12.2,3.3-19.7,3.3-19.3,0-27.3-8.4-27.3-27.6ZM891.31,900.57v-2.2c0-6.6-2.9-9.2-8.7-9.2-6.9,0-10.5,3.7-10.9,11.4h19.6Z"/>
      <path class="st1" d="M912.31,929.57l.2-12.1c5.2,1.8,14.2,3.1,18.4,3.1,5.3-.1,9.2-1.3,9.2-4.9,0-2.3-1.4-3.4-6.7-4.9-2.1-.6-5.3-1.6-7.9-2.4-8.7-2.9-12.8-6.9-12.8-15.4,0-10.2,8.6-16.3,21.5-16.3,7.5,0,14.3.9,18.7,2.9v11.7c-3.3-.8-11.5-2.7-17.8-2.7-4.8,0-8,1.5-8,4.3s2.1,3.3,6.2,4.5c2.8.9,5.9,1.8,7.8,2.4,8.9,2.9,13.1,7.1,13.1,15.7,0,10.5-7.3,17.2-23.3,17.2-6.6,0-13.3-.8-18.6-3.1Z"/>
    </g>
  </g>
  <g>
    <path class="st1" d="M808.82,302.81c-2.8-3.27-7.12-4.64-11.18-3.75-7.64.6-59.66-.5-76.52-1.23,1.67-16.37,16.01-129.85,17.16-137.37.91-4.92-1.48-9.92-5.99-12.27-4.84-2.53-10.79-1.3-14.24,2.93l-178.79,219.28c-2.72,3.34-3.35,7.92-1.62,11.87,1.73,3.95,5.52,6.6,9.82,6.87,2.74.17,16.22,0,46.35-.46,19.84-.3,40.35-.61,49.79-.61h.55c.5.04.95.07,1.36.11-.05.46-.12.98-.2,1.56-2.65,19.24-26.8,153.86-27.04,155.22-.95,5.29,1.89,10.52,6.83,12.62,1.46.62,2.98.91,4.48.91,3.61,0,7.12-1.7,9.33-4.78l170.51-236.68c3.1-4.31,2.85-10.18-.6-14.21h0ZM649.77,499.28c7.29-41.07,16.66-94.4,18.32-106.41.97-7.03,1.51-14.4-3.31-20.34-5.21-6.42-13.67-7.02-19.29-7.42-.45-.03-.86-.04-1.2-.04h-.69c-9.61,0-30.21.31-50.14.61-6.98.1-14.28.21-20.93.31l137.75-168.96c-5.29,41.55-12.35,99.46-12.31,102.26.06,4.21.18,12.03,6.07,17.12,4.5,3.88,9.73,4.12,14.79,4.34l.58.03c7.15.33,26.43.88,45.11,1.21,4.88.09,9.12.15,12.82.2l-127.58,177.1h.01Z"/>
    <path class="st1" d="M567.46,418.35c-6.35,0-11.5,5.15-11.5,11.5v54.31c0,18.18-14.79,32.97-32.97,32.97h-193.87c-18.18,0-32.97-14.79-32.97-32.97v-193.87c0-18.18,14.79-32.97,32.97-32.97h193.87c18.18,0,32.97,14.79,32.97,32.97,0,6.35,5.15,11.5,11.5,11.5s11.5-5.15,11.5-11.5c0-27.75-20.31-50.84-46.84-55.21v-45.7c0-6.35-5.15-11.5-11.5-11.5s-11.5,5.15-11.5,11.5v44.94h-41.13c.38-14.69.59-29.76-.6-44.85-.5-6.33-6.03-11.06-12.37-10.56-6.33.5-11.06,6.04-10.56,12.37,1.12,14.21.9,28.31.52,43.04h-40.74v-42.45c0-6.35-5.15-11.5-11.5-11.5s-11.5,5.15-11.5,11.5v42.45h-40.94v-42.45c0-6.35-5.15-11.5-11.5-11.5s-11.5,5.15-11.5,11.5v43.71c-22.8,4.92-40.47,23.78-43.63,47.19h-48.77c-6.35,0-11.5,5.15-11.5,11.5s5.15,11.5,11.5,11.5h48.25v39.49c-.75-.05-1.53-.09-2.36-.08-11.38.06-22.97.05-34.18.04h-12.71c-6.35,0-11.5,5.15-11.5,11.5s5.15,11.5,11.5,11.5h12.69c11.25.01,22.88.02,34.33-.04h.03c.56,0,1.35.08,2.2.18v40.29h-48.25c-6.35,0-11.5,5.15-11.5,11.5s5.15,11.5,11.5,11.5h48.25v38.94h-48.25c-6.35,0-11.5,5.15-11.5,11.5s5.15,11.5,11.5,11.5h49.06c3.84,22.51,21.16,40.47,43.33,45.26v38.66c0,.23,0,.46-.02.68-.07,2.27-.2,6.49,2.46,10.82,2.17,3.53,5.94,5.48,9.81,5.48,2.05,0,4.14-.55,6.01-1.71,4.8-2.95,6.67-8.86,4.71-13.94.01-.46.03-.91.03-1.36v-37.37h40.94v38.16c-.04,2.1-.09,5.27,1.26,8.82,1.75,4.58,6.12,7.4,10.74,7.39,1.37,0,2.75-.25,4.11-.76,5.7-2.18,8.67-8.41,6.87-14.15v-.88c0-.4.01-.8.01-1.21v-37.37h40.94v38.16c-.04,2.1-.09,5.27,1.26,8.82,1.75,4.58,6.12,7.4,10.74,7.39,1.37,0,2.75-.25,4.11-.76,5.7-2.18,8.67-8.41,6.87-14.15v-.88c0-.4.01-.8.01-1.21v-37.37h42.47c0,3.52-.02,7.02-.03,10.47-.05,10.71-.1,21.78.26,32.78.21,6.22,5.31,11.12,11.49,11.12h.38c6.35-.21,11.32-5.52,11.12-11.87-.35-10.56-.3-21.42-.25-31.91.02-3.81.03-7.7.03-11.61,25.78-4.99,45.31-27.72,45.31-54.94v-54.31c0-6.35-5.15-11.5-11.5-11.5h.03Z"/>
  </g>
</svg>