<?xml version="1.0" encoding="UTF-8"?>
<svg id="Capa_1" xmlns="http://www.w3.org/2000/svg" version="1.1" viewBox="0 0 1024 1024">
  <!-- Generator: Adobe Illustrator 29.8.1, SVG Export Plug-In . SVG Version: 2.1.1 Build 2)  -->
  <defs>
    <style>
      .st0 {
        fill: #2e3b2b;
      }

      .st1 {
        isolation: isolate;
      }
    </style>
  </defs>
  <g>
    <path class="st0" d="M682.76,261.82c-1.61-14.21-5.23-28.24-10.78-41.69-8.05-19.53-19.44-36.9-33.84-51.61-17.41-17.79-37.53-31.2-59.8-39.84-13.14-5.1-26.96-8.76-41.08-10.87-11.8-1.76-24.29-2.19-38.18-1.29-20.12,1.3-39.33,5.77-57.09,13.31-23.4,9.92-43.55,24.07-59.9,42.04-11.79,12.97-20.72,26.27-27.29,40.68-5.33,11.68-9.24,23.96-11.62,36.48-2.34,12.28-3.31,25.16-2.9,38.3.32,10.17,1.65,20.6,3.96,31.01,4.91,22.12,15.45,43.2,33.18,66.33,1.53,2,3.06,3.99,4.6,5.98,8.99,11.67,18.29,23.74,26.22,36.19,9.46,14.84,15.04,27.82,17.54,40.86,1.61,8.37,2.39,17.22,2.31,26.29-.11,13.49,9.35,16.82,12.25,17.52,1.41.34,2.71.42,3.74.42.63,0,1.16-.03,1.56-.06l99.36-.02c10.44,0,20.88,0,31.32.02h.15c2.22,0,5.39-.14,8.85-1.15,3.25-.6,6.23-2.59,7.97-5.7,3.08-5.5,2.97-10.98,2.9-14.61-.02-.95-.04-1.85,0-2.51.55-8.56,1.52-16.16,2.96-23.24,2.04-10.01,6.13-19.92,12.86-31.16,8.82-14.73,19.54-28.9,29.9-42.59,1.6-2.11,3.2-4.23,4.79-6.34,14.88-19.77,24.54-37.83,30.39-56.87,2.73-8.88,4.63-18.62,5.82-29.78,1.27-11.89,1.22-24.03-.14-36.09h0ZM660.03,295.47c-1.03,9.67-2.64,18-4.93,25.45-5.04,16.4-13.55,32.23-26.78,49.79-1.58,2.1-3.17,4.2-4.76,6.3-10.73,14.18-21.83,28.85-31.29,44.65-8,13.36-13.12,25.92-15.67,38.39-1.65,8.12-2.76,16.74-3.38,26.36-.05.85-.07,1.66-.07,2.44-5.94-.01-11.88-.02-17.82-.02h-104.29c-.21-8.74-1.11-17.3-2.68-25.5-3.07-15.98-9.66-31.52-20.74-48.88-8.48-13.3-18.1-25.78-27.39-37.85-1.52-1.98-3.05-3.95-4.56-5.93-15.62-20.38-24.82-38.59-28.98-57.32-2-9.01-3.15-18.01-3.42-26.75-.36-11.62.46-22.5,2.51-33.28,2.04-10.72,5.39-21.23,9.95-31.24,5.56-12.2,13.21-23.56,23.38-34.74,14.29-15.71,31.25-27.6,51.86-36.34,15.37-6.52,32.06-10.4,49.59-11.53,12.25-.79,23.14-.43,33.3,1.08,12.44,1.86,24.61,5.08,36.16,9.56,19.2,7.45,36.58,19.05,51.69,34.49,12.33,12.6,22.09,27.5,29.01,44.29,4.73,11.48,7.83,23.43,9.19,35.51,1.17,10.4,1.22,20.85.13,31.07h-.01Z"/>
    <path class="st0" d="M585.15,529.14c-2.46-3.53-6.54-5.26-10.54-4.88-2.45-.69-5.01-1.04-7.65-1.04h-.05c-36.81.06-73.62,0-110.42.07-2.86,0-11.58.02-16.67,7.09-5.19,7.2-2.32,15.84-.95,19.99,4.23,12.74,12.42,22.3,23.67,27.64l.8.38c.15.07.32.15.48.23-.32,5.9.45,11.68,2.34,17,4.78,13.46,15.4,21.27,29.12,21.42,6.03.07,11.75.1,17.26.1s11.03-.03,16.27-.1c14.94-.2,26.08-9.61,29.78-25.18.97-4.05,1.31-8.41,1.06-13.02,3.67-1.96,6.79-4.46,9.39-6.54.59-.48,1.19-.95,1.78-1.42,5.28-4.13,9.61-9.88,12.85-17.09,2.2-4.89,3.19-9.74,2.95-14.45,1.11-3.33.69-7.12-1.47-10.22v.02ZM536.22,586.54c-.62,2.6-1.77,7.43-7.71,7.51-10.18.14-20.97.14-32.97,0-3.43-.04-5.91-1.08-7.7-6.12-.72-2.03-1.08-4.25-1.1-6.57h50.01c.02,1.88-.15,3.62-.52,5.18h0ZM556.66,552.78c-.67.52-1.33,1.05-1.99,1.58-4.59,3.68-6.74,5.13-8.15,4.65-2.55-.88-4.77-.75-5.91-.65h-58.37c-1.66,0-3.31.36-4.82,1.06-.92-.22-2.83-1.13-4.14-1.76l-.86-.41c-4.62-2.19-8.13-5.87-10.46-10.95,33.28-.06,66.56,0,99.85-.05-1.49,2.83-3.25,5.07-5.13,6.54h-.02Z"/>
    <path class="st0" d="M579.64,272.65c-4.42.25-26.01-.17-37.96-.54,2.13-18.13,8.69-69.7,9.25-73.56.86-4.89-1.53-9.84-6.01-12.18-4.84-2.53-10.78-1.3-14.23,2.93l-102.86,126.16c-2.72,3.34-3.35,7.92-1.62,11.87,1.73,3.95,5.52,6.6,9.82,6.87,1.67.1,7.58.04,27.04-.26,8.82-.13,17.86-.27,24.01-.32-3.24,19.97-14.69,83.77-14.81,84.48-.95,5.29,1.89,10.52,6.83,12.62,1.46.62,2.98.91,4.48.91,3.61,0,7.12-1.7,9.33-4.78l98.1-136.16c3.1-4.31,2.85-10.18-.6-14.21-2.71-3.15-6.83-4.54-10.76-3.83h-.01ZM503.72,372.5c3.18-18.1,6.16-35.36,6.85-40.36.49-3.53,1.39-10.1-2.95-15.44-4.33-5.34-10.72-5.79-14.54-6.07-.35-.02-.7-.03-1.04-.03h-.39c-5.57,0-17.44.18-28.92.35-.51,0-1.03.02-1.55.02l61.88-75.9c-2.55,20.5-5.02,41.15-5,42.63.24,16.42,12.61,16.97,16.67,17.15l.33.02c3.89.18,13.97.47,24.12.66l-55.44,76.96h-.02Z"/>
  </g>
  <g class="st1">
    <g class="st1">
      <path class="st0" d="M328.69,772.27h51.15v14.19h-33.99v16.17h32.78l-.11,13.86h-32.67v20.79h34.1v14.19h-51.26v-79.2Z"/>
      <path class="st0" d="M391.5,792.29h12.76l2.64,12.87c3.96-13.53,13.31-13.97,17.93-13.97,13.86,0,21.01,8.25,21.01,24.53l-.11,35.75h-16.17l.11-34.76c0-7.7-2.31-12.1-10.56-12.1-4.73,0-11.44,2.53-11.44,12.21l-.11,34.65h-16.17l.11-59.18Z"/>
      <path class="st0" d="M454.97,822.43c0-20.9,9.24-31.13,28.38-31.13,15.73,0,25.08,6.05,25.08,25.08,0,4.73-.66,10.56-.66,10.78h-36.3c.11,7.15,4.07,12.1,13.86,12.1,6.49,0,14.74-.88,21.23-3.08l.11,12.98c-5.94,2.53-13.42,3.63-21.67,3.63-21.23,0-30.03-9.24-30.03-30.36ZM492.92,817.48v-2.42c0-7.26-3.19-10.12-9.57-10.12-7.59,0-11.55,4.07-11.99,12.54h21.56Z"/>
      <path class="st0" d="M517.78,792.29h12.54l2.75,15.95c4.51-10.01,12.1-15.84,21.56-15.84l.22,15.51c-9.57.77-20.9,1.98-20.9,9.79l-.11,33.77h-16.17l.11-59.18Z"/>
      <path class="st0" d="M577.73,852.68c-17.71,0-23.65-12.43-23.65-30.58,0-15.29,3.52-30.91,23.65-30.91,5.61,0,15.07,2.53,16.83,13.97l2.75-12.87h12.87v62.81c0,13.09-10.01,18.37-28.49,18.37-7.92,0-19.36-1.65-24.53-3.85v-13.31c4.95,1.43,14.41,4.18,25.63,4.18h.44c3.19,0,10.67-.11,10.67-4.62v-13.42c-2.31,4.4-6.82,10.23-16.17,10.23ZM593.9,827.38v-10.45c0-7.37-4.51-11.88-11.22-11.88-10.34,0-12.21,6.71-12.21,16.94v.66c0,10.78,2.64,16.39,11.99,16.39,7.15,0,11.44-5.94,11.44-11.66Z"/>
      <path class="st0" d="M620.73,792.29h16.17v59.18h-16.17v-59.18ZM635.25,764.35h18.7l-19.58,20.57h-11.99l12.87-20.57Z"/>
      <path class="st0" d="M706.64,837.5v13.42c-4.07,1.87-7.59,1.87-10.45,1.87-8.58-.11-13.42-3.74-13.53-13.31-2.2,9.46-10.23,13.31-16.94,13.31-15.18,0-20.02-8.69-20.02-18.48,0-11.88,8.69-17.71,24.53-17.71h11.88v-1.98c0-7.04-3.85-10.01-12.32-10.01-6.05,0-14.19,1.65-20.57,4.18v-13.64c5.39-2.2,15.95-3.96,21.78-3.96,20.24,0,27.5,7.81,27.61,26.84v18.59c.22,1.21.77,2.09,2.2,2.09,3.3-.22,4.29-.55,5.83-1.21ZM682.33,826.72h-9.57c-5.17,0-11.55,1.76-11.66,7.04,0,3.3,1.65,6.71,8.47,6.71,7.48,0,12.76-4.51,12.76-11.99v-1.76Z"/>
    </g>
  </g>
</svg>