<?xml version="1.0" encoding="UTF-8"?>
<svg id="Capa_1" xmlns="http://www.w3.org/2000/svg" version="1.1" viewBox="0 0 1024 1024">
  <!-- Generator: Adobe Illustrator 29.8.1, SVG Export Plug-In . SVG Version: 2.1.1 Build 2)  -->
  <defs>
    <style>
      .st0 {
        isolation: isolate;
      }

      .st1 {
        fill: #7c4a36;
      }
    </style>
  </defs>
  <g class="st0">
    <g class="st0">
      <path class="st1" d="M248.83,737.38l17.05-.11v79.09l-17.05.11v-79.09Z"/>
      <path class="st1" d="M278.53,757.29h12.76l2.64,12.87c3.96-13.53,13.31-13.97,17.93-13.97,13.86,0,21.01,8.25,21.01,24.53l-.11,35.75h-16.17l.11-34.76c0-7.7-2.31-12.1-10.56-12.1-4.73,0-11.44,2.53-11.44,12.21l-.11,34.65h-16.17l.11-59.18Z"/>
      <path class="st1" d="M342,786.66c0-17.71,7.59-30.36,29.04-30.36,8.36,0,14.41,1.21,18.37,3.08l-.11,13.53c-6.16-2.09-11.55-2.75-15.51-2.75-11.44,0-15.51,6.6-15.51,16.83,0,10.78,3.41,16.94,14.3,16.94,2.86,0,10.45-.55,16.94-2.75v13.31c-4.51,2.31-11.11,3.3-17.16,3.3-17.93,0-30.36-6.82-30.36-31.13Z"/>
      <path class="st1" d="M398.87,803.93v-69.96h15.95v66.44c0,1.87.99,3.3,3.74,3.3,3.08,0,6.16-.55,7.7-1.21v13.42c-4.73,1.54-8.91,1.87-11.77,1.87-8.69-.11-15.62-3.85-15.62-13.86Z"/>
      <path class="st1" d="M493.8,802.5v13.42c-4.07,1.87-7.59,1.87-10.45,1.87-8.58-.11-13.42-3.74-13.53-13.53-3.63,12.54-13.09,13.53-17.6,13.53-13.86,0-20.79-8.36-20.79-24.75v-35.75h16.17v34.76c0,7.7,2.2,12.1,10.34,12.1,5.06,0,11.66-2.86,11.66-12.54v-34.21h16.17v43.01c0,1.76.22,3.3,2.2,3.3,3.3-.22,4.29-.55,5.83-1.21Z"/>
      <path class="st1" d="M496.99,814.38l.22-13.31c5.72,1.98,15.62,3.41,20.24,3.41,5.83-.11,10.12-1.43,10.12-5.39,0-2.53-1.54-3.74-7.37-5.39-2.31-.66-5.83-1.76-8.69-2.64-9.57-3.19-14.08-7.59-14.08-16.94,0-11.22,9.46-17.93,23.65-17.93,8.25,0,15.73.99,20.57,3.19v12.87c-3.63-.88-12.65-2.97-19.58-2.97-5.28,0-8.8,1.65-8.8,4.73s2.31,3.63,6.82,4.95c3.08.99,6.49,1.98,8.58,2.64,9.79,3.19,14.41,7.81,14.41,17.27,0,11.55-8.03,18.92-25.63,18.92-7.26,0-14.63-.88-20.46-3.41Z"/>
      <path class="st1" d="M551.55,733.86h18.04v16.61h-18.04v-16.61ZM552.43,757.29h16.17v59.18h-16.17v-59.18Z"/>
      <path class="st1" d="M578.06,787.1c0-23.21,11.55-30.8,29.04-30.8s28.6,8.8,28.6,30.8c0,23.21-12.1,30.69-28.6,30.69-17.6,0-29.04-8.03-29.04-30.69ZM619.09,786.99c0-11.77-3.63-17.82-11.99-17.82s-12.54,5.17-12.54,17.93,4.4,17.71,12.43,17.71c8.8,0,12.1-6.38,12.1-17.82ZM613.26,729.35h18.7l-19.58,20.57h-11.99l12.87-20.57Z"/>
      <path class="st1" d="M645.04,757.29h12.76l2.64,12.87c3.96-13.53,13.31-13.97,17.93-13.97,13.86,0,21.01,8.25,21.01,24.53l-.11,35.75h-16.17l.11-34.76c0-7.7-2.31-12.1-10.56-12.1-4.73,0-11.44,2.53-11.44,12.21l-.11,34.65h-16.17l.11-59.18Z"/>
      <path class="st1" d="M785.51,770.16l-24.53,68.2h-15.51l8.69-21.89h-5.94l-20.13-59.18h16.5l13.97,43.89,11.22-33.22c.33-1.32.55-2.2.55-3.96-.11-3.41-1.87-6.71-1.87-6.71h15.4s1.76,3.19,2.09,8.36c0,1.43,0,2.86-.44,4.51Z"/>
    </g>
    <g class="st0">
      <path class="st1" d="M291.07,918.38l-2.75,13.09h-12.98l.11-82.5h16.28v31.57c2.2-3.85,7.37-9.35,16.5-9.35,17.49,0,23.32,11.11,23.32,30.58,0,15.29-3.19,31.02-23.54,31.02-5.5,0-14.63-2.97-16.94-14.41ZM315.27,901.99c0-10.34-1.65-17.16-11.99-17.16-7.59,0-11.44,5.06-11.55,11.11v10.89c0,7.37,4.62,11.99,11.22,11.99,10.23,0,12.21-6.82,12.32-16.83Z"/>
      <path class="st1" d="M338.81,848.86h18.04v16.61h-18.04v-16.61ZM339.69,872.29h16.17v59.18h-16.17v-59.18Z"/>
      <path class="st1" d="M365.32,902.43c0-20.9,9.24-31.13,28.38-31.13,15.73,0,25.08,6.05,25.08,25.08,0,4.73-.66,10.56-.66,10.78h-36.3c.11,7.15,4.07,12.1,13.86,12.1,6.49,0,14.74-.88,21.23-3.08l.11,12.98c-5.94,2.53-13.42,3.63-21.67,3.63-21.23,0-30.03-9.24-30.03-30.36ZM403.27,897.48v-2.42c0-7.26-3.19-10.12-9.57-10.12-7.59,0-11.55,4.07-11.99,12.54h21.56Z"/>
      <path class="st1" d="M428.13,872.29h12.76l2.64,12.87c3.96-13.53,13.31-13.97,17.93-13.97,13.86,0,21.01,8.25,21.01,24.53l-.11,35.75h-16.17l.11-34.76c0-7.7-2.31-12.1-10.56-12.1-4.73,0-11.44,2.53-11.44,12.21l-.11,34.65h-16.17l.11-59.18Z"/>
      <path class="st1" d="M491.6,902.43c0-20.9,9.24-31.13,28.38-31.13,15.73,0,25.08,6.05,25.08,25.08,0,4.73-.66,10.56-.66,10.78h-36.3c.11,7.15,4.07,12.1,13.86,12.1,6.49,0,14.74-.88,21.23-3.08l.11,12.98c-5.94,2.53-13.42,3.63-21.67,3.63-21.23,0-30.03-9.24-30.03-30.36ZM529.55,897.48v-2.42c0-7.26-3.19-10.12-9.57-10.12-7.59,0-11.55,4.07-11.99,12.54h21.56Z"/>
      <path class="st1" d="M552.65,929.38l.22-13.31c5.72,1.98,15.62,3.41,20.24,3.41,5.83-.11,10.12-1.43,10.12-5.39,0-2.53-1.54-3.74-7.37-5.39-2.31-.66-5.83-1.76-8.69-2.64-9.57-3.19-14.08-7.59-14.08-16.94,0-11.22,9.46-17.93,23.65-17.93,8.25,0,15.73.99,20.57,3.19v12.87c-3.63-.88-12.65-2.97-19.58-2.97-5.28,0-8.8,1.65-8.8,4.73s2.31,3.63,6.82,4.95c3.08.99,6.49,1.98,8.58,2.64,9.79,3.19,14.41,7.81,14.41,17.27,0,11.55-8.03,18.92-25.63,18.92-7.26,0-14.63-.88-20.46-3.41Z"/>
      <path class="st1" d="M614.14,916.95v-31.57h-11.99v-13.09h11.99v-13.64h16.17v13.64h17.49v13.09h-17.49v28.93c0,3.08,2.31,4.18,5.72,4.18s9.46-1.1,11.77-1.87v13.2c-4.07,2.31-11.99,2.97-15.51,2.97-8.8,0-18.15-3.08-18.15-15.84Z"/>
      <path class="st1" d="M714.46,917.5v13.42c-4.07,1.87-7.59,1.87-10.45,1.87-8.58-.11-13.42-3.74-13.53-13.31-2.2,9.46-10.23,13.31-16.94,13.31-15.18,0-20.02-8.69-20.02-18.48,0-11.88,8.69-17.71,24.53-17.71h11.88v-1.98c0-7.04-3.85-10.01-12.32-10.01-6.05,0-14.19,1.65-20.57,4.18v-13.64c5.39-2.2,15.95-3.96,21.78-3.96,20.24,0,27.5,7.81,27.61,26.84v18.59c.22,1.21.77,2.09,2.2,2.09,3.3-.22,4.29-.55,5.83-1.21ZM690.15,906.72h-9.57c-5.17,0-11.55,1.76-11.66,7.04,0,3.3,1.65,6.71,8.47,6.71,7.48,0,12.76-4.51,12.76-11.99v-1.76Z"/>
      <path class="st1" d="M719.4,872.29h12.54l2.75,15.95c4.51-10.01,12.1-15.84,21.56-15.84l.22,15.51c-9.57.77-20.9,1.98-20.9,9.79l-.11,33.77h-16.17l.11-59.18Z"/>
    </g>
  </g>
  <g>
    <path class="st1" d="M613.62,290.9c.58,0,1.17,0,1.75-.03.4,0,.81,0,1.21-.04,23.64-1.97,40.45-15.32,47.34-37.58,5.13-16.59,1.82-33.58-9.34-47.84-9.6-12.28-22.82-19.29-38.22-20.29-9.86-.64-19.51,1.57-27.91,6.37-22.94,13.13-32.71,35.85-26.14,60.77,6.15,23.3,26.63,38.63,51.3,38.63h.01ZM599.88,211.46c3.96-2.27,8.48-3.44,13.17-3.44.61,0,1.22.02,1.83.06,8.8.57,16.06,4.44,21.59,11.51,6.56,8.39,8.4,17.43,5.48,26.87-4.11,13.3-12.64,20.11-26.82,21.42h-.36c-11.78.37-25.89-5.08-30.22-21.48-3.92-14.88,1.38-26.96,15.32-34.94h0Z"/>
    <path class="st1" d="M305.57,227.66c9.49,6.95,20.63,10.59,32.08,10.59,3.02,0,6.06-.25,9.1-.76,30.23-5.08,45.64-31.37,45.24-54.71-.26-15.04-6.55-29.6-17.27-39.94-10.2-9.83-23.68-15.09-38.04-14.82h-.29c-6.23-.26-12.48.96-19.72,3.85-19.07,7.61-37.22,30.78-33.3,58.72,2.07,14.73,10.16,28.24,22.2,37.06h0ZM325.2,153.24c3.81-1.52,6.88-2.24,9.59-2.24.21,0,.42,0,.63,0,.33,0,.66,0,.99,0,.24,0,.48,0,.72,0h.66c10.12,0,16.97,4.54,20.97,8.39,6.36,6.13,10.09,14.79,10.24,23.77.23,13.5-8.65,28.7-26.06,31.63-8.4,1.41-16.84-.61-23.78-5.7-7.06-5.18-11.81-13.09-13.02-21.71-2.21-15.74,7.95-29.73,19.05-34.16h.01Z"/>
    <path class="st1" d="M669.94,380.44h-.35c0-3.86,0-7.72.01-11.58.02-10.19.03-20.73-.05-31.12-.16-20.13-11.99-35.32-30.87-39.65-2.87-.66-5.41-.72-7.55-.72-3.81,0-7.63.02-11.44.04-7.8.05-15.87.1-23.68-.14-10.64-.33-20.09,3.23-28.9,10.92-5.85,5.1-11.3,10.54-16.57,15.79-2.38,2.37-4.84,4.83-7.27,7.18-6.57,6.36-13.1,9.08-21.14,8.78-9.95-.36-19.94-.26-29.61-.16-3.24.03-6.49.07-9.73.08-.11,0-.21-.02-.32-.02-1.39-.11-3.92-.28-6.85.63-11.37-13.94-22.7-28.15-33.71-41.97-8.85-11.11-18.01-22.6-27.11-33.86-11.02-13.64-25.52-20.43-43.06-20.29-23.75.23-48.22.24-72.71.02h-.46c-27.02,0-52.89,21.82-56.63,47.86-.43,2.99-.96,6.71-.96,10.64-.02,30.64,0,61.28,0,91.92,0,17.82,13.94,32.08,31.73,32.46.91.02,1.81.02,2.71.03v.49c0,10.42.02,20.84.04,31.25.05,37.71.11,76.7-.1,115.03-.07,12.97,6.41,24.65,17.34,31.23,5.92,3.57,12.66,5.37,19.41,5.37,6.1,0,12.21-1.47,17.72-4.42,3.04-1.62,5.45-3.65,7.47-5.52,6.99,6.39,15.18,9.63,24.19,9.63,4.48,0,9.15-.8,13.98-2.41,15.26-5.08,23.47-21.74,23.45-34.84-.08-46.15-.08-93.07-.09-138.45,0-31.33-.01-62.65-.04-93.98,4.3,5.35,8.6,10.72,12.8,15.96,6.29,7.85,12.79,15.98,19.24,23.94l.54.67c2.56,3.18,5.75,7.13,10.2,10.05,7.79,5.11,17.15,5.69,26.37,1.64.41-.18.8-.37,1.18-.56,7.46,3.82,15.07,4.52,21.3,4.52.51,0,1.02,0,1.51-.01,14.18-.23,28.26-.14,40.17-.03h.56c11.73,0,22.13-3.51,31-10.41-.02,4.8-.01,9.6,0,14.29v10.05c-3.63,0-7.27.04-10.9.06-9.77.07-19.88.15-29.71-.14-27.57-.81-34.23,14.08-38.7,29.38-2.14,7.32-4.38,14.77-6.54,21.97-2.16,7.18-4.39,14.61-6.54,21.96-2.14,7.34-4.4,14.81-6.59,22.04-4.01,13.27-8.16,26.99-11.83,40.68-4.85,18.07,2.98,33.81,19.93,40.11,4.02,1.49,8.11,2.2,12.11,2.2,13.25,0,25.48-7.79,30.54-20.7,2.9-7.39,4.96-14.86,6.95-22.08.93-3.39,1.82-6.58,2.78-9.78,5.64-18.68,11.26-37.75,16.72-56.68h15.81c-.55,4.51-.84,9.1-.84,13.75,0,62.35,50.72,113.07,113.07,113.07s113.08-50.73,113.08-113.07-50.73-113.07-113.08-113.07l.02-.03ZM681.44,404.17c20.24,2.59,38.39,11.92,52.14,25.66l-52.14,42.05v-67.72h0ZM747.66,448.03c5.92,10.07,9.93,21.38,11.55,33.45-11.95.16-35.47.18-53.27.2l41.72-33.64h0ZM454.72,372.34c-.21-.1-.38-.21-.53-.31-1.42-.93-3.2-3.13-4.91-5.26l-.56-.7c-6.41-7.91-12.89-16.01-19.16-23.84-5.96-7.44-12.11-15.13-18.22-22.68-4.56-5.64-10.12-9.34-17-11.32-5.37-1.54-10.94,1-13.4,5.79-3.45,5.5-5.15,11.65-5.14,18.81.03,33.93.04,67.86.04,101.79,0,45.39.01,92.32.09,138.49,0,5.25-3.81,11.68-7.72,12.98-8.49,2.83-12.76.19-15.82-2.77-.43-.42-.84-.85-1.25-1.29-.66-.69-1.41-1.47-2.25-2.27.01-47.4.01-94.79.01-142.19v-25.33c0-6.35-5.15-11.5-11.5-11.5s-11.5,5.15-11.5,11.5v25.33c0,47.43,0,94.86-.01,142.28-1.01.89-1.93,1.78-2.81,2.62-1.52,1.46-2.95,2.84-4.09,3.45-4.51,2.41-10.04,2.27-14.41-.36-2.34-1.41-6.25-4.76-6.21-11.41.21-38.41.15-77.44.1-115.19-.01-10.41-.03-20.83-.04-31.24,0-3.18-.08-6.34-.16-9.39-.11-4.26-.21-8.28-.12-12.31.54-22.29.45-44.88.36-66.73-.03-7.98-.06-15.97-.06-23.96v-.78c.04-2.1.09-5.27-1.26-8.82-2.27-5.93-8.92-8.9-14.85-6.63-5.7,2.18-8.67,8.41-6.87,14.16v.89c0,.4-.01.8-.01,1.2,0,8.01.03,16.02.06,24.04.08,21.29.16,43.29-.33,64.87-.65,0-1.31,0-1.96-.02-5.43-.12-9.22-4.01-9.23-9.47v-91.9c0-2.29.37-4.88.73-7.39,2.12-14.79,18.21-28.13,33.86-28.13h.25c24.64.22,49.24.22,73.14-.02,10.57-.11,18.29,3.52,24.95,11.75,9.05,11.19,18.17,22.65,27,33.73,10.92,13.71,22.17,27.81,33.49,41.7-2.72,5.85-3.63,11.81-2.71,17.81v.02ZM532.32,373.82c-12.05-.11-26.32-.2-40.75.03-6.33.1-10.01-.64-13.14-2.65-.15-.09-.32-.21-.52-.33-.03-.13-.06-.27-.1-.39-.09-.38-.19-.77-.28-1.15-.3-1.38-.36-3.02.95-5.56.93-.2,2.03-.48,3.21-.94.34.02.71.03,1.12.03,3.31-.02,6.63-.05,9.94-.08,9.41-.1,19.13-.19,28.55.15,14.42.52,26.84-4.47,37.97-15.24,2.55-2.46,5.07-4.98,7.51-7.41,5.23-5.22,10.18-10.15,15.45-14.74,4.4-3.84,8.31-5.41,13.06-5.26,8.26.26,16.55.21,24.56.16,3.75-.02,7.5-.05,11.24-.04.94,0,1.91.01,2.46.14,8.56,1.96,12.93,7.82,13.01,17.41.08,10.28.06,20.77.05,30.9,0,4.68-.02,9.36-.01,14.05-23.69,4.99-44.67,17.42-60.38,34.72.29-1.66.44-3.42.45-5.32v-11.61c0-6.5-.02-13.21.03-19.79.06-7.53-1.93-13.68-6.08-18.81-3.37-4.16-9.04-5.34-13.7-3.22-.7-.01-1.41.03-2.12.15-5.8.97-9.8,4.26-12.65,7.01-5.57,5.4-11.86,7.87-19.82,7.81v-.02ZM541.43,456.77c-11.52-.43-18.09,4.29-21.25,15.26-5.56,19.29-11.29,38.73-17.04,57.78-1.04,3.46-2,6.94-2.93,10.31-1.92,6.96-3.74,13.53-6.19,19.8-1.96,5.01-7.77,7.36-13.23,5.33-4.09-1.52-7.97-4.2-5.73-12.59,3.58-13.34,7.67-26.89,11.63-39.98,2.2-7.28,4.48-14.8,6.65-22.25,2.12-7.26,4.34-14.64,6.49-21.78,2.18-7.25,4.43-14.74,6.59-22.15,1.26-4.32,2.82-8.98,4.84-10.78,1.7-1.52,5.45-2.21,11.11-2.05,10.24.29,20.56.22,30.54.15,4.09-.03,8.17-.06,12.26-.07,3.78,0,7.07-.6,9.89-1.71-4.98,7.66-9.06,15.95-12.08,24.73h-21.57.02ZM669.94,583.59c-49.67,0-90.07-40.41-90.07-90.07,0-45.77,34.32-83.68,78.57-89.34v89.07c0,6.35,5.15,11.5,11.5,11.5.56,0,1.1-.05,1.64-.13.56.08,1.13.13,1.71.13h.08c6.55-.04,17.54-.05,30.27-.06,30.61-.02,46.84-.07,55.71-.2-5.43,44.52-43.45,79.11-89.41,79.11h0Z"/>
  </g>
</svg>