<?xml version="1.0" encoding="UTF-8"?>
<svg id="Capa_1" xmlns="http://www.w3.org/2000/svg" version="1.1" viewBox="0 0 1024 1024">
  <!-- Generator: Adobe Illustrator 29.8.1, SVG Export Plug-In . SVG Version: 2.1.1 Build 2)  -->
  <defs>
    <style>
      .st0 {
        fill: #2e3b2b;
      }

      .st1 {
        isolation: isolate;
      }
    </style>
  </defs>
  <g class="st1">
    <g class="st1">
      <path class="st0" d="M316.92,737.27h22.11l21.01,54.01,21.12-54.01h22.11v79.2h-17.05v-52.25l-17.93,45.65h-16.39l-17.93-45.65v52.25h-17.05v-79.2Z"/>
      <path class="st0" d="M415.04,733.86h18.04v16.61h-18.04v-16.61ZM415.92,757.29h16.17v59.18h-16.17v-59.18Z"/>
      <path class="st0" d="M443.2,757.29h12.76l2.64,12.87c3.96-13.53,13.31-13.97,17.93-13.97,13.86,0,21.01,8.25,21.01,24.53l-.11,35.75h-16.17l.11-34.76c0-7.7-2.31-12.1-10.56-12.1-4.73,0-11.44,2.53-11.44,12.21l-.11,34.65h-16.17l.11-59.18Z"/>
      <path class="st0" d="M506.67,787.43c0-20.9,9.24-31.13,28.38-31.13,15.73,0,25.08,6.05,25.08,25.08,0,4.73-.66,10.56-.66,10.78h-36.3c.11,7.15,4.07,12.1,13.86,12.1,6.49,0,14.74-.88,21.23-3.08l.11,12.98c-5.94,2.53-13.42,3.63-21.67,3.63-21.23,0-30.03-9.24-30.03-30.36ZM544.62,782.48v-2.42c0-7.26-3.19-10.12-9.57-10.12-7.59,0-11.55,4.07-11.99,12.54h21.56Z"/>
      <path class="st0" d="M569.48,757.29h12.54l2.75,15.95c4.51-10.01,12.1-15.84,21.56-15.84l.22,15.51c-9.57.77-20.9,1.98-20.9,9.79l-.11,33.77h-16.17l.11-59.18Z"/>
      <path class="st0" d="M610.39,787.1c0-23.21,11.55-30.8,29.04-30.8s28.6,8.8,28.6,30.8c0,23.21-12.1,30.69-28.6,30.69-17.6,0-29.04-8.03-29.04-30.69ZM651.42,786.99c0-11.77-3.63-17.82-11.99-17.82s-12.54,5.17-12.54,17.93,4.4,17.71,12.43,17.71c8.8,0,12.1-6.38,12.1-17.82Z"/>
      <path class="st0" d="M677.49,778.85h34.76v11.77h-34.87l.11-11.77Z"/>
    </g>
    <g class="st1">
      <path class="st0" d="M208.46,872.29h13.31l1.98,12.87c3.85-13.75,13.53-13.97,18.37-13.97,9.24,0,15.18,4.51,17.05,14.63,3.52-13.53,14.41-14.63,19.36-14.63,13.64,0,20.35,8.25,20.35,24.53v35.75h-16.17v-34.76c0-7.7-1.76-12.1-9.9-12.1-4.84,0-11.11,2.42-11.11,12.21v34.65h-16.17v-34.76c0-7.7-1.65-12.1-9.79-12.1-5.17,0-11.22,2.53-11.22,12.21v34.65h-16.17l.11-59.18Z"/>
      <path class="st0" d="M306.91,902.43c0-20.9,9.24-31.13,28.38-31.13,15.73,0,25.08,6.05,25.08,25.08,0,4.73-.66,10.56-.66,10.78h-36.3c.11,7.15,4.07,12.1,13.86,12.1,6.49,0,14.74-.88,21.23-3.08l.11,12.98c-5.94,2.53-13.42,3.63-21.67,3.63-21.23,0-30.03-9.24-30.03-30.36ZM344.86,897.48v-2.42c0-7.26-3.19-10.12-9.57-10.12-7.59,0-11.55,4.07-11.99,12.54h21.56Z"/>
      <path class="st0" d="M374.67,916.95v-31.57h-11.99v-13.09h11.99v-13.64h16.17v13.64h17.49v13.09h-17.49v28.93c0,3.08,2.31,4.18,5.72,4.18s9.46-1.1,11.77-1.87v13.2c-4.07,2.31-11.99,2.97-15.51,2.97-8.8,0-18.15-3.08-18.15-15.84Z"/>
      <path class="st0" d="M473.89,917.5v13.42c-4.07,1.87-7.59,1.87-10.45,1.87-8.58-.11-13.42-3.74-13.53-13.31-2.2,9.46-10.23,13.31-16.94,13.31-15.18,0-20.02-8.69-20.02-18.48,0-11.88,8.69-17.71,24.53-17.71h11.88v-1.98c0-7.04-3.85-10.01-12.32-10.01-6.05,0-14.19,1.65-20.57,4.18v-13.64c5.39-2.2,15.95-3.96,21.78-3.96,20.24,0,27.5,7.81,27.61,26.84v18.59c.22,1.21.77,2.09,2.2,2.09,3.3-.22,4.29-.55,5.83-1.21ZM449.58,906.72h-9.57c-5.17,0-11.55,1.76-11.66,7.04,0,3.3,1.65,6.71,8.47,6.71,7.48,0,12.76-4.51,12.76-11.99v-1.76Z"/>
      <path class="st0" d="M477.74,918.93v-69.96h15.95v66.44c0,1.87.99,3.3,3.74,3.3,3.08,0,6.16-.55,7.7-1.21v13.42c-4.73,1.54-8.91,1.87-11.77,1.87-8.69-.11-15.62-3.85-15.62-13.86Z"/>
      <path class="st0" d="M571.57,917.5v13.42c-4.07,1.87-7.59,1.87-10.45,1.87-8.58-.11-13.42-3.74-13.53-13.53-3.63,12.54-13.09,13.53-17.6,13.53-13.86,0-20.79-8.36-20.79-24.75v-35.75h16.17v34.76c0,7.7,2.2,12.1,10.34,12.1,5.06,0,11.66-2.86,11.66-12.54v-34.21h16.17v43.01c0,1.76.22,3.3,2.2,3.3,3.3-.22,4.29-.55,5.83-1.21ZM542.75,844.35h18.7l-19.58,20.57h-11.99l12.87-20.57Z"/>
      <path class="st0" d="M573.44,872.29h12.54l2.75,15.95c4.51-10.01,12.1-15.84,21.56-15.84l.22,15.51c-9.57.77-20.9,1.98-20.9,9.79l-.11,33.77h-16.17l.11-59.18Z"/>
      <path class="st0" d="M632.29,932.68c-17.71,0-23.65-12.43-23.65-30.58,0-15.29,3.52-30.91,23.65-30.91,5.61,0,15.07,2.53,16.83,13.97l2.75-12.87h12.87v62.81c0,13.09-10.01,18.37-28.49,18.37-7.92,0-19.36-1.65-24.53-3.85v-13.31c4.95,1.43,14.41,4.18,25.63,4.18h.44c3.19,0,10.67-.11,10.67-4.62v-13.42c-2.31,4.4-6.82,10.23-16.17,10.23ZM648.46,907.38v-10.45c0-7.37-4.51-11.88-11.22-11.88-10.34,0-12.21,6.71-12.21,16.94v.66c0,10.78,2.64,16.39,11.99,16.39,7.15,0,11.44-5.94,11.44-11.66Z"/>
      <path class="st0" d="M673.75,848.86h18.04v16.61h-18.04v-16.61ZM674.63,872.29h16.17v59.18h-16.17v-59.18Z"/>
      <path class="st0" d="M699.16,901.66c0-17.71,7.59-30.36,29.04-30.36,8.36,0,14.41,1.21,18.37,3.08l-.11,13.53c-6.16-2.09-11.55-2.75-15.51-2.75-11.44,0-15.51,6.6-15.51,16.83,0,10.78,3.41,16.94,14.3,16.94,2.86,0,10.45-.55,16.94-2.75v13.31c-4.51,2.31-11.11,3.3-17.16,3.3-17.93,0-30.36-6.82-30.36-31.13Z"/>
      <path class="st0" d="M753.28,902.1c0-23.21,11.55-30.8,29.04-30.8s28.6,8.8,28.6,30.8c0,23.21-12.1,30.69-28.6,30.69-17.6,0-29.04-8.03-29.04-30.69ZM794.31,901.99c0-11.77-3.63-17.82-11.99-17.82s-12.54,5.17-12.54,17.93,4.4,17.71,12.43,17.71c8.8,0,12.1-6.38,12.1-17.82Z"/>
    </g>
  </g>
  <g>
    <path class="st0" d="M727.24,300.17c-6.41-7.61-106.57-127.85-107.58-129.07-3.79-4.56-10.43-5.48-15.33-2.13-3.42,2.34-7.77,5.39-12.8,8.93-13.26,9.31-31.09,21.83-41.65,27.96-24.85-34.6-54.27-75.83-77.69-108.74-3.68-5.18-10.86-6.39-16.04-2.7-.23.16-.44.34-.65.51-1.59.43-3.12,1.2-4.46,2.35-6.29,5.37-10.93,12.03-15.02,17.91-.81,1.16-1.62,2.33-2.44,3.47-11.81,16.54-51.07,70.56-77.04,106.31-8.66,11.92-15.81,21.76-19.92,27.43-1.73,2.38-3.48,4.74-5.23,7.11-4.08,5.49-8.27,11.14-12.18,17.09-5.95,1.18-10,6.82-9.14,12.9.82,5.74,5.74,9.88,11.37,9.88.51,0,1.03-.03,1.54-.1.12,0,.25-.01.37-.02,2.23-.11,9.02-.46,13.41-7.45,3.96-6.29,8.39-12.27,13.08-18.59,1.8-2.43,3.61-4.86,5.38-7.31,4.11-5.66,11.25-15.5,19.91-27.41,26-35.78,65.28-89.84,77.15-106.45.87-1.22,1.73-2.45,2.59-3.69,1.92-2.75,3.78-5.42,5.71-7.83,30.64,43.04,116.96,164.07,123.44,171.01,2.26,2.42,5.33,3.65,8.41,3.65,2.81,0,5.63-1.03,7.85-3.1,4.62-4.32,4.89-11.56.6-16.2-2.58-2.95-17.51-23.44-37.54-51.25,11.44-6.86,27.86-18.38,41.38-27.88,1.38-.97,2.71-1.91,3.99-2.8,22.89,27.48,95.37,114.48,100.91,121.07,2.27,2.7,5.53,4.09,8.8,4.09,2.62,0,5.25-.89,7.4-2.7,4.86-4.09,5.48-11.35,1.39-16.2l.03-.05Z"/>
    <path class="st0" d="M661.64,618.18c-2.64-.45-5.04-.43-6.96-.42h-.96c-2.53,0-9.61,0-20.08-.02-10.13-.01-23.04-.03-37.85-.05,3.3-4.59,5.8-9.8,7.27-15.41.63,0,1.27,0,1.92.02,1.3.01,2.59.03,3.88.02,11.84-.1,16.69-3.64,20.77-15.15,1.69-4.79,2.83-9.5,3.93-14.06.25-1.02.49-2.03.74-3.04,5.2-21.04,10.88-42.38,16.36-63.02,3.54-13.33,7.21-27.12,10.72-40.73.62-2.42,1.29-4.83,1.95-7.24,2.53-9.2,5.15-18.72,5.86-29.07.22-3.17-.89-6.29-3.05-8.62-2.17-2.33-5.2-3.66-8.38-3.67l-20.64-.07c-5.28-6.54-17.35-22.63-29.07-38.28-23.21-30.96-49.51-66.06-59.11-75.84-2.36-2.4-5.74-3.68-9.1-3.44-5.73.41-8.77,4.18-14.29,11.03-2.95,3.66-6.88,8.72-11.67,15.03-3.41,4.49-6.8,9.01-9.58,12.74-7.56-5.22-14.77-9.48-21.88-7.89-7.79,1.74-12.31,7.25-15.3,10.9-.71.87-1.38,1.69-1.96,2.29-3.9,4.1-7.63,8.33-11.25,12.43-3.58,4.06-7.04,7.95-10.58,11.68-8-8.96-14.46-15.97-16.57-17.7-2.8-2.29-8.63-7.06-16.02-6.02-5.71.79-9.22,4.49-12.11,7.52-50.71,53.27-56.29,60.19-57.49,64.49l-31.53-.11h-.04c-5.59,0-10.37,4.02-11.33,9.53-.51,2.91.13,5.79,1.62,8.14,1.75,4.56,6.98,22.94,12.05,40.74,3.33,11.69,7.05,24.76,10.88,37.85.01.04.02.08.04.13,4.06,13.88,8.24,27.78,12.2,40.08,4.31,13.37,7.87,23.36,10.9,30.56,3.34,7.95,7.92,18.82,18.05,18.82h.2c2.01-.03,4.07-.03,6.11-.02,1.47,5.62,3.97,10.82,7.28,15.41-37.34.09-65.35.27-72.48.58-6.35.27-11.27,5.64-11,11.98.26,6.18,5.36,11.01,11.48,11.01.17,0,.33,0,.5-.01,14.59-.62,124.79-.8,327.56-.51,10.49.01,17.57.02,20.11.03h1.14c1.18-.01,2.29-.02,2.93.08,6.25,1.06,12.2-3.15,13.26-9.41,1.07-6.26-3.15-12.2-9.41-13.27l-.02-.02ZM533.84,590.39c0-13.17,10.71-23.88,23.88-23.88s23.88,10.71,23.88,23.88-10.71,23.88-23.88,23.88-23.88-10.71-23.88-23.88ZM471.15,371.82c3.63-4.11,7.05-8,10.65-11.78,1.16-1.22,2.18-2.46,3.08-3.56.44-.54.99-1.21,1.51-1.8,2.52,1.5,5.94,3.9,7.87,5.25,3.64,2.56,5.81,4.06,7.9,5.03,4.96,2.3,10.86.79,14.1-3.62,8.34-11.34,17.9-24.02,24.38-32.28,12.33,15.17,32.97,42.71,48.99,64.08,7.33,9.78,13.42,17.9,18.33,24.38l-122.11-.44c-5.21-6.09-16.14-18.78-27.26-31.49,4.4-4.54,8.53-9.22,12.55-13.78h.01ZM413.56,369.75c6.37,6.58,27.04,30.11,41.89,47.23l-85.79-.31c8.21-9.15,22.89-24.83,43.9-46.92ZM354.86,539.43c-1.86-5.92-3.77-12.17-5.68-18.54h230.59c6.35,0,11.5-5.15,11.5-11.5s-5.15-11.5-11.5-11.5h-237.36c-2.13-7.34-4.2-14.58-6.15-21.44h243.51c6.35,0,11.5-5.15,11.5-11.5s-5.15-11.5-11.5-11.5h-250.06c-1.49-5.2-2.85-9.89-4.05-13.93l318.67,1.14c-.91,4.03-2.03,8.11-3.18,12.31-.69,2.53-1.39,5.05-2.04,7.59-3.49,13.53-7.15,27.28-10.68,40.57-5.51,20.73-11.21,42.17-16.46,63.41-.26,1.06-.52,2.12-.77,3.18-.99,4.1-1.92,7.98-3.19,11.6-.94,0-1.85,0-2.78-.02-.64,0-1.31-.01-1.98-.02-5-20.5-23.52-35.76-45.53-35.76s-40.55,15.28-45.54,35.79h-8.7c-10,.01-20.34.03-30.49-.05-1.59-.01-3.27-.11-5.06-.22-2.17-.13-4.48-.26-6.9-.26-5.18-20.26-23.58-35.28-45.42-35.28s-40.53,15.27-45.54,35.77h-.86c-2.17-4.39-6.5-14.89-14.35-39.85h0ZM439.49,590.39c0,13.17-10.71,23.88-23.88,23.88s-23.88-10.71-23.88-23.88,10.71-23.88,23.88-23.88,23.88,10.71,23.88,23.88ZM453.74,617.6c3.37-4.7,5.89-10.05,7.34-15.82,1.69,0,3.52.1,5.49.22,1.99.12,4.06.24,6.23.26,6.11.05,12.27.06,18.38.06,4.14,0,8.26,0,12.32-.01h8.87c1.47,5.58,3.94,10.75,7.21,15.31-21.59-.01-44-.02-65.85-.01h0Z"/>
  </g>
</svg>