<?xml version="1.0" encoding="UTF-8"?>
<svg id="Capa_1" xmlns="http://www.w3.org/2000/svg" version="1.1" viewBox="0 0 1024 1024">
  <!-- Generator: Adobe Illustrator 29.8.1, SVG Export Plug-In . SVG Version: 2.1.1 Build 2)  -->
  <defs>
    <style>
      .st0 {
        fill: #2e3b2b;
      }

      .st1 {
        isolation: isolate;
      }
    </style>
  </defs>
  <g>
    <path class="st0" d="M785.82,201.59c-10.69-28.75-29.89-52.29-57.05-69.98-20.17-13.14-42.1-21.34-65.18-24.37-35.1-4.61-68.72,1.78-99.91,18.99-20.71,11.42-38.1,27.16-51.75,46.82-3.17-4.06-6.44-8.14-8.53-10.51-16.26-18.44-35.56-32.83-57.34-42.76-13.76-6.27-27.61-10.4-41.17-12.28-14.48-2-29.26-2.11-43.92-.33-28.11,3.42-53.85,14-76.51,31.46-27.56,21.24-45.24,49.38-52.52,83.64-6.09,28.64-4.31,57.97,5.45,89.68,9.97,32.39,27.11,63.83,53.94,98.95,13.08,17.12,27.22,32.69,40.55,46.96,18.5,19.81,37.84,38.84,54.52,55.13,35.73,34.9,116.84,117,117.65,117.83,2.2,2.23,5.17,3.42,8.18,3.42,1.44,0,2.9-.27,4.29-.83,2.38-.96,4.32-2.66,5.58-4.77,4.64-5.66,36.77-38.6,54.49-55.58,14.83-14.2,29.52-28.94,43.72-43.19,10.25-10.29,20.86-20.92,31.39-31.23,31.1-30.45,53.69-54.81,73.24-79,31.48-38.95,51.3-74,62.35-110.3,11.53-37.86,11.04-74.11-1.47-107.73v-.02ZM765.29,302.62c-10.17,33.38-28.67,65.97-58.24,102.54-18.97,23.46-41,47.22-71.44,77.02-10.63,10.41-21.28,21.09-31.58,31.43-14.11,14.16-28.71,28.8-43.34,42.82-8.79,8.42-22.69,22.3-35.43,35.36-5.3,5.44-9.93,10.25-13.52,14.07-22.02-22.26-80.37-81.12-109.27-109.34-16.5-16.11-35.61-34.92-53.78-54.37-12.92-13.84-26.6-28.89-39.08-45.22-25.13-32.89-41.09-62.04-50.23-91.75-8.58-27.87-10.19-53.43-4.94-78.13,6.12-28.77,20.94-52.39,44.06-70.2,19.61-15.11,40.96-23.89,65.25-26.85,5.98-.73,11.98-1.09,17.96-1.09,6.71,0,13.41.46,20.03,1.37,11.35,1.57,23.05,5.08,34.78,10.42,18.82,8.58,35.52,21.05,49.63,37.05,3.77,4.28,13.35,16.79,16.72,21.25,2.16,2.86,5.53,4.54,9.11,4.56h.07c3.56,0,6.91-1.65,9.09-4.46l7.25-9.36c.18-.23.35-.47.51-.72,11.89-18.06,27.33-32.41,45.89-42.65,26.81-14.79,55.68-20.28,85.81-16.32,19.64,2.58,38.35,9.59,55.62,20.84,23.27,15.15,38.98,34.37,48.05,58.73,10.86,29.19,11.2,59.62,1.03,93.01h-.01Z"/>
    <path class="st0" d="M615.13,312.01h-50.93c-.01-9.81-.01-19.62,0-29.44v-24.51c0-3.89,0-10.39-4.82-15.19-4.8-4.79-11.29-4.79-15.17-4.79h-68.62c-.93-.02-1.88.06-2.83.28-5.75,1.29-10.04,4.86-12.1,10.05-1.38,3.5-1.38,6.91-1.38,9.17v54.43h-50.44c-13.07,0-19.98,6.92-19.98,19.98,0,6.17,0,12.35.02,18.52.03,14.86.06,30.22-.12,45.29-.09,7.56,2.99,12.22,5.59,14.8,2.59,2.57,7.25,5.59,14.73,5.46,13.06-.25,26.42-.21,39.33-.16,3.62.01,7.25.03,10.88.03.01,9.91.01,19.83,0,29.74v24.2c.01,13.26,6.73,19.98,19.99,19.98h65.44c12.72,0,19.46-6.74,19.48-19.47,0-4.26.02-8.52.03-12.78.04-13.65.08-27.73-.07-41.68,17.16.02,34.33,0,51.49,0,13.25,0,19.98-6.73,19.98-19.98,0-21.15.01-42.3,0-63.45,0-13.78-6.71-20.48-20.48-20.48h-.02ZM561.2,392.92c-2.64,0-9.65-.01-14.89,5.29-3.53,3.57-5.28,8.57-5.2,14.86.19,14.79.15,29.88.1,44.47,0,3.11-.02,6.21-.02,9.32h-58.91v-21.18c0-11.09,0-22.18-.01-33.27-.02-12.73-6.76-19.46-19.48-19.47-4.77,0-9.54-.02-14.32-.04-12.01-.04-24.4-.08-36.7.11.14-14.23.12-28.6.09-42.54,0-5.15-.02-10.31-.02-15.46h49.43c5.07,0,11.37,0,16.18-4.81s4.81-11.11,4.81-16.18v-52.94h58.92v21.49c0,10.99,0,21.98.01,32.97.02,12.91,6.58,19.46,19.47,19.47h51.95c.01,19.31,0,38.61,0,57.92-17.14,0-34.28.01-51.42,0h.01Z"/>
  </g>
  <g class="st1">
    <g class="st1">
      <path class="st0" d="M369.39,850.01l.11-15.07c5.39,1.54,16.61,4.84,26.29,4.84,7.26,0,14.08-2.2,14.08-8.91,0-4.73-1.65-6.49-7.48-8.36l-16.17-5.28c-10.56-3.41-15.73-10.23-15.73-20.68,0-16.17,11.44-23.65,29.15-23.65,4.84,0,17.49.66,25.52,4.18v14.74c-6.71-2.64-18.04-4.07-25.41-4.07-6.71,0-12.21,2.09-12.21,8.14,0,4.62,2.53,6.38,8.58,8.36l13.75,4.51c12.54,4.07,17.05,9.57,17.05,21.78,0,16.17-12.21,24.09-32.23,24.09-7.81,0-18.81-1.54-25.3-4.62Z"/>
      <path class="st0" d="M494.9,839.34v13.42c-4.07,1.87-7.59,1.87-10.45,1.87-8.58-.11-13.42-3.74-13.53-13.31-2.2,9.46-10.23,13.31-16.94,13.31-15.18,0-20.02-8.69-20.02-18.48,0-11.88,8.69-17.71,24.53-17.71h11.88v-1.98c0-7.04-3.85-10.01-12.32-10.01-6.05,0-14.19,1.65-20.57,4.18v-13.64c5.39-2.2,15.95-3.96,21.78-3.96,20.24,0,27.5,7.81,27.61,26.84v18.59c.22,1.21.77,2.09,2.2,2.09,3.3-.22,4.29-.55,5.83-1.21ZM470.59,828.56h-9.57c-5.17,0-11.55,1.76-11.66,7.04,0,3.3,1.65,6.71,8.47,6.71,7.48,0,12.76-4.51,12.76-11.99v-1.76Z"/>
      <path class="st0" d="M498.75,840.77v-69.96h15.95v66.44c0,1.87.99,3.3,3.74,3.3,3.08,0,6.16-.55,7.7-1.21v13.42c-4.73,1.54-8.91,1.87-11.77,1.87-8.69-.11-15.62-3.85-15.62-13.86Z"/>
      <path class="st0" d="M592.58,839.34v13.42c-4.07,1.87-7.59,1.87-10.45,1.87-8.58-.11-13.42-3.74-13.53-13.53-3.63,12.54-13.09,13.53-17.6,13.53-13.86,0-20.79-8.36-20.79-24.75v-35.75h16.17v34.76c0,7.7,2.2,12.1,10.34,12.1,5.06,0,11.66-2.86,11.66-12.54v-34.21h16.17v43.01c0,1.76.22,3.3,2.2,3.3,3.3-.22,4.29-.55,5.83-1.21Z"/>
      <path class="st0" d="M594.78,824.93c0-19.69,5.72-32.01,25.08-31.9,11,.11,14.63,7.48,14.85,8.47v-30.8l16.28.11-.11,82.5h-12.87l-2.75-13.09c-2.42,11.77-11.55,14.41-17.05,14.41-17.16,0-23.43-11.55-23.43-29.7ZM634.6,828.45v-10.23c0-7.04-3.3-11.33-10.23-11.33-10.78-.11-13.2,6.38-13.2,18.04.11,7.92,1.1,15.95,11.66,15.95,7.04,0,11.77-4.51,11.77-12.43Z"/>
    </g>
  </g>
</svg>