<?xml version="1.0" encoding="UTF-8"?>
<svg id="Capa_1" xmlns="http://www.w3.org/2000/svg" version="1.1" viewBox="0 0 1024 1024">
  <!-- Generator: Adobe Illustrator 29.8.1, SVG Export Plug-In . SVG Version: 2.1.1 Build 2)  -->
  <defs>
    <style>
      .st0 {
        isolation: isolate;
      }

      .st1 {
        fill: #cbcabe;
      }
    </style>
  </defs>
  <g class="st0">
    <g class="st0">
      <path class="st1" d="M258.13,814.17l.11-15.07c5.39,1.54,16.61,4.84,26.29,4.84,7.26,0,14.08-2.2,14.08-8.91,0-4.73-1.65-6.49-7.48-8.36l-16.17-5.28c-10.56-3.41-15.73-10.23-15.73-20.68,0-16.17,11.44-23.65,29.15-23.65,4.84,0,17.49.66,25.52,4.18v14.74c-6.71-2.64-18.04-4.07-25.41-4.07-6.71,0-12.21,2.09-12.21,8.14,0,4.62,2.53,6.38,8.58,8.36l13.75,4.51c12.54,4.07,17.05,9.57,17.05,21.78,0,16.17-12.21,24.09-32.23,24.09-7.81,0-18.81-1.54-25.3-4.62Z"/>
      <path class="st1" d="M322.81,788.43c0-20.9,9.24-31.13,28.38-31.13,15.73,0,25.08,6.05,25.08,25.08,0,4.73-.66,10.56-.66,10.78h-36.3c.11,7.15,4.07,12.1,13.86,12.1,6.49,0,14.74-.88,21.23-3.08l.11,12.98c-5.94,2.53-13.42,3.63-21.67,3.63-21.23,0-30.03-9.24-30.03-30.36ZM360.76,783.48v-2.42c0-7.26-3.19-10.12-9.57-10.12-7.59,0-11.55,4.07-11.99,12.54h21.56Z"/>
      <path class="st1" d="M401.9,818.68c-17.71,0-23.65-12.43-23.65-30.58,0-15.29,3.52-30.91,23.65-30.91,5.61,0,15.07,2.53,16.83,13.97l2.75-12.87h12.87v62.81c0,13.09-10.01,18.37-28.49,18.37-7.92,0-19.36-1.65-24.53-3.85v-13.31c4.95,1.43,14.41,4.18,25.63,4.18h.44c3.19,0,10.67-.11,10.67-4.62v-13.42c-2.31,4.4-6.82,10.23-16.17,10.23ZM418.07,793.38v-10.45c0-7.37-4.51-11.88-11.22-11.88-10.34,0-12.21,6.71-12.21,16.94v.66c0,10.78,2.64,16.39,11.99,16.39,7.15,0,11.44-5.94,11.44-11.66Z"/>
      <path class="st1" d="M506.4,803.5v13.42c-4.07,1.87-7.59,1.87-10.45,1.87-8.58-.11-13.42-3.74-13.53-13.53-3.63,12.54-13.09,13.53-17.6,13.53-13.86,0-20.79-8.36-20.79-24.75v-35.75h16.17v34.76c0,7.7,2.2,12.1,10.34,12.1,5.06,0,11.66-2.86,11.66-12.54v-34.21h16.17v43.01c0,1.76.22,3.3,2.2,3.3,3.3-.22,4.29-.55,5.83-1.21Z"/>
      <path class="st1" d="M510.25,758.29h12.54l2.75,15.95c4.51-10.01,12.1-15.84,21.56-15.84l.22,15.51c-9.57.77-20.9,1.98-20.9,9.79l-.11,33.77h-16.17l.11-59.18Z"/>
      <path class="st1" d="M550.83,734.86h18.04v16.61h-18.04v-16.61ZM551.71,758.29h16.17v59.18h-16.17v-59.18Z"/>
      <path class="st1" d="M576.25,789.09c0-19.69,5.72-32.01,25.08-31.9,11,.11,14.63,7.48,14.85,8.47v-30.8l16.28.11-.11,82.5h-12.87l-2.75-13.09c-2.42,11.77-11.55,14.41-17.05,14.41-17.16,0-23.43-11.55-23.43-29.7ZM616.07,792.61v-10.23c0-7.04-3.3-11.33-10.23-11.33-10.78-.11-13.2,6.38-13.2,18.04.11,7.92,1.1,15.95,11.66,15.95,7.04,0,11.77-4.51,11.77-12.43Z"/>
      <path class="st1" d="M701.86,803.5v13.42c-4.07,1.87-7.59,1.87-10.45,1.87-8.58-.11-13.42-3.74-13.53-13.31-2.2,9.46-10.23,13.31-16.94,13.31-15.18,0-20.02-8.69-20.02-18.48,0-11.88,8.69-17.71,24.53-17.71h11.88v-1.98c0-7.04-3.85-10.01-12.32-10.01-6.05,0-14.19,1.65-20.57,4.18v-13.64c5.39-2.2,15.95-3.96,21.78-3.96,20.24,0,27.5,7.81,27.61,26.84v18.59c.22,1.21.77,2.09,2.2,2.09,3.3-.22,4.29-.55,5.83-1.21ZM677.55,792.72h-9.57c-5.17,0-11.55,1.76-11.66,7.04,0,3.3,1.65,6.71,8.47,6.71,7.48,0,12.76-4.51,12.76-11.99v-1.76Z"/>
      <path class="st1" d="M704.06,789.09c0-19.69,5.72-32.01,25.08-31.9,11,.11,14.63,7.48,14.85,8.47v-30.8l16.28.11-.11,82.5h-12.87l-2.75-13.09c-2.42,11.77-11.55,14.41-17.05,14.41-17.16,0-23.43-11.55-23.43-29.7ZM743.88,792.61v-10.23c0-7.04-3.3-11.33-10.23-11.33-10.78-.11-13.2,6.38-13.2,18.04.11,7.92,1.1,15.95,11.66,15.95,7.04,0,11.77-4.51,11.77-12.43Z"/>
    </g>
    <g class="st0">
      <path class="st1" d="M280.46,918.5v13.42c-4.07,1.87-7.59,1.87-10.45,1.87-8.58-.11-13.42-3.74-13.53-13.31-2.2,9.46-10.23,13.31-16.94,13.31-15.18,0-20.02-8.69-20.02-18.48,0-11.88,8.69-17.71,24.53-17.71h11.88v-1.98c0-7.04-3.85-10.01-12.32-10.01-6.05,0-14.19,1.65-20.57,4.18v-13.64c5.39-2.2,15.95-3.96,21.78-3.96,20.24,0,27.5,7.81,27.61,26.84v18.59c.22,1.21.77,2.09,2.2,2.09,3.3-.22,4.29-.55,5.83-1.21ZM256.15,907.72h-9.57c-5.17,0-11.55,1.76-11.66,7.04,0,3.3,1.65,6.71,8.47,6.71,7.48,0,12.76-4.51,12.76-11.99v-1.76Z"/>
      <path class="st1" d="M285.41,919.93v-69.96h15.95v66.44c0,1.87.99,3.3,3.74,3.3,3.08,0,6.16-.55,7.7-1.21v13.42c-4.73,1.54-8.91,1.87-11.77,1.87-8.69-.11-15.62-3.85-15.62-13.86Z"/>
      <path class="st1" d="M317.31,849.86h18.04v16.61h-18.04v-16.61ZM318.19,873.29h16.17v59.18h-16.17v-59.18Z"/>
      <path class="st1" d="M345.58,873.29h13.31l1.98,12.87c3.85-13.75,13.53-13.97,18.37-13.97,9.24,0,15.18,4.51,17.05,14.63,3.52-13.53,14.41-14.63,19.36-14.63,13.64,0,20.35,8.25,20.35,24.53v35.75h-16.17v-34.76c0-7.7-1.76-12.1-9.9-12.1-4.84,0-11.11,2.42-11.11,12.21v34.65h-16.17v-34.76c0-7.7-1.65-12.1-9.79-12.1-5.17,0-11.22,2.53-11.22,12.21v34.65h-16.17l.11-59.18Z"/>
      <path class="st1" d="M445.13,903.43c0-20.9,9.24-31.13,28.38-31.13,15.73,0,25.08,6.05,25.08,25.08,0,4.73-.66,10.56-.66,10.78h-36.3c.11,7.15,4.07,12.1,13.86,12.1,6.49,0,14.74-.88,21.23-3.08l.11,12.98c-5.94,2.53-13.42,3.63-21.67,3.63-21.23,0-30.03-9.24-30.03-30.36ZM483.08,898.48v-2.42c0-7.26-3.19-10.12-9.57-10.12-7.59,0-11.55,4.07-11.99,12.54h21.56Z"/>
      <path class="st1" d="M507.94,873.29h12.76l2.64,12.87c3.96-13.53,13.31-13.97,17.93-13.97,13.86,0,21.01,8.25,21.01,24.53l-.11,35.75h-16.17l.11-34.76c0-7.7-2.31-12.1-10.56-12.1-4.73,0-11.44,2.53-11.44,12.21l-.11,34.65h-16.17l.11-59.18Z"/>
      <path class="st1" d="M579.11,917.95v-31.57h-11.99v-13.09h11.99v-13.64h16.17v13.64h17.49v13.09h-17.49v28.93c0,3.08,2.31,4.18,5.72,4.18s9.46-1.1,11.77-1.87v13.2c-4.07,2.31-11.99,2.97-15.51,2.97-8.8,0-18.15-3.08-18.15-15.84Z"/>
      <path class="st1" d="M679.43,918.5v13.42c-4.07,1.87-7.59,1.87-10.45,1.87-8.58-.11-13.42-3.74-13.53-13.31-2.2,9.46-10.23,13.31-16.94,13.31-15.18,0-20.02-8.69-20.02-18.48,0-11.88,8.69-17.71,24.53-17.71h11.88v-1.98c0-7.04-3.85-10.01-12.32-10.01-6.05,0-14.19,1.65-20.57,4.18v-13.64c5.39-2.2,15.95-3.96,21.78-3.96,20.24,0,27.5,7.81,27.61,26.84v18.59c.22,1.21.77,2.09,2.2,2.09,3.3-.22,4.29-.55,5.83-1.21ZM655.12,907.72h-9.57c-5.17,0-11.55,1.76-11.66,7.04,0,3.3,1.65,6.71,8.47,6.71,7.48,0,12.76-4.51,12.76-11.99v-1.76Z"/>
      <path class="st1" d="M684.37,873.29h12.54l2.75,15.95c4.51-10.01,12.1-15.84,21.56-15.84l.22,15.51c-9.57.77-20.9,1.98-20.9,9.79l-.11,33.77h-16.17l.11-59.18Z"/>
      <path class="st1" d="M726.06,849.86h18.04v16.61h-18.04v-16.61ZM726.94,873.29h16.17v59.18h-16.17v-59.18Z"/>
      <path class="st1" d="M813.4,918.5v13.42c-4.07,1.87-7.59,1.87-10.45,1.87-8.58-.11-13.42-3.74-13.53-13.31-2.2,9.46-10.23,13.31-16.94,13.31-15.18,0-20.02-8.69-20.02-18.48,0-11.88,8.69-17.71,24.53-17.71h11.88v-1.98c0-7.04-3.85-10.01-12.32-10.01-6.05,0-14.19,1.65-20.57,4.18v-13.64c5.39-2.2,15.95-3.96,21.78-3.96,20.24,0,27.5,7.81,27.61,26.84v18.59c.22,1.21.77,2.09,2.2,2.09,3.3-.22,4.29-.55,5.83-1.21ZM789.09,907.72h-9.57c-5.17,0-11.55,1.76-11.66,7.04,0,3.3,1.65,6.71,8.47,6.71,7.48,0,12.76-4.51,12.76-11.99v-1.76Z"/>
    </g>
  </g>
  <g>
    <path class="st1" d="M603.57,366.34c13.91,21.7,31.1,35.08,52.52,40.93,5.1,1.39,9.79,1.39,13.93,1.38h2.29c.92.04,1.83.06,2.74.06,15.91,0,30.44-6.01,45.46-18.77,22.73-19.3,36.08-46.36,40.82-82.72,3.57-27.33.26-53.8-9.81-78.66-10.78-26.61-26.91-44.95-49.29-56.08-21.18-10.53-43.38-9.81-64.2,2.06-25.59,14.59-42.12,38.31-50.53,72.51-3.76,15.31-5.33,30.2-4.66,44.25,1.53,31.96,7.92,55.1,20.71,75.04h.02ZM609.84,252.53c6.92-28.13,19.49-46.57,39.58-58.02,14.26-8.13,28.18-8.6,42.58-1.44,17.13,8.51,29.63,22.95,38.21,44.12,8.57,21.14,11.36,43.69,8.32,67.04-4.03,30.86-14.48,52.52-32.9,68.17-11.4,9.68-21.42,13.77-32.49,13.26-.18,0-.36-.01-.54-.01h-2.61c-3.08,0-5.74,0-7.85-.57-15.69-4.28-28.51-14.47-39.21-31.15-10.5-16.37-15.77-36.02-17.1-63.73-.57-11.83.78-24.5,4.02-37.66h-.01Z"/>
    <path class="st1" d="M766.11,397.49c-6.58-4.15-19.73-8.81-22.3-9.71-6-2.08-12.55,1.09-14.64,7.09-2.08,6,1.09,12.55,7.09,14.64,2.5.87,5.78,2.1,8.9,3.37-.45.16-.9.32-1.35.49-14.09,5.52-29.14,8.67-45.93,11.93-26.06,5.05-52.52,7.53-72.66,9.12-18.04,1.43-37.32,2.52-58.95,3.34-28.4,1.08-56.85.98-83.37.7-20.06-.21-40.22-1.39-60.84-2.7-27.9-1.77-49.08-3.67-68.68-6.17-19.99-2.55-46.11-6.65-70.91-15.79-.96-.35-1.99-.71-3.11-1.06.63-.26,1.27-.51,1.95-.76,13.16-4.65,27.05-7.76,38.92-10.2,13.27-2.72,28.04-4.96,46.47-7.03,7.68-.86,15.68-1.44,23.41-2l4.58-.33c3.49-.26,6.98-.53,10.47-.81,11.9-.95,23.23-1.85,34.61-1.96.27,5.9.13,11.65-.41,17.39-.6,6.32,4.04,11.94,10.36,12.54.37.04.74.05,1.1.05,5.86,0,10.87-4.46,11.44-10.41.65-6.87.82-13.75.49-20.77,15.17-.39,33.28-.58,35.01-.6,4.11.06,63.83.88,80.03.73,6.35-.06,11.45-5.25,11.4-11.6s-5.26-11.43-11.6-11.4c-16.16.15-79.01-.72-79.64-.73h-.27c-.99,0-19.33.19-35.09.59-.28-16.92-.28-33.79-.27-51.45v-5.18c1.23.08,2.44.12,3.65.12,12.86,0,24.48-4.15,33.65-7.43,27.97-10,47.82-27.1,58.98-50.82,6.64-14.1,10.35-29.71,11.04-46.38.2-4.87-.19-11.07-5-15.76-5.41-5.28-12.87-4.78-15.67-4.59-24.8,1.65-45.05,8.94-61.89,22.3-9.85,7.81-18.07,17.48-24.91,29.3l-.04-16.87c1.16-1.04,2.16-2.1,3.03-3.03,4.42-4.71,9.43-10.05,13.83-15.96,15.94-21.38,22-44.8,18-69.6-3.52-21.86-14.19-41.4-32.61-59.75-4.02-4.01-8.47-5.82-13.24-5.39-1.02-.03-2.07.08-3.11.34-6.35,1.58-10.39,5.58-12.8,7.97-10.8,10.68-19.18,23.05-24.91,36.75-10.73,25.67-9.62,51.29,3.3,76.15,6.36,12.24,15.53,21.99,23.65,29.91.58.56,1.19,1.16,1.85,1.77l.05,18.71c-15.24-27.15-38.4-43.98-69.01-50.08-6.02-1.2-11.97-1.88-18.04-2.53-6.04-.64-10.97.71-14.64,4.03-3.7,3.34-5.57,8.18-5.55,14.39.09,38.53,15.99,68.31,47.23,88.51,14.62,9.45,30.49,13.93,44.09,17.07,4.7,1.08,10.17,1.99,16.06,1.58v4.45c0,17.29-.02,35.06.28,52.68-12.28.12-24.44,1.09-36.25,2.03-3.44.27-6.89.55-10.33.8l-4.55.33c-7.96.57-16.19,1.17-24.33,2.08-19.14,2.15-34.56,4.49-48.53,7.36-12.63,2.59-27.48,5.93-41.95,11.04-4.08,1.44-7.62,3.13-10.82,5.17-6.1,3.88-13.08,11.84-11.75,27.74.69,8.24,3.37,16.09,5.15,21.29.38,1.12.86,2.51.99,3.01,8.1,39.34,27,75.73,56.19,108.17,17.26,19.18,38.13,35.49,63.82,49.88,8.91,4.99,18.13,9.06,26.06,12.48.21.09.46.19.73.31-.12,1.43-.12,2.69-.12,3.6,0,1.66-.04,3.32-.07,4.99-.12,5.16-.24,10.5.65,16.24,2.06,13.29,11.16,21.22,24.36,21.22h168.84c14.35,0,24.86-10.47,24.97-24.89l.02-2.01c.05-5.33.09-10.84-.04-16.35-.01-.5-.03-1.2-.09-2.02,3.58-1.33,6.68-2.54,8.46-3.38,35.97-16.92,66.36-40.13,90.32-68.97,25.27-30.43,41.72-64.23,48.9-100.46.66-3.31,1.88-12.51,2.48-21.17,1.03-14.94.29-23.32-6.58-27.66h-.01ZM476.38,258.4c6.44-14.74,14.62-25.9,25-34.14,12.17-9.65,26.94-15.24,45.06-17.03-.92,12.12-3.82,23.42-8.64,33.65-8.59,18.24-23.61,30.98-45.92,38.96-10.98,3.93-20.41,6.89-29.58,5.88l-.02-9.8c6.08-4.12,10.81-9.98,14.1-17.52h0ZM434.04,175.56c-9.77-18.79-10.58-37.32-2.49-56.67,4.52-10.81,11.14-20.59,19.68-29.08,12.98,13.83,20.54,28.25,23.07,43.95,2.97,18.43-1.65,35.99-13.74,52.19-2.9,3.9-6.26,7.64-9.64,11.27-6.35-6.36-12.58-13.39-16.88-21.66ZM428.44,285.54c-11.66-2.69-25.15-6.45-36.78-13.97-23.25-15.03-35.25-36.05-36.59-64.15,3.68.44,7.16.93,10.61,1.62,26.9,5.36,45.74,20.75,57.61,47.03,2.65,5.87,7.1,13.81,15.98,18.84l.03,11.48c-2.93.49-6.33.2-10.86-.85ZM703.63,532.08c-21.79,26.23-49.51,47.38-82.42,62.85-3.7,1.74-19.34,7.19-28.47,10.26-3.3.95-6.68,1.81-10.05,2.41-6.25,1.1-10.43,7.07-9.32,13.32,1.1,6.25,7.07,10.43,13.32,9.32,4.53-.8,8.94-1.95,13.02-3.13.02,3.4-.01,6.83-.04,10.18l-.02,2.02c-.02,2-.39,2.07-1.98,2.07-56.28.01-112.55.01-168.83,0-.58,0-.98-.05-1.23-.09-.11-.3-.27-.82-.4-1.65-.58-3.72-.48-7.84-.38-12.2,0-.25.01-.51.02-.77.42.12.84.25,1.27.38,4.85,1.46,10.35,3.11,16.69,3.11h.02c6.35,0,11.5-5.16,11.49-11.51,0-6.35-5.15-11.49-11.5-11.49h-.01c-2.96,0-6.26-.99-10.08-2.14-.87-.26-1.75-.52-2.64-.78-6.55-2.37-17.38-6.35-19.69-7.35-7.41-3.19-15.98-6.97-23.93-11.43-23.45-13.13-42.41-27.92-57.96-45.19-26.81-29.8-43.42-61.69-50.78-97.5-.33-1.62-.92-3.34-1.73-5.73-.06-.18-.11-.34-.17-.51,25.92,9.11,52.32,13.26,72.64,15.85,20.1,2.57,41.73,4.51,70.14,6.31,20.94,1.33,41.44,2.53,62.06,2.74,10.11.1,20.5.18,31.07.18,17.46,0,35.42-.22,53.41-.9,21.95-.83,41.54-1.94,59.89-3.4,20.74-1.64,48.03-4.2,75.22-9.47,16.53-3.21,31.54-6.34,46.25-11.7-.29,2.32-.59,4.31-.86,5.67-6.42,32.43-21.23,62.79-44.03,90.23v.04Z"/>
    <path class="st1" d="M626.84,298.85c-1.72,8.95-.98,17.78,2.14,25.55,6.38,15.86,17.93,25.78,33.61,28.94.2,4.34.14,8.78.08,13.38-.03,2.49-.06,4.98-.06,7.47.02,5.51,4.49,9.97,10,9.97h.03c5.52-.02,9.99-4.51,9.97-10.03,0-2.38.02-4.77.05-7.15.06-4.39.11-8.87-.06-13.43,16.9-3.97,31.9-17.9,35.28-34.31l.31-1.49c1.59-7.58,4.09-19.46-4.32-28.94.48-1.07.95-2.15,1.41-3.24,4.82-11.63,5.6-22.04,2.36-31.73,1.66-4.63,1.53-9.06,1.44-12.51-.03-1.26-.07-2.45-.01-3.45.32-5.51-3.89-10.24-9.41-10.56-5.52-.31-10.24,3.89-10.56,9.41-.11,1.85-.06,3.6-.01,5.15.03,1.06.05,1.98.03,2.76-3.54.62-7.4,1.69-11.23,4-6.43,3.88-11.3,9.02-15.59,13.61-.33-.38-.66-.75-.98-1.15-7.16-8.9-15.51-14.28-24.88-16.1-.18-1.37-.28-2.69-.27-3.98,0-.04.02-.08.03-.11.28-1.22.79-3.49.32-6.25-.92-5.45-6.08-9.11-11.52-8.2-4.99.84-8.48,5.24-8.33,10.15-.18.8-.43,1.97-.47,3.4-.17,5.57.79,10.63,1.88,15.28-.08.53-.38,1.58-.6,2.37-.7,2.46-1.65,5.84-1.41,9.75.52,8.44,3.5,15.67,6.15,22.05-2.24,2.08-4.52,5.06-5.35,9.41l-.03-.02ZM647.54,316.94c-1.42-3.54-1.9-7.47-1.44-11.72.58.43,1.18.89,1.81,1.38,1.97,1.52,4.21,3.24,6.79,4.72,1.73.99,4.43,2.54,7.82,3.82-.02.42-.04.84-.06,1.27-.1,2.16-.21,4.39-.1,6.76.14,3.11.14,6.24.08,9.42-6.84-2.51-11.66-7.6-14.89-15.64h-.01ZM698.62,313.64l-.33,1.57c-1.5,7.28-8.15,14.12-15.85,17.42.06-3.42.05-6.88-.11-10.38-.07-1.43.01-3.1.1-4.87.02-.51.05-1.03.07-1.57,1.71-.6,3.45-1.39,5.21-2.43,3.58-2.12,6.76-4.47,9.83-6.75.78-.58,1.56-1.15,2.32-1.71.08,1.79-.34,4.43-1.24,8.73h0ZM682.64,280.36c1.38-1.4,2.7-2.81,3.99-4.19,3.8-4.06,7.39-7.89,11.56-10.41.42-.25.88-.46,1.36-.65.17,3.76-.74,7.9-2.77,12.8-1.02,2.46-2.12,4.84-3.27,7.07-2.81,1.79-5.39,3.7-7.91,5.57-1.09.81-2.16,1.6-3.22,2.36.02-1.05.04-2.1.07-3.17.07-3.07.15-6.22.17-9.38h.02ZM655.72,273.63c2.2,2.73,4.48,5.13,6.91,7.28-.03,2.79-.09,5.61-.15,8.36-.02,1.07-.05,2.15-.07,3.22-.75-.54-1.51-1.13-2.31-1.74-2.32-1.79-4.87-3.75-7.95-5.37-.48-1.19-.96-2.36-1.44-3.5-2.26-5.44-4.39-10.57-4.71-15.72,0-.12.01-.29.05-.5,3.38,1.44,6.51,4.04,9.67,7.96h0Z"/>
    <path class="st1" d="M662.18,231.1c.01,2.91.03,6.21.53,9.64.72,4.98,5,8.56,9.88,8.56.48,0,.96-.03,1.45-.11,5.47-.79,9.25-5.87,8.46-11.33-.3-2.05-.31-4.39-.32-6.86,0-1.86-.02-3.78-.14-5.8-.13-2.13.04-4.52.22-7.04.26-3.61.56-7.71.02-12.05-.68-5.48-5.67-9.38-11.15-8.7-5.48.68-9.38,5.67-8.7,11.15.3,2.41.1,5.21-.12,8.17-.21,2.92-.45,6.24-.24,9.7.09,1.46.1,3.02.1,4.67h.01Z"/>
  </g>
</svg>