<?xml version="1.0" encoding="UTF-8"?>
<svg id="Capa_1" xmlns="http://www.w3.org/2000/svg" version="1.1" viewBox="0 0 1024 1024">
  <!-- Generator: Adobe Illustrator 29.8.1, SVG Export Plug-In . SVG Version: 2.1.1 Build 2)  -->
  <defs>
    <style>
      .st0 {
        fill: #2e3b2b;
      }

      .st1 {
        isolation: isolate;
      }
    </style>
  </defs>
  <g class="st1">
    <g class="st1">
      <path class="st0" d="M102.62,780.47v12.8h-26.8v59.2h-14.3v-59.2h-10.7c-.7,0-2.1.4-2.1,2.3v3.4h-11.1l-.2-4.4c0-10.2,4.8-14.1,12.3-14.1h52.9Z"/>
      <path class="st0" d="M99.12,826.07c0-19,8.4-28.3,25.8-28.3,14.3,0,22.8,5.5,22.8,22.8,0,4.3-.6,9.6-.6,9.8h-33c.1,6.5,3.7,11,12.6,11,5.9,0,13.4-.8,19.3-2.8l.1,11.8c-5.4,2.3-12.2,3.3-19.7,3.3-19.3,0-27.3-8.4-27.3-27.6ZM133.62,821.57v-2.2c0-6.6-2.9-9.2-8.7-9.2-6.9,0-10.5,3.7-10.9,11.4h19.6Z"/>
      <path class="st0" d="M156.22,841.07v-63.6h14.5v60.4c0,1.7.9,3,3.4,3,2.8,0,5.6-.5,7-1.1v12.2c-4.3,1.4-8.1,1.7-10.7,1.7-7.9-.1-14.2-3.5-14.2-12.6Z"/>
      <path class="st0" d="M184.52,826.07c0-19,8.4-28.3,25.8-28.3,14.3,0,22.8,5.5,22.8,22.8,0,4.3-.6,9.6-.6,9.8h-33c.1,6.5,3.7,11,12.6,11,5.9,0,13.4-.8,19.3-2.8l.1,11.8c-5.4,2.3-12.2,3.3-19.7,3.3-19.3,0-27.3-8.4-27.3-27.6ZM219.02,821.57v-2.2c0-6.6-2.9-9.2-8.7-9.2-6.9,0-10.5,3.7-10.9,11.4h19.6Z"/>
      <path class="st0" d="M240.12,825.37c0-16.1,6.9-27.6,26.4-27.6,7.6,0,13.1,1.1,16.7,2.8l-.1,12.3c-5.6-1.9-10.5-2.5-14.1-2.5-10.4,0-14.1,6-14.1,15.3,0,9.8,3.1,15.4,13,15.4,2.6,0,9.5-.5,15.4-2.5v12.1c-4.1,2.1-10.1,3-15.6,3-16.3,0-27.6-6.2-27.6-28.3Z"/>
      <path class="st0" d="M290.32,825.77c0-21.1,10.5-28,26.4-28s26,8,26,28c0,21.1-11,27.9-26,27.9-16,0-26.4-7.3-26.4-27.9ZM327.62,825.67c0-10.7-3.3-16.2-10.9-16.2s-11.4,4.7-11.4,16.3,4,16.1,11.3,16.1c8,0,11-5.8,11-16.2Z"/>
      <path class="st0" d="M351.32,798.67h12.1l1.8,11.7c3.5-12.5,12.3-12.7,16.7-12.7,8.4,0,13.8,4.1,15.5,13.3,3.2-12.3,13.1-13.3,17.6-13.3,12.4,0,18.5,7.5,18.5,22.3v32.5h-14.7v-31.6c0-7-1.6-11-9-11-4.4,0-10.1,2.2-10.1,11.1v31.5h-14.7v-31.6c0-7-1.5-11-8.9-11-4.7,0-10.2,2.3-10.2,11.1v31.5h-14.7l.1-53.8Z"/>
      <path class="st0" d="M499.82,839.77v12.2c-3.7,1.7-6.9,1.7-9.5,1.7-7.8-.1-12.2-3.4-12.3-12.3-3.3,11.4-11.9,12.3-16,12.3-12.6,0-18.9-7.6-18.9-22.5v-32.5h14.7v31.6c0,7,2,11,9.4,11,4.6,0,10.6-2.6,10.6-11.4v-31.1h14.7v39.1c0,1.6.2,3,2,3,3-.2,3.9-.5,5.3-1.1Z"/>
      <path class="st0" d="M504.32,798.67h11.6l2.4,11.7c3.6-12.3,12.1-12.7,16.3-12.7,12.6,0,19.1,7.5,19.1,22.3l-.1,32.5h-14.7l.1-31.6c0-7-2.1-11-9.6-11-4.3,0-10.4,2.3-10.4,11.1l-.1,31.5h-14.7l.1-53.8Z"/>
      <path class="st0" d="M562.71,777.37h16.4v15.1h-16.4v-15.1ZM563.52,798.67h14.7v53.8h-14.7v-53.8Z"/>
      <path class="st0" d="M586.81,825.37c0-16.1,6.9-27.6,26.4-27.6,7.6,0,13.1,1.1,16.7,2.8l-.1,12.3c-5.6-1.9-10.5-2.5-14.1-2.5-10.4,0-14.1,6-14.1,15.3,0,9.8,3.1,15.4,13,15.4,2.6,0,9.5-.5,15.4-2.5v12.1c-4.1,2.1-10.1,3-15.6,3-16.3,0-27.6-6.2-27.6-28.3Z"/>
      <path class="st0" d="M692.02,839.77v12.2c-3.7,1.7-6.9,1.7-9.5,1.7-7.8-.1-12.2-3.4-12.3-12.1-2,8.6-9.3,12.1-15.4,12.1-13.8,0-18.2-7.9-18.2-16.8,0-10.8,7.9-16.1,22.3-16.1h10.8v-1.8c0-6.4-3.5-9.1-11.2-9.1-5.5,0-12.9,1.5-18.7,3.8v-12.4c4.9-2,14.5-3.6,19.8-3.6,18.4,0,25,7.1,25.1,24.4v16.9c.2,1.1.7,1.9,2,1.9,3-.2,3.9-.5,5.3-1.1ZM669.92,829.97h-8.7c-4.7,0-10.5,1.6-10.6,6.4,0,3,1.5,6.1,7.7,6.1,6.8,0,11.6-4.1,11.6-10.9v-1.6Z"/>
      <path class="st0" d="M695.01,825.37c0-16.1,6.9-27.6,26.4-27.6,7.6,0,13.1,1.1,16.7,2.8l-.1,12.3c-5.6-1.9-10.5-2.5-14.1-2.5-10.4,0-14.1,6-14.1,15.3,0,9.8,3.1,15.4,13,15.4,2.6,0,9.5-.5,15.4-2.5v12.1c-4.1,2.1-10.1,3-15.6,3-16.3,0-27.6-6.2-27.6-28.3Z"/>
      <path class="st0" d="M745.91,777.37h16.4v15.1h-16.4v-15.1ZM746.71,798.67h14.7v53.8h-14.7v-53.8Z"/>
      <path class="st0" d="M770.01,825.77c0-21.1,10.5-28,26.4-28s26,8,26,28c0,21.1-11,27.9-26,27.9-16,0-26.4-7.3-26.4-27.9ZM807.32,825.67c0-10.7-3.3-16.2-10.9-16.2s-11.4,4.7-11.4,16.3,4,16.1,11.3,16.1c8,0,11-5.8,11-16.2Z"/>
      <path class="st0" d="M830.91,798.67h11.6l2.4,11.7c3.6-12.3,12.1-12.7,16.3-12.7,12.6,0,19.1,7.5,19.1,22.3l-.1,32.5h-14.7l.1-31.6c0-7-2.1-11-9.6-11-4.3,0-10.4,2.3-10.4,11.1l-.1,31.5h-14.7l.1-53.8Z"/>
      <path class="st0" d="M888.61,826.07c0-19,8.4-28.3,25.8-28.3,14.3,0,22.8,5.5,22.8,22.8,0,4.3-.6,9.6-.6,9.8h-33c.1,6.5,3.7,11,12.6,11,5.9,0,13.4-.8,19.3-2.8l.1,11.8c-5.4,2.3-12.2,3.3-19.7,3.3-19.3,0-27.3-8.4-27.3-27.6ZM923.11,821.57v-2.2c0-6.6-2.9-9.2-8.7-9.2-6.9,0-10.5,3.7-10.9,11.4h19.6Z"/>
      <path class="st0" d="M944.11,850.57l.2-12.1c5.2,1.8,14.2,3.1,18.4,3.1,5.3-.1,9.2-1.3,9.2-4.9,0-2.3-1.4-3.4-6.7-4.9-2.1-.6-5.3-1.6-7.9-2.4-8.7-2.9-12.8-6.9-12.8-15.4,0-10.2,8.6-16.3,21.5-16.3,7.5,0,14.3.9,18.7,2.9v11.7c-3.3-.8-11.5-2.7-17.8-2.7-4.8,0-8,1.5-8,4.3s2.1,3.3,6.2,4.5c2.8.9,5.9,1.8,7.8,2.4,8.9,2.9,13.1,7.1,13.1,15.7,0,10.5-7.3,17.2-23.3,17.2-6.6,0-13.3-.8-18.6-3.1Z"/>
    </g>
  </g>
  <g>
    <path class="st0" d="M733.64,169.08c-8.73-37.47-26.5-70.65-52.8-98.62-4.29-4.57-11.57-4.87-16.25-.68s-4.99,11.29-.7,15.85c23.57,25.06,39.49,54.81,47.32,88.43,4.04,17.34,5.39,35.41,4.01,53.72-2.49,33.08-13.23,63.54-31.92,90.54-6.73,9.72-14.29,18.7-22.48,26.68-4.49,4.38-4.49,11.48,0,15.87,2.25,2.19,5.19,3.29,8.13,3.29s5.88-1.09,8.13-3.28c9.23-9,17.74-19.09,25.28-30,20.96-30.29,33.01-64.42,35.8-101.45,1.55-20.53.03-40.83-4.52-60.34h0Z"/>
    <path class="st0" d="M653.19,182.41c3.35,14.04,4.14,29.61,2.42,47.6-1.91,19.99-8.92,39.09-21.41,58.39-4.11,6.34-9.02,12.49-14.62,18.27-4.36,4.51-4.15,11.61.47,15.86,2.22,2.05,5.06,3.06,7.89,3.06,3.06,0,6.1-1.18,8.37-3.52,6.61-6.83,12.44-14.13,17.33-21.69,14.47-22.36,22.61-44.7,24.86-68.29,1.95-20.43,1-38.34-2.91-54.77-6.59-27.65-19.45-51.79-38.23-71.76-4.29-4.57-11.57-4.87-16.25-.68s-4.99,11.29-.7,15.85c16.07,17.09,27.1,37.84,32.78,61.67h0Z"/>
    <path class="st0" d="M358.53,341.38c-.72-.51-1.77-1.85-2.79-3.15-.83-1.06-1.77-2.26-2.86-3.47-12.95-14.31-23.22-30.81-31.42-50.44-8.28-19.84-12.58-41.5-13.15-66.2-.48-21.05,1.97-40,7.5-57.94,9.06-29.37,24.01-55.08,44.43-76.41,4.34-4.53,4.09-11.63-.55-15.86s-11.92-3.99-16.25.54c-22.86,23.87-39.56,52.56-49.64,85.26-6.24,20.22-9.01,41.45-8.47,64.9.63,27.49,5.48,51.75,14.84,74.17,9.06,21.7,20.99,40.81,35.48,56.82.56.62,1.18,1.41,1.84,2.25,1.83,2.33,4.1,5.23,7.53,7.67,2.04,1.45,4.41,2.15,6.76,2.15,3.55,0,7.06-1.6,9.31-4.62,3.74-5.01,2.6-12.03-2.53-15.67h-.03Z"/>
    <path class="st0" d="M424.69,279.51c2.27,2.76,5.61,4.2,8.98,4.2,2.52,0,5.07-.81,7.19-2.47,4.95-3.88,5.75-10.94,1.77-15.77-15.85-19.26-21.85-41.56-17.86-66.27,2.59-16.04,9.64-30.33,20.94-42.47,4.27-4.59,3.92-11.68-.78-15.85-4.7-4.17-11.97-3.83-16.25.76-14.37,15.43-23.33,33.62-26.63,54.06-5.05,31.21,2.57,59.41,22.64,83.81Z"/>
    <path class="st0" d="M344.75,233.69c3.51,32.58,17.47,62.25,41.49,88.18,2.27,2.45,5.4,3.7,8.53,3.7,2.75,0,5.51-.96,7.71-2.9,4.71-4.15,5.08-11.25.82-15.85-20.98-22.64-32.65-47.33-35.68-75.48-2.35-21.78-.97-40.59,4.23-57.49,6.55-21.34,16.45-38.71,30.26-53.1,4.34-4.52,4.1-11.62-.54-15.86s-11.91-4-16.25.52c-16.06,16.74-28.01,37.6-35.5,61.99-6.08,19.81-7.74,41.49-5.07,66.28h0Z"/>
    <path class="st0" d="M592.84,183.02c3.69,9.04,5.59,19.08,5.81,30.69.38,19.55-6.49,37.02-21.62,54.99-4.03,4.79-3.32,11.86,1.59,15.79,2.14,1.71,4.72,2.55,7.29,2.55,3.32,0,6.62-1.4,8.89-4.1,18.54-22.02,27.32-44.81,26.84-69.65-.28-14.35-2.71-26.96-7.43-38.56-4.93-12.09-11.8-23.29-20.43-33.28-4.09-4.74-11.35-5.34-16.2-1.35-4.86,3.99-5.48,11.07-1.38,15.81,7.03,8.14,12.63,17.26,16.65,27.1h-.01Z"/>
    <path class="st0" d="M545.93,248.7c10.41-8.92,17-21.99,17-36.53,0-26.81-22.36-48.63-49.84-48.63s-49.84,21.81-49.84,48.63c0,14.97,6.97,28.37,17.9,37.3l-120.2,432.28c-1.66,5.98,1.96,12.14,8.09,13.77,1.01.27,2.02.39,3.02.39,5.06,0,9.7-3.29,11.09-8.29l2.89-10.38,126.71-83.93,129.3,84.91,2.63,9.41c1.39,4.99,6.03,8.27,11.09,8.27,1,0,2.02-.13,3.03-.4,6.13-1.63,9.74-7.8,8.07-13.77l-120.94-433.03h0ZM487.9,310.93l10.31,12.42-20.91,25.7,10.6-38.12h0ZM550.64,350.9l-22.96-27.68,11.34-13.94,11.62,41.62ZM550.78,386.74l-37.93,33.8-37.54-32.95,37.71-46.36,37.76,45.52h0ZM461.55,405.69l34.24,30.06-56.63,50.47,22.39-80.52h0ZM512.97,450.83l74.8,65.66-75.07,49.73-74.4-48.85,74.67-66.54ZM530.03,435.62l35.45-31.59,23.2,83.07-58.65-51.48ZM513.09,185.98c14.8,0,26.84,11.75,26.84,26.19s-12.04,26.19-26.84,26.19-26.84-11.75-26.84-26.19,12.04-26.19,26.84-26.19ZM513.09,260.79c4.13,0,8.14-.5,11.98-1.43l6.44,23.04-18.66,22.94-17.53-21.13,6.84-24.61c3.52.77,7.17,1.19,10.93,1.19h0ZM395.29,643.99l30.05-108.09,66.85,43.9-96.91,64.19h.01ZM533.26,579.72l68.6-45.44,30.95,110.81-99.54-65.37h-.01Z"/>
  </g>
</svg>