<?xml version="1.0" encoding="UTF-8"?>
<svg id="Capa_1" xmlns="http://www.w3.org/2000/svg" version="1.1" viewBox="0 0 1024 1024">
  <!-- Generator: Adobe Illustrator 29.8.1, SVG Export Plug-In . SVG Version: 2.1.1 Build 2)  -->
  <defs>
    <style>
      .st0 {
        fill: #2e3b2b;
      }

      .st1 {
        isolation: isolate;
      }
    </style>
  </defs>
  <g class="st1">
    <g class="st1">
      <path class="st0" d="M229.91,737.27v14.08h-29.48v65.12h-15.73v-65.12h-11.77c-.77,0-2.31.44-2.31,2.53v3.74h-12.21l-.22-4.84c0-11.22,5.28-15.51,13.53-15.51h58.19Z"/>
      <path class="st0" d="M234.31,803.93v-69.96h15.95v66.44c0,1.87.99,3.3,3.74,3.3,3.08,0,6.16-.55,7.7-1.21v13.42c-4.73,1.54-8.91,1.87-11.77,1.87-8.69-.11-15.62-3.85-15.62-13.86Z"/>
      <path class="st0" d="M340.24,770.16l-24.53,68.2h-15.51l8.69-21.89h-5.94l-20.13-59.18h16.5l13.97,43.89,11.22-33.22c.33-1.32.55-2.2.55-3.96-.11-3.41-1.87-6.71-1.87-6.71h15.4s1.76,3.19,2.09,8.36c0,1.43,0,2.86-.44,4.51Z"/>
      <path class="st0" d="M368.51,787.43c0-20.9,9.24-31.13,28.38-31.13,15.73,0,25.08,6.05,25.08,25.08,0,4.73-.66,10.56-.66,10.78h-36.3c.11,7.15,4.07,12.1,13.86,12.1,6.49,0,14.74-.88,21.23-3.08l.11,12.98c-5.94,2.53-13.42,3.63-21.67,3.63-21.23,0-30.03-9.24-30.03-30.36ZM406.46,782.48v-2.42c0-7.26-3.19-10.12-9.57-10.12-7.59,0-11.55,4.07-11.99,12.54h21.56Z"/>
      <path class="st0" d="M428.56,786.66c0-17.71,7.59-30.36,29.04-30.36,8.36,0,14.41,1.21,18.37,3.08l-.11,13.53c-6.16-2.09-11.55-2.75-15.51-2.75-11.44,0-15.51,6.6-15.51,16.83,0,10.78,3.41,16.94,14.3,16.94,2.86,0,10.45-.55,16.94-2.75v13.31c-4.51,2.31-11.11,3.3-17.16,3.3-17.93,0-30.36-6.82-30.36-31.13Z"/>
      <path class="st0" d="M482.68,787.1c0-23.21,11.55-30.8,29.04-30.8s28.6,8.8,28.6,30.8c0,23.21-12.1,30.69-28.6,30.69-17.6,0-29.04-8.03-29.04-30.69ZM523.71,786.99c0-11.77-3.63-17.82-11.99-17.82s-12.54,5.17-12.54,17.93,4.4,17.71,12.43,17.71c8.8,0,12.1-6.38,12.1-17.82Z"/>
      <path class="st0" d="M548.57,757.29h12.76l2.64,12.87c3.96-13.53,13.31-13.97,17.93-13.97,13.86,0,21.01,8.25,21.01,24.53l-.11,35.75h-16.17l.11-34.76c0-7.7-2.31-12.1-10.56-12.1-4.73,0-11.44,2.53-11.44,12.21l-.11,34.65h-16.17l.11-59.18Z"/>
      <path class="st0" d="M610.94,787.1c0-23.21,11.55-30.8,29.04-30.8s28.6,8.8,28.6,30.8c0,23.21-12.1,30.69-28.6,30.69-17.6,0-29.04-8.03-29.04-30.69ZM651.97,786.99c0-11.77-3.63-17.82-11.99-17.82s-12.54,5.17-12.54,17.93,4.4,17.71,12.43,17.71c8.8,0,12.1-6.38,12.1-17.82Z"/>
      <path class="st0" d="M676.94,757.29h13.31l1.98,12.87c3.85-13.75,13.53-13.97,18.37-13.97,9.24,0,15.18,4.51,17.05,14.63,3.52-13.53,14.41-14.63,19.36-14.63,13.64,0,20.35,8.25,20.35,24.53v35.75h-16.17v-34.76c0-7.7-1.76-12.1-9.9-12.1-4.84,0-11.11,2.42-11.11,12.21v34.65h-16.17v-34.76c0-7.7-1.65-12.1-9.79-12.1-5.17,0-11.22,2.53-11.22,12.21v34.65h-16.17l.11-59.18Z"/>
      <path class="st0" d="M776.6,757.29h16.17v59.18h-16.17v-59.18ZM791.12,729.35h18.7l-19.58,20.57h-11.99l12.87-20.57Z"/>
      <path class="st0" d="M861.41,802.5v13.42c-4.07,1.87-7.59,1.87-10.45,1.87-8.58-.11-13.42-3.74-13.53-13.31-2.2,9.46-10.23,13.31-16.94,13.31-15.18,0-20.02-8.69-20.02-18.48,0-11.88,8.69-17.71,24.53-17.71h11.88v-1.98c0-7.04-3.85-10.01-12.32-10.01-6.05,0-14.19,1.65-20.57,4.18v-13.64c5.39-2.2,15.95-3.96,21.78-3.96,20.24,0,27.5,7.81,27.61,26.84v18.59c.22,1.21.77,2.09,2.2,2.09,3.3-.22,4.29-.55,5.83-1.21ZM837.1,791.72h-9.57c-5.17,0-11.55,1.76-11.66,7.04,0,3.3,1.65,6.71,8.47,6.71,7.48,0,12.76-4.51,12.76-11.99v-1.76Z"/>
    </g>
    <g class="st1">
      <path class="st0" d="M354.26,903.09c0-19.69,5.72-32.01,25.08-31.9,11,.11,14.63,7.48,14.85,8.47v-30.8l16.28.11-.11,82.5h-12.87l-2.75-13.09c-2.42,11.77-11.55,14.41-17.05,14.41-17.16,0-23.43-11.55-23.43-29.7ZM394.08,906.61v-10.23c0-7.04-3.3-11.33-10.23-11.33-10.78-.11-13.2,6.38-13.2,18.04.11,7.92,1.1,15.95,11.66,15.95,7.04,0,11.77-4.51,11.77-12.43Z"/>
      <path class="st0" d="M420.92,848.86h18.04v16.61h-18.04v-16.61ZM421.8,872.29h16.17v59.18h-16.17v-59.18Z"/>
      <path class="st0" d="M466.46,932.68c-17.71,0-23.65-12.43-23.65-30.58,0-15.29,3.52-30.91,23.65-30.91,5.61,0,15.07,2.53,16.83,13.97l2.75-12.87h12.87v62.81c0,13.09-10.01,18.37-28.49,18.37-7.92,0-19.36-1.65-24.53-3.85v-13.31c4.95,1.43,14.41,4.18,25.63,4.18h.44c3.19,0,10.67-.11,10.67-4.62v-13.42c-2.31,4.4-6.82,10.23-16.17,10.23ZM482.63,907.38v-10.45c0-7.37-4.51-11.88-11.22-11.88-10.34,0-12.21,6.71-12.21,16.94v.66c0,10.78,2.64,16.39,11.99,16.39,7.15,0,11.44-5.94,11.44-11.66Z"/>
      <path class="st0" d="M509.03,848.86h18.04v16.61h-18.04v-16.61ZM509.91,872.29h16.17v59.18h-16.17v-59.18Z"/>
      <path class="st0" d="M543.24,916.95v-31.57h-11.99v-13.09h11.99v-13.64h16.17v13.64h17.49v13.09h-17.49v28.93c0,3.08,2.31,4.18,5.72,4.18s9.46-1.1,11.77-1.87v13.2c-4.07,2.31-11.99,2.97-15.51,2.97-8.8,0-18.15-3.08-18.15-15.84Z"/>
      <path class="st0" d="M643.56,917.5v13.42c-4.07,1.87-7.59,1.87-10.45,1.87-8.58-.11-13.42-3.74-13.53-13.31-2.2,9.46-10.23,13.31-16.94,13.31-15.18,0-20.02-8.69-20.02-18.48,0-11.88,8.69-17.71,24.53-17.71h11.88v-1.98c0-7.04-3.85-10.01-12.32-10.01-6.05,0-14.19,1.65-20.57,4.18v-13.64c5.39-2.2,15.95-3.96,21.78-3.96,20.24,0,27.5,7.81,27.61,26.84v18.59c.22,1.21.77,2.09,2.2,2.09,3.3-.22,4.29-.55,5.83-1.21ZM619.25,906.72h-9.57c-5.17,0-11.55,1.76-11.66,7.04,0,3.3,1.65,6.71,8.47,6.71,7.48,0,12.76-4.51,12.76-11.99v-1.76Z"/>
      <path class="st0" d="M648.5,918.93v-69.96h15.95v66.44c0,1.87.99,3.3,3.74,3.3,3.08,0,6.16-.55,7.7-1.21v13.42c-4.73,1.54-8.91,1.87-11.77,1.87-8.69-.11-15.62-3.85-15.62-13.86Z"/>
    </g>
  </g>
  <g>
    <path class="st0" d="M252.29,195.98v-.5h7.74c62.92,0,127.98-.02,191.97.04h0c6.35,0,11.49-5.14,11.5-11.49,0-6.35-5.14-11.5-11.49-11.51-64-.05-129.07-.05-191.99-.04h-7.33c-6.03,0-12.89.44-17.98,5.61-4.99,5.07-5.42,11.88-5.43,17.86-.09,59.77-.09,120.53-.1,179.29,0,33.48,0,66.96-.02,100.44,0,2.48.26,5.04.81,8.06,1.51,8.24,7.84,13.93,16.52,14.85.98.1,1.87.13,2.68.13.57,0,1.1-.01,1.57-.03.31,0,.63-.02.94-.02h87.84c127.9,0,255.8,0,383.7.02h.02c5.53,0,11.32-.37,15.88-4.68,4.21-3.98,4.9-8.88,5.57-13.62.09-.63.18-1.3.29-2.02.94-6.28-3.38-12.14-9.67-13.08-6.28-.94-12.14,3.38-13.08,9.67-.04.25-.07.5-.11.73-127.54-.03-255.07-.02-382.61-.02h-87.37c.02-33.48.02-66.96.02-100.44,0-58.75,0-119.51.1-179.26h.03Z"/>
    <path class="st0" d="M178.28,513.65c0,13.37,4.9,25.6,13.78,34.43,8.87,8.81,20.91,13.66,33.92,13.66h.31c22.17-.13,93.29-.18,176.3-.19-2.92,19.01-4.94,33.25-6.04,42.59h-34.14c-22.45.33-40.88,13.2-48.09,33.56-3.07,8.68-2.65,15.89,1.25,21.42,5.91,8.38,16.54,8.39,20.04,8.39h45.58c85.54,0,171.08,0,256.62.02h.05c4.96,0,10.24-.32,15.24-2.59,2.08-.94,3.82-2.48,5.02-4.43,3.33-5.39,4.29-11.72,2.71-17.84-5.46-21.15-21.79-35.89-42.6-38.45-.47-.06-.94-.09-1.4-.09h-39.77c-1.43-10.56-3.82-26.8-6.18-42.57,26.35,0,51.44.01,74.07.02,50.02.01,88.71.03,103.77.02,24.12-.01,45.19-20.19,46.01-44.06.59-17.37.51-34.91.42-51.87-.05-9.47-.1-19.26-.03-28.86.05-6.35-5.06-11.54-11.41-11.58h-.09c-6.31,0-11.45,5.09-11.5,11.41-.07,9.74-.02,19.61.02,29.15.08,16.74.17,34.05-.41,50.97-.4,11.63-11.16,21.84-23.03,21.85-15.06,0-53.74,0-103.76-.02-140.23-.04-374.94-.11-418.79.16h-.17c-6.9,0-13.18-2.47-17.71-6.97-4.58-4.55-6.99-10.81-7-18.12-.02-60.95-.02-121.9-.02-182.85,0-53.6,0-107.21,0-160.81,0-6.56,2.38-12.56,6.7-16.87,4.31-4.31,10.24-6.68,16.7-6.68h.06c50.23.11,101.3.11,150.69.11,33.53,0,67.05,0,100.58.03h.01c6.35,0,11.49-5.14,11.5-11.49,0-6.35-5.14-11.5-11.49-11.51-33.53-.03-67.07-.03-100.61-.03-49.37,0-100.43,0-150.63-.11h-.11c-12.59,0-24.28,4.75-32.94,13.4-8.68,8.66-13.45,20.43-13.45,33.15,0,53.6,0,107.2,0,160.81,0,60.95,0,121.91.02,182.86v-.02ZM547.62,561.56c3.76,25.06,7.51,50.88,7.78,54.46.2,6.18,5.27,11.12,11.49,11.12h49.18c9.8,1.43,17.49,7.78,21.24,17.4-85.37-.03-170.74-.02-256.11-.02h-44.87c4.18-10.72,13.99-17.19,26.45-17.38h44.27c3.22,0,6.29-1.35,8.46-3.71,2.09-2.27,3.18-5.29,3.02-8.36.09-4.34,3.63-29.38,7.34-53.51,39.99,0,81.87,0,121.75.01h0Z"/>
    <path class="st0" d="M657.56,446.87c103.77,0,188.19-84.42,188.19-188.19s-84.42-188.19-188.19-188.19-188.19,84.42-188.19,188.19,84.42,188.19,188.19,188.19ZM515.14,175.07c4.89,2.7,10.13,5.08,15.83,7.17,13.16,4.83,26.53,8.67,39.9,11.49-2.65,13.7-4.25,27.53-4.74,41.28-.13,3.74-.25,7.53-.34,11.35-24.35-.07-48.7-.19-72.95-.39,1.96-25.72,9.85-49.81,22.29-70.91h.01ZM822.29,246.38c-24.3-.05-48.76-.06-73.03-.04-.28-8.07-.84-15.99-1.72-23.69-1.05-9.25-2.33-19.1-4.12-29.27,2.02-.39,4.05-.79,6.09-1.21,20.53-4.22,36.5-9.71,50.28-17.39,12.6,21.28,20.58,45.62,22.5,71.61h0ZM800.33,341.7c-11.68-6.65-24.17-10.47-36.33-14.18l-1.96-.6c-6.05-1.85-12.15-3.18-18.2-4.28,2.18-12.49,3.76-25.87,4.77-40.48.3-4.31.5-8.59.65-12.83,24.31-.02,48.81-.01,73.14.04-1.68,26.23-9.51,50.81-22.07,72.32h0ZM594.06,319.14c-.79-4.75-1.54-9.56-2.3-14.42l-.1-.61c-1.79-11.5-2.62-23.15-2.91-34.67,12.09.02,24.16.03,36.2.03,24.82,0,49.52-.03,73.91-.06,9.06-.01,18.2-.02,27.36-.03-.13,3.71-.31,7.45-.58,11.22-.97,13.96-2.47,26.67-4.55,38.48-.34-.05-.68-.1-1.02-.16-21.05-3.4-43.44-4.89-68.43-4.55-21.76.29-39.47,1.72-55.75,4.5-.61.1-1.23.19-1.84.29v-.02ZM724.69,225.25c.78,6.86,1.3,13.91,1.56,21.11-9.18,0-18.33.02-27.41.03-36.21.04-73.06.09-110.04.03.08-3.56.19-7.09.32-10.58.46-12.72,1.95-25.53,4.43-38.22,8.94,1.28,18.77,2.49,28.57,3.12,11.82.75,23.47,1.13,34.81,1.13,4.97,0,9.88-.07,14.72-.22,16.03-.48,32.27-1.94,49.11-4.41,1.71,9.71,2.93,19.14,3.94,28.01h-.01ZM565.75,269.37c.29,12.59,1.19,25.43,3.19,38.27l.1.61c.77,4.95,1.55,9.94,2.39,14.94-12.26,2.49-24.78,5.29-37.02,9.86l-.28.1c-6.46,2.41-13.07,4.88-19.47,8.32-12.54-21.56-20.33-46.2-21.96-72.49,24.29.2,48.68.32,73.06.38h-.01ZM527.68,360.65c4.51-2.21,9.41-4.05,14.49-5.95l.28-.1c10.66-3.98,21.75-6.47,33.37-8.83,2.38,10.39,5.39,20.72,9.52,30.83,1.54,3.76,3.21,8.53,4.99,13.57,2.64,7.51,5.44,15.48,8.7,22.98-28.31-10.76-52.92-29.08-71.34-52.5h-.01ZM630.77,421.69c-.22-.28-.46-.56-.72-.83-7.22-7.52-13.22-24.6-18.04-38.32-1.87-5.33-3.64-10.36-5.4-14.66-3.47-8.49-6.06-17.21-8.15-26.16.43-.07.87-.13,1.31-.2,15.07-2.57,31.66-3.9,52.19-4.17,23.59-.31,44.63,1.07,64.32,4.23-5.63,23.56-15.18,59.69-30.61,79.61-.08.1-.15.21-.22.32-9.07,1.55-18.38,2.37-27.89,2.37s-18.06-.75-26.79-2.18h0ZM717.4,412.65c9.64-20.32,16.2-44.63,21.66-67.5,5.57.99,10.98,2.16,16.25,3.77l1.97.6c10.69,3.26,20.94,6.38,30.04,11.26-18.13,22.99-42.22,41.06-69.93,51.87h.01ZM786.64,155.72c-11.29,5.97-24.62,10.39-41.75,13.91-2.1.43-4.16.82-6.24,1.22-2.66-10.51-6.02-21.16-10.38-31.69-1.62-3.93-3.46-9.34-5.41-15.08-2.23-6.55-4.57-13.44-7.18-20.03,28.08,10.59,52.54,28.61,70.96,51.67h0ZM686.03,95.95c5.69,7.97,11.05,23.73,15.06,35.53,2.07,6.1,4.03,11.86,5.94,16.47,3.65,8.81,6.53,17.81,8.86,26.76-15.41,2.21-30.28,3.52-44.93,3.96-15.14.46-31.08.16-47.37-.88-8.5-.54-16.93-1.55-25.03-2.68,1.51-6.73,3.03-13.13,5.19-19.28,1.49-4.26,3.03-9.22,4.65-14.48,4.62-14.96,10.85-35.1,18.64-45.01,9.9-1.86,20.1-2.84,30.52-2.84,9.71,0,19.22.85,28.47,2.46h0ZM596.42,105.22c-3.93,9.69-7.13,20.06-10,29.33-1.56,5.05-3.03,9.81-4.38,13.66-2.71,7.73-4.51,15.51-6.2,23.08-12.37-2.6-24.74-6.15-36.94-10.63-3.81-1.4-7.35-2.94-10.66-4.65,17.79-22.36,41.24-40.02,68.17-50.79h.01Z"/>
  </g>
</svg>