<?xml version="1.0" encoding="UTF-8"?>
<svg id="Capa_1" xmlns="http://www.w3.org/2000/svg" version="1.1" viewBox="0 0 1024 1024">
  <!-- Generator: Adobe Illustrator 29.8.1, SVG Export Plug-In . SVG Version: 2.1.1 Build 2)  -->
  <defs>
    <style>
      .st0 {
        fill: #2e3b2b;
      }

      .st1 {
        isolation: isolate;
      }
    </style>
  </defs>
  <g>
    <path class="st0" d="M803.41,608.88c-7.57-.54-15.05-3.27-23.54-8.61-8.25-5.18-19.5-11.15-33.44-11.33-14.04-.18-26.81,4.3-39.12,13.7-8.83,6.74-16.76,10-24.93,10.27-8,.27-15.58-2.23-23.8-7.86l-2.22-1.53c-7.2-4.98-15.36-10.63-26.02-13.02-13.51-3.03-26.68-1.42-39.15,4.78-4.19,2.08-8.13,4.4-11.93,6.63-3.38,1.99-6.58,3.87-9.82,5.52-2.5,1.27-4.59,2.77-6.32,4.49-24.62-15.79-52.18-32.87-82.64-44.25-22.27-8.32-45.45-14.15-70.87-17.79-3.21-.46-6.34-.72-9.36-.97-2.96-.24-5.84-.48-8.55-.9.72-4.17,1.33-8.32,1.93-12.37.61-4.1,1.23-8.33,1.94-12.4,4.46-25.66,5.65-51.24,6.23-72.88.51-19.17-.34-38.03-1.14-52.31-1.03-18.49-3-36.91-5.85-54.75-3.2-20.05-6.81-36.31-11.38-51.17-.47-1.53-.93-3.06-1.4-4.59-2.32-7.66-4.69-15.47-7.85-23.18,7.88.83,15.25,1.88,22.21,3.18,26.63,5,51.34,15.34,73.43,30.72,3.81,2.66,9.58,6.67,17.4,7.3.32.03.63.04.94.04.14,0,.27-.01.41-.02.46.05.91.09,1.36.09,4.37,0,8.55-2.5,10.48-6.74,1.53-3.37,5.12-11.26,2.06-19.85-1.29-3.63-2.41-7.24-3.58-11.07-3.65-11.88-7.43-24.15-16.51-35.6-12.96-16.34-35.12-24.5-64.08-23.6-3.41.11-6.88.35-10.29.69,32.38-24.38,74.72-35.58,75.29-35.73,3.43-.88,6.27-3.3,7.68-6.55s1.25-6.97-.44-10.09c-6.32-11.61-26.53-21.41-33.89-23.53-36.31-10.49-68.06-3-89.41,21.1-6.4,7.22-11.27,18.44-15.52,31.48-4.71-9.81-10.08-17.81-16.5-24.65-18.12-19.33-39.91-29.54-64.75-30.35-13.98-.46-25.56,1.23-36.42,5.3-6.56,2.46-11.49,6.22-15.05,11.5-2.53,3.74-5.66,11.16,1.8,18.73,5.52,5.61,12.02,7.68,16.43,8.75,8.27,2,16.15,5.45,23.43,8.88,8.12,3.83,16.17,8.73,24.32,14.83-25.92.13-55.07,6.05-72.3,18.05-12.92,8.99-22.79,21.42-30.17,37.99-2.54,5.69-2.85,11.98-.85,17.25.15.41.34.79.53,1.17.86,4.85,4.79,8.78,9.93,9.41.55.07,1.08.1,1.61.1,3,0,6.03-1.06,12.06-3.19,13.09-4.6,40.68-14.29,68.18-11.35-10.5,11.7-17.63,26.25-21.25,43.5-3.25,15.5-2.48,31.49,2.29,47.52l.04.12c.92,3.08,2.62,8.81,8.3,12.22,1.8,1.08,3.85,1.64,5.92,1.64,1.07,0,2.14-.15,3.19-.45,3.07-.89,5.63-3.01,7.08-5.86.21-.41,20.87-40.94,48.41-69.11,1.73-1.77,4.38-4.45,7.45-7.56.88-.89,1.74-1.77,2.6-2.63,2,12.88,3.28,24.68,3.89,36.08.81,15.14,1.48,29.95.67,44.7l-.12,2.17c-.64,11.67-1.3,23.75-2.72,35.34-1.5,12.24-3.21,23-5.24,32.88-6.16,30.07-15.17,59.54-26.77,87.58-2.87,6.94-6.08,13.97-9.18,20.77-1.22,2.67-2.43,5.33-3.63,8-.17.06-.42.15-.76.24-36.89,10.19-66.14,26.79-89.42,50.77-8.68,8.94-16.32,19.7-22.69,31.96-2.85,5.48-4.07,11.55-3.54,17.56.53,5.98,5.55,10.49,11.44,10.49.15,0,.31-.01.46-.02.6.44,1.25.82,1.95,1.15,2.21,1.03,4.29,1.26,5.9,1.26.89,0,1.64-.07,2.17-.13h49.15c112.58-.01,225.16-.01,337.74.02h.02c4.43,0,11.05-.48,17.44-4.59.24-.15.46-.32.68-.48,4.65-2.04,7.55-7,6.74-12.26-.79-5.14-3.08-10.05-6.47-13.85-.15-.21-.47-.74-.7-1.13-1.77-2.96-5.44-9.12-13.75-10.37-1.88-.28-3.7-.76-5.52-1.39,1.77-1.01,3.5-2.02,5.2-3.02,3.62-2.13,7.04-4.14,10.51-5.86,7.73-3.84,15.55-4.8,23.89-2.93,6.28,1.41,11.69,5.15,17.96,9.49.77.53,1.54,1.07,2.32,1.6,11.68,8,23.35,11.9,35.62,11.9.64,0,1.28-.01,1.93-.03,13.01-.43,25.48-5.33,38.13-14.98,8.18-6.24,16.1-9.07,24.87-8.98,6.58.08,12.81,2.34,21.5,7.8,11.65,7.32,22.82,11.27,34.15,12.08,6.35.46,11.84-4.32,12.29-10.65.45-6.34-4.32-11.84-10.65-12.29h-.05ZM464.36,246.72c6.39,8.05,9.24,17.33,12.55,28.07.07.23.15.47.22.7-23.27-15.1-48.97-25.38-76.5-30.54-6.73-1.26-13.78-2.31-21.24-3.15,2.39-1.72,4.79-3.39,7.25-4.96,8.74-2.96,58.85-13.91,77.72,9.88h0ZM366.94,216.36c3.55-13.31,10.16-38.08,17.51-46.39,10.57-11.94,24.66-17.99,41.45-17.99,7.59,0,15.74,1.24,24.36,3.73,1.71.49,3.88,1.43,6.16,2.6-25.2,9.28-66.72,28.47-90.14,60.49.21-.79.43-1.6.65-2.44h0ZM250.95,155.52c5.61-1.13,11.75-1.56,18.77-1.33,18.79.61,34.72,8.17,48.72,23.09,6.51,6.95,11.73,15.8,16.41,27.84.46,1.89,1.47,7.91,2.48,14.19-10.46-12.56-22.47-25.23-24.47-27.01-14.26-12.62-28.13-22.02-42.41-28.74-6.05-2.85-12.51-5.72-19.5-8.04h0ZM208.67,254.7c4.74-7.76,10.4-13.89,17.13-18.58,19.11-13.31,63.28-17.22,86.03-11.09.03,0,.07,0,.1.02,4.45,5.05,9.13,10.56,12.91,15.37-1.87.65-3.89,1.37-6.08,2.16-2.69.97-13.03,4.74-20.46,7.89-33.45-11.21-68.53-2.59-89.64,4.23h0ZM318.99,274.5c-3.1,3.14-5.77,5.85-7.52,7.64-15.34,15.69-28.46,34.37-37.74,49.15,0-4.87.48-9.69,1.48-14.43,4.08-19.45,13.37-33.71,28.39-43.58,3.06-1.6,15.75-6.52,26.89-10.46-4.12,4.2-8.33,8.47-11.5,11.68h0ZM204.17,645.81c4.95-8.89,10.65-16.7,17-23.24,20.35-20.96,46.2-35.55,79.04-44.62,7.51-2.08,12.59-6.25,15.53-12.78,1.21-2.7,2.44-5.4,3.67-8.09,3.19-6.99,6.48-14.21,9.51-21.52,12.16-29.39,21.6-60.26,28.05-91.76,2.15-10.49,3.96-21.84,5.53-34.7,1.51-12.36,2.2-24.83,2.86-36.88l.12-2.16c.88-15.91.18-31.41-.67-47.2-.3-5.55-.75-11.2-1.35-16.97,3.31,11.98,6.09,25.23,8.61,41.05,2.72,17.07,4.6,34.7,5.6,52.41.77,13.84,1.6,32.08,1.11,50.42-.55,20.81-1.68,45.34-5.9,69.55-.76,4.36-1.41,8.74-2.03,12.98-.8,5.42-1.56,10.54-2.53,15.67-.74,3.91-.51,7.97.7,12.07.98,3.35,3.43,6.06,6.66,7.39,7.81,3.21,15.7,3.86,22.67,4.43,2.8.23,5.45.45,7.97.81,23.76,3.41,45.38,8.83,66.08,16.57,30.85,11.53,59.48,29.96,84.75,46.23,5.16,3.32,11.63,7.48,19.27,10.4-108.97-.03-217.94-.03-326.91-.03h-45.34v-.03Z"/>
    <path class="st0" d="M833.91,88.41c-12.18-5.61-28.63-11.67-47.85-8.83-10.73,1.59-19.12,6.84-26.53,11.47l-1.69,1.06c-7.07,4.39-30.79,20.68-59.38,40.55-.76-.44-1.58-.8-2.47-1.06-2.47-.72-13.98-4.23-28.56-8.67-32.86-10.01-82.52-25.12-103.56-31.23-1.04-.3-2.09-.57-3.15-.85-1.81-.47-3.52-.91-4.57-1.4-18.74-8.76-32.3,2.22-41.28,9.49-1.45,1.17-2.53,2.63-3.24,4.22-2.65,3.3-3.38,7.94-1.48,12.04,3.92,8.45,10.64,12.95,16.03,16.57,1.2.81,2.34,1.57,3.38,2.32,11.81,8.62,23.9,17.2,35.6,25.5,15.28,10.85,31.09,22.07,46.34,33.42.12.09.24.16.36.25-25.32,17.84-44.78,31.67-48.52,34.52-13.6-5.63-26.99-10.61-38.33-14.76-.33-.12-.65-.26-.97-.39-2.78-1.15-8.57-3.56-15.32-.56-7.55,3.35-12.6,7.82-15.43,13.65-2.42,4.99-3.34,12.75,6.01,21.42,3.49,3.24,7.03,6.62,10.44,9.89,3.6,3.45,7.33,7.02,11.09,10.5,5.77,5.34,11.35,10.6,16.13,16.19,2.85,3.34,4.74,8.16,6.74,13.26.74,1.89,1.5,3.84,2.35,5.8,1.61,3.75,3.22,7.62,4.77,11.36,2.97,7.16,6.04,14.56,9.43,21.82,1.76,3.77,5.43,11.63,13.65,13.47,8.24,1.85,14.93-3.7,18.52-6.68,5.2-4.31,7.87-9.86,8.19-16.98.56-12.64.47-25.34.39-37.63l-.03-4.36,1.4-.6c11.99-5.15,24.38-10.48,36.5-16.03l3.8-1.74c6.63-3.02,13.45-6.13,20.15-9.66l28.36,88.28c.5,1.62.93,3.39,1.39,5.26,1.47,6.02,3.3,13.5,8.69,20.12,2.02,3.4,5.72,5.65,9.89,5.65.25,0,.49,0,.74-.02,5.29-.34,10.2-2.17,15.03-5.6,2.95-2.1,5.96-4.14,8.97-6.07,4.13-2.66,9.02-7.86,8.87-17.55-.19-12.35,0-24.99.2-37.22.16-10.49.33-21.33.26-32.06-.08-12.36-.07-24.96-.05-37.13.01-10.11.02-20.57-.02-30.87,0-.38.02-.63.04-.78.12-.11.33-.28.67-.5,7.43-4.94,15.07-9.89,22.47-14.68,15.85-10.26,32.24-20.87,47.89-32.32,10.9-7.98,16.95-18.54,21.43-27.82,2.9-6,6.06-13.25,7.48-21.44,1.96-11.32-1.39-18.07-11.21-22.59h-.01ZM625.22,174.56c-15.45-11.49-31.36-22.79-46.75-33.72-11.63-8.26-23.66-16.8-35.36-25.33-1.41-1.03-2.79-1.96-4.13-2.85-.76-.51-1.44-.97-2.1-1.43,4.03-2.47,6.31-2.45,9.53-.95,2.99,1.4,5.96,2.16,8.58,2.84.83.21,1.66.43,2.47.66,20.89,6.06,70.46,21.16,103.27,31.15,5.22,1.59,9.93,3.02,13.98,4.26-15.14,10.57-30.71,21.47-45.24,31.68-.64-2.44-2.07-4.68-4.25-6.31h0ZM816.93,122.44c-4.66,9.66-8.81,15.24-14.31,19.26-15.11,11.06-31.22,21.49-46.8,31.57-7.46,4.83-15.17,9.81-22.72,14.84-7.31,4.87-11,11.77-10.96,20.53.04,10.24.03,20.66.02,30.75-.01,12.22-.03,24.86.05,37.31.07,10.48-.1,21.19-.26,31.55-.19,12.06-.38,24.53-.22,36.89-1.85,1.21-3.69,2.45-5.52,3.72-.47-1.55-.88-3.23-1.31-5.01-.52-2.14-1.06-4.35-1.78-6.65-.01-.04-.02-.08-.04-.11l-31.99-99.57c-1.54-4.79-5.99-7.98-10.94-7.98-.32,0-.65,0-.98.04-5.08.43-9.83,1.89-14.51,4.46-6.88,3.77-14,7.02-21.55,10.46l-3.84,1.76c-11.87,5.44-24.13,10.71-36,15.81l-2.92,1.25c-8.05,3.46-12.46,10.29-12.41,19.22l.04,5.77c.07,10.09.13,20.48-.16,30.69-1.98-4.54-3.9-9.16-5.77-13.67-1.58-3.81-3.21-7.74-4.88-11.62-.7-1.62-1.36-3.32-2.06-5.11-2.48-6.34-5.3-13.53-10.66-19.81-5.58-6.54-11.7-12.31-17.99-18.13-3.62-3.35-7.28-6.85-10.81-10.23-1.49-1.43-3-2.87-4.53-4.32,10.44,3.84,22.32,8.32,34.25,13.28,7.42,3.08,15.19,1.92,21.88-3.28,6.89-5.36,171.93-121.54,192.73-134.46l1.75-1.09c6.29-3.93,11.72-7.33,17.7-8.22,9.79-1.45,19.97.41,32.78,6.03-1.05,4.92-3.14,9.66-5.27,14.07h-.01Z"/>
  </g>
  <g class="st1">
    <g class="st1">
      <path class="st0" d="M371.81,774.27v14.08h-29.48v65.12h-15.73v-65.12h-11.77c-.77,0-2.31.44-2.31,2.53v3.74h-12.21l-.22-4.84c0-11.22,5.28-15.51,13.53-15.51h58.19Z"/>
      <path class="st0" d="M431.32,839.5v13.42c-4.07,1.87-7.59,1.87-10.45,1.87-8.58-.11-13.42-3.74-13.53-13.53-3.63,12.54-13.09,13.53-17.6,13.53-13.86,0-20.79-8.36-20.79-24.75v-35.75h16.17v34.76c0,7.7,2.2,12.1,10.34,12.1,5.06,0,11.66-2.86,11.66-12.54v-34.21h16.17v43.01c0,1.76.22,3.3,2.2,3.3,3.3-.22,4.29-.55,5.83-1.21Z"/>
      <path class="st0" d="M435.17,794.29h12.54l2.75,15.95c4.51-10.01,12.1-15.84,21.56-15.84l.22,15.51c-9.57.77-20.9,1.98-20.9,9.79l-.11,33.77h-16.17l.11-59.18Z"/>
      <path class="st0" d="M475.76,770.86h18.04v16.61h-18.04v-16.61ZM476.64,794.29h16.17v59.18h-16.17v-59.18Z"/>
      <path class="st0" d="M501.06,851.38l.22-13.31c5.72,1.98,15.62,3.41,20.24,3.41,5.83-.11,10.12-1.43,10.12-5.39,0-2.53-1.54-3.74-7.37-5.39-2.31-.66-5.83-1.76-8.69-2.64-9.57-3.19-14.08-7.59-14.08-16.94,0-11.22,9.46-17.93,23.65-17.93,8.25,0,15.73.99,20.57,3.19v12.87c-3.63-.88-12.65-2.97-19.58-2.97-5.28,0-8.8,1.65-8.8,4.73s2.31,3.63,6.82,4.95c3.08.99,6.49,1.98,8.58,2.64,9.79,3.19,14.41,7.81,14.41,17.27,0,11.55-8.03,18.92-25.63,18.92-7.26,0-14.63-.88-20.46-3.41Z"/>
      <path class="st0" d="M555.5,794.29h13.31l1.98,12.87c3.85-13.75,13.53-13.97,18.37-13.97,9.24,0,15.18,4.51,17.05,14.63,3.52-13.53,14.41-14.63,19.36-14.63,13.64,0,20.35,8.25,20.35,24.53v35.75h-16.17v-34.76c0-7.7-1.76-12.1-9.9-12.1-4.84,0-11.11,2.42-11.11,12.21v34.65h-16.17v-34.76c0-7.7-1.65-12.1-9.79-12.1-5.17,0-11.22,2.53-11.22,12.21v34.65h-16.17l.11-59.18Z"/>
      <path class="st0" d="M653.96,824.1c0-23.21,11.55-30.8,29.04-30.8s28.6,8.8,28.6,30.8c0,23.21-12.1,30.69-28.6,30.69-17.6,0-29.04-8.03-29.04-30.69ZM694.99,823.99c0-11.77-3.63-17.82-11.99-17.82s-12.54,5.17-12.54,17.93,4.4,17.71,12.43,17.71c8.8,0,12.1-6.38,12.1-17.82Z"/>
    </g>
  </g>
</svg>