<?xml version="1.0" encoding="UTF-8"?>
<svg id="Capa_1" xmlns="http://www.w3.org/2000/svg" version="1.1" viewBox="0 0 1024 1024">
  <!-- Generator: Adobe Illustrator 29.8.1, SVG Export Plug-In . SVG Version: 2.1.1 Build 2)  -->
  <defs>
    <style>
      .st0 {
        isolation: isolate;
      }

      .st1 {
        fill: #773357;
      }
    </style>
  </defs>
  <g>
    <path class="st1" d="M761.71,377.74c-.57-4.86-3.26-15.71-9.41-21.96-30.31-30.82-61.38-61.86-91.42-91.88-7.93-7.92-15.86-15.85-23.78-23.77-26.16-26.17-52.32-52.33-78.48-78.48l-17.44-17.44c-1.8-1.8-3.56-3.7-5.42-5.71-2.61-2.82-5.31-5.73-8.3-8.55-4.04-3.8-8.64-7.32-14.92-7.34h-.06c-7.39,0-12.54,5.12-15.01,7.58-9.41,9.36-18.78,18.75-28.16,28.14l-47.58,47.58c-44.7,44.69-90.91,90.9-136.31,136.4-4.64,4.65-9.58,9.56-15.54,15.45-6.1,6.03-8.26,18.08-7.48,24.46.73,5.94,5.89,10.34,11.88,10.08l44.04-1.8c-.02,55.66-.02,111.31-.02,166.97v32.98c0,.31-.02.62-.03.93-.07,1.47-.16,3.48.27,5.82,1.72,9.3,8.53,15.13,17.49,15.13.37,0,.75-.01,1.13-.03,11.11-.6,144.65-.35,242.15-.16,45.64.08,85.06.16,105.15.14,3.84,0,9.64,0,14.16-4.17,4.05-3.73,4.71-8.4,5.29-12.51l.2-1.41c.22-1.52.17-2.78.14-3.53v-176.5c0-2.74,0-5.47-.02-8.21-.02-5.12-.03-10.37.01-15.57,1.5-.02,3.01-.05,4.51-.08,7.3-.14,14.2-.27,20.98.23.28.02.56.03.85.03h19.71c3.28,0,6.41-1.4,8.59-3.85,2.18-2.45,3.21-5.72,2.83-8.98h0ZM398.32,588.95v-156c23.74-.05,48.05-.05,72.4,0v156.03c-17.89-.02-35.09-.03-50.89-.03h-21.51ZM681.27,386.53c-.09,6.53-.07,13.13-.05,19.51,0,2.71.02,5.43.02,8.14v175.12c-20.86.01-58.57-.06-101.89-.14-27.64-.05-57.09-.11-85.62-.15v-157.21c0-.28,0-.56.02-.84.03-1.01.06-2.39-.09-3.94-1.09-10.82-7.89-17.03-18.66-17.06-27.24-.06-54.47-.06-80.94,0-10.92.02-17.55,6.08-18.66,17.06-.16,1.55-.12,2.94-.09,3.95,0,.28.02.56.02.84v157.19c-15.44.04-27.31.11-34.03.22v-31.73c0-56.06,0-112.13.02-168.19,0-1.47-.16-3.04-.43-4.63.06-.06.13-.12.19-.19,22.04-22.07,44.09-44.13,66.14-66.18,17.18-17.18,34.35-34.36,51.52-51.54,16.81-16.82,34.83-34.85,53.07-53.03,2.72,2.67,5.44,5.34,8.17,8.02,5.54,5.43,11.26,11.05,16.85,16.59,26.58,26.4,53.5,53.35,79.54,79.41,9.79,9.8,19.58,19.6,29.37,29.39,2.45,2.45,4.89,4.92,7.32,7.39,5.77,5.84,11.73,11.89,17.89,17.68,3.95,3.71,7.46,7.25,10.62,10.69-.16,1.16-.25,2.37-.27,3.65l-.03-.02ZM730.99,367.57c-7.7-.54-15.31-.4-22.68-.26-2.63.05-5.25.1-7.87.12-.61,0-1.21.02-1.79.06-3.58-3.92-7.54-7.9-11.96-12.06-5.84-5.5-11.65-11.38-17.27-17.08-2.47-2.5-4.94-5.01-7.43-7.5-9.79-9.79-19.58-19.59-29.36-29.38-26.05-26.08-52.99-53.05-79.6-79.48-5.63-5.6-11.39-11.24-16.95-16.69-3.51-3.44-7.02-6.89-10.52-10.34-9.57-9.43-18.07-9.42-27.57.05-19.08,19.01-37.96,37.9-55.52,55.48-17.17,17.18-34.34,34.36-51.52,51.53-21.65,21.65-43.3,43.3-64.93,64.96-.17.03-.37.07-.59.1-.12.02-.25.03-.37.05-1.11.15-2.67.27-4.6.27h-.47l-28.36,1.16c3.63-3.6,6.91-6.87,10.06-10.02,45.39-45.5,91.6-91.7,136.29-136.38l47.59-47.59c9-9.01,18.01-18.03,27.04-27.02,2.09,2.04,4.13,4.24,6.28,6.56,1.92,2.08,3.91,4.23,6.03,6.34l17.44,17.44c26.16,26.16,52.32,52.31,78.48,78.48,7.93,7.93,15.86,15.86,23.79,23.79,28.62,28.59,58.16,58.12,87.01,87.4h-.65Z"/>
    <path class="st1" d="M649.36,438.65c-.04-2.82-.09-5.64-.1-8.46-.06-13.6-6.69-20.23-20.28-20.26h-9.76c-5.95.01-12.11.02-18.12-.05-3.54-.04-6.84.34-9.96,1.17-2.61-.77-5.38-1.14-8.36-1.14-5,.02-10,.01-15,.01-5.37,0-10.74,0-16.11.01-12.99.05-19.63,6.68-19.73,19.7-.02,2.62-.06,5.24-.1,7.86-.13,8.51-.27,17.31.32,26.15.33,5.08.33,10.02,0,15.11-.58,8.84-.45,17.64-.32,26.15.04,2.62.08,5.24.1,7.86.1,13.02,6.73,19.65,19.73,19.7,2.69.01,5.38.08,8.21.15,3.15.08,6.34.15,9.57.15,4.27,0,8.6-.14,12.98-.59,4.14-.43,8.51-.21,13.13.02,3.1.16,6.31.32,9.64.29,4.73-.03,9.46-.03,14.18-.02,3.2,0,6.41.01,9.61,0,13.58-.03,20.22-6.66,20.27-20.26.01-2.82.06-5.65.1-8.47.12-7.97.25-16.21-.32-24.51-.38-5.4-.38-10.66,0-16.06.58-8.3.45-16.55.32-24.52h0ZM619.27,432.94h7.02c.02,2.03.05,4.05.08,6.08.11,7.17.21,13.97-.16,20.69-7.87,0-15.73,0-23.59-.02v-26.78c5.59.05,11.2.05,16.65.04h0ZM554.83,437.85c.03-1.64.05-3.28.07-4.92,4.29-.01,8.57,0,12.86,0h11.85v26.74c-8.2,0-16.44,0-24.65.02-.35-7.1-.25-14.28-.13-21.83h0ZM560.43,509.62c-1.81-.04-3.66-.09-5.53-.12-.02-1.65-.05-3.3-.07-4.95-.12-7.57-.22-14.76.13-21.88,8.22-.02,16.47-.02,24.68-.02-.14,6.43-.09,12.79-.03,19.03.02,2.52.04,5.08.05,7.65-6.11.6-12.48.45-19.22.29h0ZM626.37,503.39c-.03,2.03-.06,4.06-.08,6.09h-6.87c-4.8,0-9.59-.02-14.39.02-.78,0-1.57,0-2.37-.03,0-2.68-.03-5.35-.05-7.97-.05-6.45-.1-12.66.04-18.81,7.85,0,15.71.02,23.56.02.37,6.72.27,13.52.16,20.68h0Z"/>
  </g>
  <g class="st0">
    <g class="st0">
      <path class="st1" d="M322.42,745.85c0,1.1,0,2.2-.66,4.62l-23.43,66h-19.25l-27.61-79.2h17.6l19.69,60.5,16.61-49.61c.55-1.54.66-2.86.66-4.07,0-2.31-.66-3.96-.99-4.73l-.99-1.98h16.61c1.43,2.64,1.76,6.16,1.76,8.47Z"/>
      <path class="st1" d="M327.48,733.86h18.04v16.61h-18.04v-16.61ZM328.36,757.29h16.17v59.18h-16.17v-59.18Z"/>
      <path class="st1" d="M406.35,765.65c0,1.98-.11,2.86-.66,4.51l-16.17,46.31h-20.24l-20.13-59.18h16.5l13.75,43.45,10.78-32.78c.33-1.32.55-2.42.55-3.41-.11-3.96-1.87-7.26-1.87-7.26h15.4s1.76,3.19,2.09,8.36Z"/>
      <path class="st1" d="M413.39,733.86h18.04v16.61h-18.04v-16.61ZM414.27,757.29h16.17v59.18h-16.17v-59.18Z"/>
      <path class="st1" d="M439.9,787.43c0-20.9,9.24-31.13,28.38-31.13,15.73,0,25.08,6.05,25.08,25.08,0,4.73-.66,10.56-.66,10.78h-36.3c.11,7.15,4.07,12.1,13.86,12.1,6.49,0,14.74-.88,21.23-3.08l.11,12.98c-5.94,2.53-13.42,3.63-21.67,3.63-21.23,0-30.03-9.24-30.03-30.36ZM477.85,782.48v-2.42c0-7.26-3.19-10.12-9.57-10.12-7.59,0-11.55,4.07-11.99,12.54h21.56Z"/>
      <path class="st1" d="M502.71,757.29h12.76l2.64,12.87c3.96-13.53,13.31-13.97,17.93-13.97,13.86,0,21.01,8.25,21.01,24.53l-.11,35.75h-16.17l.11-34.76c0-7.7-2.31-12.1-10.56-12.1-4.73,0-11.44,2.53-11.44,12.21l-.11,34.65h-16.17l.11-59.18Z"/>
      <path class="st1" d="M566.18,788.09c0-19.69,5.72-32.01,25.08-31.9,11,.11,14.63,7.48,14.85,8.47v-30.8l16.28.11-.11,82.5h-12.87l-2.75-13.09c-2.42,11.77-11.55,14.41-17.05,14.41-17.16,0-23.43-11.55-23.43-29.7ZM606,791.61v-10.23c0-7.04-3.3-11.33-10.23-11.33-10.78-.11-13.2,6.38-13.2,18.04.11,7.92,1.1,15.95,11.66,15.95,7.04,0,11.77-4.51,11.77-12.43Z"/>
      <path class="st1" d="M692.9,802.5v13.42c-4.07,1.87-7.59,1.87-10.45,1.87-8.58-.11-13.42-3.74-13.53-13.31-2.2,9.46-10.23,13.31-16.94,13.31-15.18,0-20.02-8.69-20.02-18.48,0-11.88,8.69-17.71,24.53-17.71h11.88v-1.98c0-7.04-3.85-10.01-12.32-10.01-6.05,0-14.19,1.65-20.57,4.18v-13.64c5.39-2.2,15.95-3.96,21.78-3.96,20.24,0,27.5,7.81,27.61,26.84v18.59c.22,1.21.77,2.09,2.2,2.09,3.3-.22,4.29-.55,5.83-1.21ZM668.59,791.72h-9.57c-5.17,0-11.55,1.76-11.66,7.04,0,3.3,1.65,6.71,8.47,6.71,7.48,0,12.76-4.51,12.76-11.99v-1.76Z"/>
      <path class="st1" d="M773.2,770.16l-24.53,68.2h-15.51l8.69-21.89h-5.94l-20.13-59.18h16.5l13.97,43.89,11.22-33.22c.33-1.32.55-2.2.55-3.96-.11-3.41-1.87-6.71-1.87-6.71h15.4s1.76,3.19,2.09,8.36c0,1.43,0,2.86-.44,4.51Z"/>
    </g>
    <g class="st0">
      <path class="st1" d="M327.81,848.97h16.17l-.33,35.09c3.96-12.32,13.42-12.87,17.71-12.87,13.75,0,20.79,8.14,20.79,24.42v35.86h-16.17v-34.1c0-7.7-1.65-12.76-10.34-12.76-4.29,0-11.66,2.2-11.66,12.21v34.65h-16.17v-82.5Z"/>
      <path class="st1" d="M452.11,917.5v13.42c-4.07,1.87-7.59,1.87-10.45,1.87-8.58-.11-13.42-3.74-13.53-13.31-2.2,9.46-10.23,13.31-16.94,13.31-15.18,0-20.02-8.69-20.02-18.48,0-11.88,8.69-17.71,24.53-17.71h11.88v-1.98c0-7.04-3.85-10.01-12.32-10.01-6.05,0-14.19,1.65-20.57,4.18v-13.64c5.39-2.2,15.95-3.96,21.78-3.96,20.24,0,27.5,7.81,27.61,26.84v18.59c.22,1.21.77,2.09,2.2,2.09,3.3-.22,4.29-.55,5.83-1.21ZM427.8,906.72h-9.57c-5.17,0-11.55,1.76-11.66,7.04,0,3.3,1.65,6.71,8.47,6.71,7.48,0,12.76-4.51,12.76-11.99v-1.76ZM425.16,844.35h18.7l-19.58,20.57h-11.99l12.87-20.57Z"/>
      <path class="st1" d="M473.01,918.38l-2.75,13.09h-12.98l.11-82.5h16.28v31.57c2.2-3.85,7.37-9.35,16.5-9.35,17.49,0,23.32,11.11,23.32,30.58,0,15.29-3.19,31.02-23.54,31.02-5.5,0-14.63-2.97-16.94-14.41ZM497.21,901.99c0-10.34-1.65-17.16-11.99-17.16-7.59,0-11.44,5.06-11.55,11.11v10.89c0,7.37,4.62,11.99,11.22,11.99,10.23,0,12.21-6.82,12.32-16.83Z"/>
      <path class="st1" d="M520.75,848.86h18.04v16.61h-18.04v-16.61ZM521.63,872.29h16.17v59.18h-16.17v-59.18Z"/>
      <path class="st1" d="M554.96,916.95v-31.57h-11.99v-13.09h11.99v-13.64h16.17v13.64h17.49v13.09h-17.49v28.93c0,3.08,2.31,4.18,5.72,4.18s9.46-1.1,11.77-1.87v13.2c-4.07,2.31-11.99,2.97-15.51,2.97-8.8,0-18.15-3.08-18.15-15.84Z"/>
      <path class="st1" d="M655.28,917.5v13.42c-4.07,1.87-7.59,1.87-10.45,1.87-8.58-.11-13.42-3.74-13.53-13.31-2.2,9.46-10.23,13.31-16.94,13.31-15.18,0-20.02-8.69-20.02-18.48,0-11.88,8.69-17.71,24.53-17.71h11.88v-1.98c0-7.04-3.85-10.01-12.32-10.01-6.05,0-14.19,1.65-20.57,4.18v-13.64c5.39-2.2,15.95-3.96,21.78-3.96,20.24,0,27.5,7.81,27.61,26.84v18.59c.22,1.21.77,2.09,2.2,2.09,3.3-.22,4.29-.55,5.83-1.21ZM630.97,906.72h-9.57c-5.17,0-11.55,1.76-11.66,7.04,0,3.3,1.65,6.71,8.47,6.71,7.48,0,12.76-4.51,12.76-11.99v-1.76Z"/>
      <path class="st1" d="M666.28,916.95v-31.57h-11.99v-13.09h11.99v-13.64h16.17v13.64h17.49v13.09h-17.49v28.93c0,3.08,2.31,4.18,5.72,4.18s9.46-1.1,11.77-1.87v13.2c-4.07,2.31-11.99,2.97-15.51,2.97-8.8,0-18.15-3.08-18.15-15.84Z"/>
    </g>
  </g>
</svg>