<svg width="241" height="163" viewBox="0 0 241 163" fill="none" xmlns="http://www.w3.org/2000/svg">
<g clip-path="url(#clip0_1169_569486)">
<path d="M236.008 14.2391C233.429 11.5913 230.073 10.289 226.045 10.3704L178.344 9.87239C178.301 9.86761 178.263 9.85803 178.229 9.85324C178.138 9.66651 178.018 9.36965 177.927 9.13982C177.389 7.81352 176.577 5.80252 174.326 3.63352C169.668 -0.852913 165.381 0.277075 163.244 1.34482C159.807 3.06853 157.55 6.8176 157.502 10.897L157.3 27.3968C157.271 28.2108 157.195 34.3347 160.954 39.051H160.695C159.374 39.051 156.167 39.616 154.895 44.8302C154.395 46.8843 154.376 48.8474 154.376 49.0676V56.4748C154.376 56.4748 154.376 56.4892 154.376 56.494H57.9619V50.212C57.9619 47.5259 56.8816 45.9027 55.9742 45.0169C54.1209 43.2022 51.7538 43.14 51.0721 43.1639H47.9032L21.3906 42.958C20.632 42.7905 19.1772 42.1872 18.7451 38.462V34.871C18.7451 29.6855 15.2593 25.2709 10.4581 24.3803C8.73922 24.0595 7.07797 24.2366 5.51276 24.9022C2.16147 26.3195 -0.00390625 29.7477 -0.00390625 33.6261V69.0292C-0.00390625 72.3282 1.37886 75.426 3.7939 77.5232C5.62319 79.1129 7.64452 80.1758 9.74748 80.669V93.2425C9.74748 98.8637 14.0014 103.436 19.23 103.436H27.0993C30.0233 103.436 32.6352 102.005 34.378 99.7639C36.5338 102.033 39.4818 103.436 42.7226 103.436H45.6274C52.2244 103.436 57.5922 97.6475 57.5922 90.5277V86.453L170.389 86.3572V89.6467C170.389 95.311 175.295 99.9171 181.331 99.9171H183.909C187.289 99.9171 190.319 98.4711 192.326 96.2015C194.333 98.4711 197.362 99.9171 200.742 99.9171H203.32C206.461 99.9171 209.288 98.6674 211.286 96.6756C213.283 98.6674 216.116 99.9171 219.251 99.9171H221.829C227.865 99.9171 232.771 95.311 232.771 89.6467V85.4379C232.771 85.1602 232.743 84.8921 232.699 84.6287C234.073 83.9536 235.489 83.0056 236.757 81.6745C239.628 78.6628 241.049 74.5163 240.986 69.3548C240.79 53.3242 240.986 28.4502 240.986 28.2108C240.986 27.8516 241.03 19.3911 235.993 14.2248L236.008 14.2391ZM51.1393 49.2065H51.3121C51.3121 49.2065 51.8211 49.2544 51.9891 49.4172C52.0467 49.4746 52.1475 49.7092 52.1475 50.2168V62.5365H52.1619V68.3684C52.1619 70.5757 49.8333 72.1127 47.7448 72.1127H40.2548C38.2382 72.1127 36.5962 70.2453 36.5962 67.9566V49.1203L47.8984 49.2065H51.1489H51.1393ZM7.5389 72.9075C6.44901 71.9595 5.82484 70.5518 5.82484 69.0387V33.6357C5.82484 32.2375 6.58824 30.9783 7.72134 30.4995C8.25909 30.2744 8.82084 30.217 9.4402 30.3319C11.4279 30.7006 12.9307 32.6541 12.9307 34.8758V38.6392L12.9499 38.9696C13.7565 46.6161 18.1065 48.5074 20.6272 48.9575L20.8624 49.0006L30.7675 49.0772V58.9646H22.2884C17.5063 58.9646 13.963 60.425 11.7688 63.3074C9.00329 66.9368 9.50262 71.3945 9.75228 72.8022V74.3583C8.99848 74.0184 8.25909 73.5395 7.5437 72.9171L7.5389 72.9075ZM51.7778 86.4865V90.542C51.7778 94.3294 49.0219 97.4129 45.637 97.4129H42.7322C39.3665 97.4129 36.6298 94.3677 36.5914 90.6138V86.4913H51.7778V86.4865ZM189.042 89.661C189.042 91.9976 186.746 93.8985 183.923 93.8985H181.345C178.522 93.8985 176.227 91.9976 176.227 89.661V86.4865H189.046V89.661H189.042ZM203.33 93.8985H200.752C197.929 93.8985 195.634 91.9976 195.634 89.661V86.4865H208.323V89.661C208.323 89.9292 208.338 90.1925 208.362 90.4558C207.911 92.4094 205.832 93.8937 203.335 93.8937L203.33 93.8985ZM226.967 89.661C226.967 91.9976 224.672 93.8985 221.849 93.8985H219.27C216.778 93.8985 214.695 92.4142 214.243 90.4606C214.263 90.1973 214.282 89.9339 214.282 89.6658V86.4913H226.972V89.6658L226.967 89.661ZM230.889 78.8304C228.551 80.2333 226.064 80.2859 226.055 80.2859L37.5949 80.4488H36.1545V80.4631C33.2497 80.6068 30.9115 83.087 30.7723 86.1801H30.7579V93.2521C30.7579 95.5456 29.1158 97.4081 27.0993 97.4081H19.23C17.2135 97.4081 15.5714 95.5408 15.5714 93.2521V72.1366L15.4946 71.7919C15.4898 71.7632 14.9185 68.9047 16.3348 67.0421C17.3719 65.6823 19.374 64.9976 22.2836 64.9976H30.7627V67.9566C30.7627 73.5778 35.0166 78.1505 40.2452 78.1505H47.7352C52.6805 78.1505 57.9763 74.2194 57.9763 68.3684V62.5365H154.506C157.646 62.5365 160.195 59.8217 160.195 56.4796V49.082C160.205 47.5785 160.57 45.7351 160.968 45.0935H172.832V56.968C172.808 57.8298 172.784 64.2794 176.875 68.7084C179.377 71.4184 182.785 72.7926 187.011 72.7926C188.619 72.7926 189.92 71.4424 189.92 69.7761C189.92 68.1099 188.614 66.7596 187.011 66.7596C184.413 66.7596 182.483 66.0414 181.105 64.5619C178.527 61.7944 178.652 57.1834 178.652 57.1499V43.5853H191.505C191.034 44.7584 190.775 46.0464 190.775 47.4014V51.8208C190.775 57.2553 194.961 61.6747 200.108 61.6747H218.809C223.956 61.6747 228.143 57.2553 228.143 51.8208V45.0265C228.143 42.1776 226.928 39.9416 224.72 38.7206C223.414 37.9976 221.921 37.7199 220.538 37.6145V37.5523H168.526C162.889 35.0481 163.105 27.9378 163.115 27.6458L163.316 10.9832C163.34 9.17333 164.301 7.53102 165.77 6.79366C166.768 6.29091 168.19 5.98447 170.355 8.06729C171.69 9.35049 172.107 10.3847 172.549 11.4812C173.202 13.09 174.182 15.5223 177.869 15.9006L226.069 16.4129H226.117C228.556 16.3602 230.448 17.0449 231.888 18.5149C235.167 21.857 235.172 28.1006 235.172 28.1677C235.172 28.4166 234.975 53.353 235.172 69.4505C235.23 73.9992 233.828 77.0684 230.885 78.8352L230.889 78.8304ZM222.324 45.0217V51.816C222.324 53.918 220.749 55.6321 218.814 55.6321H200.113C198.178 55.6321 196.604 53.9228 196.604 51.816V47.3966C196.604 45.2946 198.178 43.5805 200.113 43.5805H218.814C222.324 43.5805 222.324 44.2173 222.324 45.0217Z" fill="#AD8049"/>
<path d="M43.4887 150.57C43.7191 151.576 43.6183 152.792 43.5127 154.07L43.5031 154.19C43.4695 154.52 43.4455 154.832 43.4167 155.148C43.287 156.689 43.143 158.442 42.2115 159.897C41.0016 161.841 38.7546 161.798 37.1174 161.774H36.7237C34.8512 161.736 31.7784 161.693 29.517 161.688C26.689 161.674 24.0771 161.693 21.0427 161.741C20.3033 161.707 19.7272 161.741 19.1654 161.774C18.8101 161.793 18.4644 161.813 18.1139 161.813C17.2209 161.813 16.3279 161.683 15.334 161.104L15.1275 160.946C13.5623 159.395 14.8203 157.551 15.5741 156.455C15.8621 156.029 16.1646 155.588 16.2606 155.286C16.6015 154.425 16.6159 153.663 16.6399 152.509C16.6495 152.15 16.6543 151.753 16.6735 151.327C16.7792 144.269 16.7888 138.016 16.688 132.763C16.6447 131.873 16.5055 131.155 16.2462 130.527C16.083 130.053 15.8045 129.608 15.502 129.139C14.9643 128.291 14.3545 127.329 14.3833 126.184L14.4266 125.902L14.489 125.72C15.3916 123.637 18.2964 123.738 20.4137 123.814C21.0379 123.838 21.6237 123.857 22.0174 123.819L22.3294 123.81C25.215 123.728 27.8797 123.79 28.6959 125.418C29.1425 126.314 28.8784 127.382 27.9133 128.593L27.558 129.053C27.0731 129.67 26.617 130.254 26.3289 130.882C25.9112 131.763 25.868 132.73 25.8488 133.999C25.7912 137.724 25.7912 141.87 25.796 145.883V149.919C25.8056 150.345 25.8008 150.81 25.796 151.274C25.7768 152.902 25.7624 154.587 26.5594 154.999C28.1342 155.904 30.1699 155.746 32.1385 155.588L32.2441 155.579C35.5618 155.32 37.2614 154.037 38.7306 150.68C38.865 150.336 39.5084 149.498 39.5132 149.493C40.4447 148.301 41.4433 148.401 41.8274 148.497C42.6725 148.708 43.3062 149.502 43.4887 150.57Z" fill="#621132"/>
<path d="M58.4832 156.751C59.2514 157.771 60.4133 159.313 59.381 160.773L59.1746 160.989C58.0367 161.88 56.6779 162.047 55.3624 162.047C54.9591 162.047 54.5654 162.033 54.1813 162.018C53.5763 161.994 53.0049 161.975 52.4912 162.009L52.2319 162.018C49.3944 162.095 46.7777 162.028 45.9519 160.405C45.4958 159.509 45.7454 158.437 46.6913 157.211L46.7921 157.058C47.349 156.263 47.8724 155.516 48.0692 154.721C48.2469 153.898 48.2277 152.562 48.2085 151.264C48.1989 150.565 48.1893 149.866 48.2085 149.22V141.497C48.2085 137.072 48.2085 132.71 48.2085 130.374C48.2085 129.435 47.5843 128.722 46.9793 128.033C46.3408 127.305 45.6158 126.476 45.8799 125.399C46.1247 124.374 47.1666 123.589 49.4664 122.67C52.5584 121.377 54.7814 120.793 56.2554 121.894C57.4461 122.78 57.8302 124.499 57.4989 127.463C57.4317 129.119 57.3933 131.188 57.3933 133.208V153.093C57.3933 154.027 57.3981 154.764 57.7294 155.521L57.7774 155.665C57.8398 155.894 58.1951 156.364 58.4784 156.742L58.4832 156.751Z" fill="#621132"/>
<path d="M87.5708 143.565C87.5708 144.613 87.542 145.724 87.5036 146.83V159.768C87.5036 160.079 87.4172 160.39 87.2539 160.687C86.913 161.309 86.2601 161.702 85.5639 161.702H81.1563C80.0856 161.702 79.2166 160.835 79.2166 159.768V159.145C77.1856 160.735 74.4009 161.692 71.7074 161.692C66.354 161.692 62.7578 158.657 62.7578 154.132C62.7578 149.607 65.7346 146.576 71.1456 144.963C73.0757 144.412 75.1403 144.125 76.7967 143.895C77.6178 143.78 78.626 143.641 78.9957 143.531C79.0389 143.407 79.135 143.033 79.135 142.1C79.135 140.673 78.8373 138.169 76.8784 137.331C76.2062 137.106 75.4908 137.005 74.8138 137.053C72.9317 137.192 71.597 138.288 71.112 140.065L71.0544 140.256C70.411 142.387 69.8061 142.971 67.0453 142.741C66.2291 142.674 65.6386 142.396 65.2401 141.889C64.5871 141.065 64.6159 139.868 64.8896 138.092C65.1632 136.292 66.4644 134.645 68.5481 133.457C70.4302 132.385 72.7349 131.824 74.8714 131.858C76.3982 131.844 77.8242 132.03 79.1782 132.423H79.1878C79.1878 132.423 79.2022 132.423 79.207 132.428C79.2166 132.428 79.2262 132.432 79.2358 132.437C82.0109 133.112 84.2243 134.592 85.6551 136.713L85.9576 137.082V137.23C87.0138 139.016 87.566 141.132 87.566 143.565H87.5708ZM74.1224 155.43C77.1328 155.43 79.159 153.155 79.159 149.775C79.159 149.296 79.1446 148.98 79.1254 148.769C77.2721 148.803 75.8125 149.004 74.5689 149.397C72.4756 150.086 71.2705 151.412 71.2705 153.026C71.2705 155.252 73.455 155.43 74.1272 155.43H74.1224Z" fill="#621132"/>
<path d="M118 133.534C119.191 133.788 120.007 134.841 119.897 135.981C119.81 136.905 119.282 137.499 118.773 138.073C118.548 138.332 118.283 138.624 118.019 138.997C117.534 139.644 117.064 140.491 116.713 141.344C115.609 143.977 113.573 149.531 112.359 152.854L111.85 154.238C111.61 154.793 111.408 155.32 111.206 155.856C110.381 158.03 109.444 160.496 107.106 161.698C106.146 162.157 105.296 162.387 104.533 162.387C104.062 162.387 103.62 162.301 103.207 162.124C102.079 161.645 101.277 160.587 100.682 158.787C100.279 157.819 99.6113 156.182 98.8431 154.286C97.2587 150.379 95.2854 145.519 93.9746 142.498C93.3265 141.099 92.7935 140.017 91.9869 139.06C90.5993 137.729 89.98 136.517 90.148 135.45C90.2296 134.932 90.5369 134.219 91.5404 133.745C92.4478 133.371 93.3601 133.405 94.1667 133.439L94.3779 133.448C95.8567 133.539 97.2731 133.491 98.7807 133.448L99.885 133.415C100.764 133.319 102.156 133.529 102.905 134.478C103.385 135.086 103.486 135.866 103.193 136.67C103.039 137.106 102.799 137.504 102.588 137.858C102.396 138.179 102.218 138.48 102.132 138.753C101.954 139.328 102.074 139.701 102.29 140.372C102.362 140.592 102.434 140.822 102.502 141.071C103.217 143.177 103.99 145.126 104.811 147.195L105.488 148.909C105.618 149.163 105.819 149.68 106.05 150.283C106.199 150.666 106.429 151.26 106.655 151.791C107.812 149.249 108.753 146.065 109.598 143.206C109.8 142.526 109.996 141.861 110.193 141.219C110.577 139.936 110.52 139.108 109.987 138.361C109.862 138.164 109.742 138.016 109.627 137.863C109.137 137.231 108.393 136.268 108.82 135.038C109.454 133.333 111.451 133.4 112.306 133.434C113.281 133.52 114.154 133.496 115.081 133.467C115.936 133.443 116.819 133.419 117.731 133.486L118 133.534Z" fill="#621132"/>
<path d="M145.758 149.809C146.161 149.809 147.482 149.981 147.482 152.212C147.482 156.177 143.074 161.918 135.104 161.918C127.134 161.918 121.219 156.172 121.219 147.625C121.219 139.079 127.47 132.146 135.762 132.146C143.175 132.146 147.054 137.465 147.054 142.722C147.054 144.561 146.243 145.916 144.572 146.864C140.899 149.081 132.814 149.579 130.466 149.675C130.744 151.566 132.497 154.74 136.924 154.74C140.011 154.74 142.354 153.476 143.895 150.987L143.962 150.891C144.351 150.398 144.975 149.809 145.753 149.809H145.758ZM138.988 141.77C138.988 139.399 137.341 137.609 135.162 137.609C131.926 137.609 129.746 141.027 129.746 144.221C129.746 144.346 129.755 144.441 129.765 144.504C131.974 144.47 136.89 143.737 138.537 142.603C138.873 142.368 138.988 142.157 138.988 141.765V141.77Z" fill="#621132"/>
<path d="M201.648 157.781C201.951 158.81 201.648 159.495 201.336 159.887C200.635 160.778 199.305 160.936 198.182 160.936C197.827 160.936 197.491 160.922 197.202 160.907C195.652 160.845 194.451 160.826 192.944 160.893H192.612C191.316 160.917 189.357 160.96 188.479 159.816C188.195 159.442 187.912 158.805 188.186 157.867C188.368 157.249 188.656 156.842 188.963 156.416C189.117 156.201 189.295 155.952 189.501 155.621C190.265 154.376 190.385 152.868 190.351 151.82C190.317 151.106 190.289 150.086 190.255 148.889C190.178 146.036 190.068 142.028 189.756 138.6C189.616 138.92 189.463 139.28 189.29 139.691C188.253 142.191 187.427 144.321 186.284 147.295L186.256 147.371C185.823 148.487 185.358 149.727 184.882 150.986C183.941 153.481 182.967 156.062 182.17 157.948C181.545 159.643 180.023 160.874 178.492 160.898C177.224 160.912 176.168 160.122 175.587 158.705C174.949 157.283 173.671 154.113 172.188 150.45C170.493 146.261 168.62 141.626 167.194 138.317C167.108 140.074 167.055 142.21 167.007 144.302C166.969 145.897 166.93 147.482 166.878 148.889C166.83 150.632 166.815 152.49 167.166 154.285C167.339 155.3 167.612 155.918 168.087 156.373C168.433 156.67 169.682 157.862 169.446 159.179C169.379 159.557 169.129 160.247 168.179 160.61L168.035 160.654C166.734 160.946 165.111 160.922 163.541 160.898C163.128 160.893 162.729 160.883 162.345 160.888L161.875 160.898C160.463 160.926 158.711 160.965 157.942 159.782C157.525 159.136 157.534 158.336 157.976 157.407C158.206 156.919 158.538 156.56 158.859 156.21C159.095 155.956 159.335 155.693 159.556 155.363C159.983 154.769 160.021 154.012 160.065 153.131C160.074 152.916 160.089 152.701 160.103 152.485C160.602 147.189 160.977 138.355 161.01 133.419C161.001 133.122 161.001 132.796 161.001 132.471C161.001 130.824 160.991 129.402 160.199 128.186C159.959 127.803 159.671 127.506 159.392 127.218C158.965 126.778 158.519 126.318 158.302 125.648C158.072 125.078 158.13 124.365 158.485 123.771C158.893 123.091 159.618 122.627 160.434 122.531C161.092 122.406 161.745 122.44 162.379 122.464C162.571 122.473 162.763 122.483 162.96 122.488C163.459 122.507 163.915 122.516 164.367 122.531C165.043 122.545 165.716 122.56 166.412 122.607H166.441C169.72 122.607 171.256 124.877 172.226 126.85C173.844 130.402 176.274 136.191 178.228 140.845C179.044 142.784 179.769 144.513 180.307 145.777C180.566 145.126 180.883 144.307 181.253 143.364C183.067 138.719 186.102 130.948 188.094 126.543C188.858 124.968 189.991 123.139 192.113 122.809C193.15 122.603 194.398 122.564 195.604 122.531C195.983 122.521 196.357 122.512 196.713 122.493C198.062 122.363 199.906 122.44 200.76 123.555C201.101 124.001 201.413 124.776 200.967 125.94C200.717 126.491 200.381 126.874 200.054 127.242C199.81 127.515 199.56 127.798 199.344 128.138C198.403 129.512 198.393 131.236 198.384 133.06V133.63C198.417 139.409 198.984 148.765 199.449 152.95C199.531 153.821 199.685 154.783 200.174 155.449C200.371 155.722 200.535 155.937 200.683 156.124C201.091 156.646 201.437 157.096 201.644 157.79L201.648 157.781Z" fill="#621132"/>
<path d="M238.613 155.186C239.718 155.966 240.971 156.852 240.937 158.274C240.975 158.882 240.755 159.495 240.298 159.959C239.477 160.793 238.138 160.931 237.154 160.884C236.707 160.879 236.136 160.86 235.502 160.836C233.99 160.788 232.107 160.726 230.499 160.788C230.005 160.778 229.577 160.807 229.121 160.84C228.002 160.922 226.735 161.013 225.53 160.338L225.328 160.189C223.667 158.638 225.011 157.053 225.659 156.292C225.923 155.981 226.37 155.459 226.336 155.262C226.24 154.736 225.472 153.012 221.463 147.74C221.338 147.573 221.237 147.458 221.161 147.376C221.05 147.51 220.925 147.688 220.844 147.807C220.69 148.028 220.536 148.243 220.373 148.42C219.898 149.043 219.374 149.737 218.842 150.46C218.453 151.03 218.059 151.576 217.699 152.074C216.671 153.5 215.855 154.626 215.994 155.277C216.062 155.564 216.378 155.894 216.715 156.244C217.036 156.579 217.401 156.962 217.646 157.431C218.189 158.537 217.852 159.323 217.612 159.691C216.988 160.635 215.687 160.922 214.688 160.874C214.184 160.869 213.536 160.845 212.859 160.821C212.048 160.793 211.203 160.759 210.487 160.759C209.974 160.711 209.431 160.759 208.855 160.812C208.37 160.855 207.866 160.898 207.357 160.898C206.541 160.898 205.724 160.788 204.999 160.376L204.836 160.285L204.716 160.141C204.159 159.476 203.924 158.791 204.015 158.111C204.174 156.909 205.278 156.134 206.344 155.382C206.872 155.009 207.419 154.626 207.842 154.204C209.657 152.557 210.939 150.838 212.72 148.459C213.085 147.97 213.469 147.453 213.882 146.907C214.127 146.553 214.477 146.079 214.852 145.571C215.721 144.393 216.916 142.78 217.147 142.071C217.171 141.956 217.176 141.923 216.791 141.363C216.671 141.185 216.537 140.994 216.398 140.764C216.047 140.266 215.668 139.73 215.303 139.218L214.808 138.523C214.487 138.097 214.04 137.484 213.527 136.771C211.798 134.386 209.186 130.776 207.352 128.971C207.083 128.727 206.781 128.492 206.502 128.277C205.897 127.812 205.331 127.372 204.99 126.74C204.591 126.055 204.553 125.188 204.899 124.451C205.244 123.709 205.921 123.201 206.747 123.053C208.37 122.852 210.166 122.909 211.904 122.962C213.488 123.01 215.13 123.058 216.532 122.914C217.91 122.747 219.783 122.986 220.488 124.24C220.829 124.844 221.002 125.849 219.917 127.209C219.254 127.898 218.981 128.334 219.029 128.578C219.264 129.656 221.477 133.175 223.672 135.952C225.438 133.75 227.83 130.163 228.31 128.789C228.425 128.473 228.204 128.128 227.628 127.42C227.359 127.089 227.081 126.745 226.869 126.357C226.332 125.222 226.672 124.446 226.922 124.078C227.561 123.125 228.857 122.857 229.87 122.895C231.915 123.01 234.35 123.015 237.12 122.905C238.138 122.842 239.079 123.321 239.554 124.14C240.02 124.944 239.977 125.911 239.444 126.735C238.796 127.592 237.975 128.215 237.182 128.813C236.496 129.33 235.848 129.819 235.396 130.379C234.34 131.571 231.911 134.846 230.144 137.297C229.875 137.714 229.534 138.164 229.193 138.614C228.583 139.414 228.007 140.175 227.724 140.96C227.978 141.573 228.991 143.24 229.678 144.154L229.846 144.389C231.915 147.295 235.041 151.686 237.235 154.051L237.317 154.128C237.648 154.477 238.147 154.827 238.628 155.167L238.613 155.186Z" fill="#621132"/>
</g>
<defs>
<clipPath id="clip0_1169_569486">
<rect width="241" height="162" fill="white" transform="translate(0 0.386719)"/>
</clipPath>
</defs>
</svg>
